<svg viewBox="0 0 256 256" xmlns="http://www.w3.org/2000/svg" shape-rendering="crispEdges">
  <rect width="256" height="256" fill="white"/>
  <path d="M2 2 h14 v1 h-14 z M30 2 h14 v1 h-14 z M58 2 h14 v1 h-14 z M86 2 h14 v1 h-14 z M114 2 h14 v1 h-14 z M142 2 h14 v1 h-14 z M170 2 h14 v1 h-14 z M198 2 h14 v1 h-14 z M226 2 h14 v1 h-14 z M2 3 h14 v1 h-14 z M30 3 h14 v1 h-14 z M58 3 h14 v1 h-14 z M86 3 h14 v1 h-14 z M114 3 h14 v1 h-14 z M142 3 h14 v1 h-14 z M170 3 h14 v1 h-14 z M198 3 h14 v1 h-14 z M226 3 h14 v1 h-14 z M2 4 h14 v1 h-14 z M30 4 h14 v1 h-14 z M58 4 h14 v1 h-14 z M86 4 h14 v1 h-14 z M114 4 h14 v1 h-14 z M142 4 h14 v1 h-14 z M170 4 h14 v1 h-14 z M198 4 h14 v1 h-14 z M226 4 h14 v1 h-14 z M2 5 h14 v1 h-14 z M30 5 h14 v1 h-14 z M58 5 h14 v1 h-14 z M86 5 h14 v1 h-14 z M114 5 h14 v1 h-14 z M142 5 h14 v1 h-14 z M170 5 h14 v1 h-14 z M198 5 h14 v1 h-14 z M226 5 h14 v1 h-14 z M2 6 h14 v1 h-14 z M30 6 h14 v1 h-14 z M58 6 h14 v1 h-14 z M86 6 h14 v1 h-14 z M114 6 h14 v1 h-14 z M142 6 h14 v1 h-14 z M170 6 h14 v1 h-14 z M198 6 h14 v1 h-14 z M226 6 h14 v1 h-14 z M2 7 h14 v1 h-14 z M30 7 h14 v1 h-14 z M58 7 h14 v1 h-14 z M86 7 h14 v1 h-14 z M114 7 h14 v1 h-14 z M142 7 h14 v1 h-14 z M170 7 h14 v1 h-14 z M198 7 h14 v1 h-14 z M226 7 h14 v1 h-14 z M2 8 h14 v1 h-14 z M30 8 h14 v1 h-14 z M58 8 h14 v1 h-14 z M86 8 h14 v1 h-14 z M114 8 h14 v1 h-14 z M142 8 h14 v1 h-14 z M170 8 h14 v1 h-14 z M198 8 h14 v1 h-14 z M226 8 h14 v1 h-14 z M2 9 h14 v1 h-14 z M30 9 h14 v1 h-14 z M58 9 h14 v1 h-14 z M86 9 h14 v1 h-14 z M114 9 h14 v1 h-14 z M142 9 h14 v1 h-14 z M170 9 h14 v1 h-14 z M198 9 h14 v1 h-14 z M226 9 h14 v1 h-14 z M2 10 h14 v1 h-14 z M30 10 h14 v1 h-14 z M58 10 h14 v1 h-14 z M86 10 h14 v1 h-14 z M114 10 h14 v1 h-14 z M142 10 h14 v1 h-14 z M170 10 h14 v1 h-14 z M198 10 h14 v1 h-14 z M226 10 h14 v1 h-14 z M2 11 h14 v1 h-14 z M30 11 h14 v1 h-14 z M58 11 h14 v1 h-14 z M86 11 h14 v1 h-14 z M114 11 h14 v1 h-14 z M142 11 h14 v1 h-14 z M170 11 h14 v1 h-14 z M198 11 h14 v1 h-14 z M226 11 h14 v1 h-14 z M2 12 h14 v1 h-14 z M30 12 h14 v1 h-14 z M58 12 h14 v1 h-14 z M86 12 h14 v1 h-14 z M114 12 h14 v1 h-14 z M142 12 h14 v1 h-14 z M170 12 h14 v1 h-14 z M198 12 h14 v1 h-14 z M226 12 h14 v1 h-14 z M2 13 h14 v1 h-14 z M30 13 h14 v1 h-14 z M58 13 h14 v1 h-14 z M86 13 h14 v1 h-14 z M114 13 h14 v1 h-14 z M142 13 h14 v1 h-14 z M170 13 h14 v1 h-14 z M198 13 h14 v1 h-14 z M226 13 h14 v1 h-14 z M2 14 h14 v1 h-14 z M30 14 h14 v1 h-14 z M58 14 h14 v1 h-14 z M86 14 h14 v1 h-14 z M114 14 h14 v1 h-14 z M142 14 h14 v1 h-14 z M170 14 h14 v1 h-14 z M198 14 h14 v1 h-14 z M226 14 h14 v1 h-14 z M2 15 h14 v1 h-14 z M30 15 h14 v1 h-14 z M58 15 h14 v1 h-14 z M86 15 h14 v1 h-14 z M114 15 h14 v1 h-14 z M142 15 h14 v1 h-14 z M170 15 h14 v1 h-14 z M198 15 h14 v1 h-14 z M226 15 h14 v1 h-14 z M2 16 h14 v1 h-14 z M30 16 h28 v1 h-28 z M72 16 h28 v1 h-28 z M142 16 h14 v1 h-14 z M170 16 h14 v1 h-14 z M198 16 h14 v1 h-14 z M226 16 h28 v1 h-28 z M2 17 h14 v1 h-14 z M30 17 h28 v1 h-28 z M72 17 h28 v1 h-28 z M142 17 h14 v1 h-14 z M170 17 h14 v1 h-14 z M198 17 h14 v1 h-14 z M226 17 h28 v1 h-28 z M2 18 h14 v1 h-14 z M30 18 h28 v1 h-28 z M72 18 h28 v1 h-28 z M142 18 h14 v1 h-14 z M170 18 h14 v1 h-14 z M198 18 h14 v1 h-14 z M226 18 h28 v1 h-28 z M2 19 h14 v1 h-14 z M30 19 h28 v1 h-28 z M72 19 h28 v1 h-28 z M142 19 h14 v1 h-14 z M170 19 h14 v1 h-14 z M198 19 h14 v1 h-14 z M226 19 h28 v1 h-28 z M2 20 h14 v1 h-14 z M30 20 h28 v1 h-28 z M72 20 h28 v1 h-28 z M142 20 h14 v1 h-14 z M170 20 h14 v1 h-14 z M198 20 h14 v1 h-14 z M226 20 h28 v1 h-28 z M2 21 h14 v1 h-14 z M30 21 h28 v1 h-28 z M72 21 h28 v1 h-28 z M142 21 h14 v1 h-14 z M170 21 h14 v1 h-14 z M198 21 h14 v1 h-14 z M226 21 h28 v1 h-28 z M2 22 h14 v1 h-14 z M30 22 h28 v1 h-28 z M72 22 h28 v1 h-28 z M142 22 h14 v1 h-14 z M170 22 h14 v1 h-14 z M198 22 h14 v1 h-14 z M226 22 h28 v1 h-28 z M2 23 h14 v1 h-14 z M30 23 h28 v1 h-28 z M72 23 h28 v1 h-28 z M142 23 h14 v1 h-14 z M170 23 h14 v1 h-14 z M198 23 h14 v1 h-14 z M226 23 h28 v1 h-28 z M2 24 h14 v1 h-14 z M30 24 h28 v1 h-28 z M72 24 h28 v1 h-28 z M142 24 h14 v1 h-14 z M170 24 h14 v1 h-14 z M198 24 h14 v1 h-14 z M226 24 h28 v1 h-28 z M2 25 h14 v1 h-14 z M30 25 h28 v1 h-28 z M72 25 h28 v1 h-28 z M142 25 h14 v1 h-14 z M170 25 h14 v1 h-14 z M198 25 h14 v1 h-14 z M226 25 h28 v1 h-28 z M2 26 h14 v1 h-14 z M30 26 h28 v1 h-28 z M72 26 h28 v1 h-28 z M142 26 h14 v1 h-14 z M170 26 h14 v1 h-14 z M198 26 h14 v1 h-14 z M226 26 h28 v1 h-28 z M2 27 h14 v1 h-14 z M30 27 h28 v1 h-28 z M72 27 h28 v1 h-28 z M142 27 h14 v1 h-14 z M170 27 h14 v1 h-14 z M198 27 h14 v1 h-14 z M226 27 h28 v1 h-28 z M2 28 h14 v1 h-14 z M30 28 h28 v1 h-28 z M72 28 h28 v1 h-28 z M142 28 h14 v1 h-14 z M170 28 h14 v1 h-14 z M198 28 h14 v1 h-14 z M226 28 h28 v1 h-28 z M2 29 h14 v1 h-14 z M30 29 h28 v1 h-28 z M72 29 h28 v1 h-28 z M142 29 h14 v1 h-14 z M170 29 h14 v1 h-14 z M198 29 h14 v1 h-14 z M226 29 h28 v1 h-28 z M2 30 h28 v1 h-28 z M72 30 h14 v1 h-14 z M100 30 h14 v1 h-14 z M128 30 h42 v1 h-42 z M184 30 h42 v1 h-42 z M2 31 h28 v1 h-28 z M72 31 h14 v1 h-14 z M100 31 h14 v1 h-14 z M128 31 h42 v1 h-42 z M184 31 h42 v1 h-42 z M2 32 h28 v1 h-28 z M72 32 h14 v1 h-14 z M100 32 h14 v1 h-14 z M128 32 h42 v1 h-42 z M184 32 h42 v1 h-42 z M2 33 h28 v1 h-28 z M72 33 h14 v1 h-14 z M100 33 h14 v1 h-14 z M128 33 h42 v1 h-42 z M184 33 h42 v1 h-42 z M2 34 h28 v1 h-28 z M72 34 h14 v1 h-14 z M100 34 h14 v1 h-14 z M128 34 h42 v1 h-42 z M184 34 h42 v1 h-42 z M2 35 h28 v1 h-28 z M72 35 h14 v1 h-14 z M100 35 h14 v1 h-14 z M128 35 h42 v1 h-42 z M184 35 h42 v1 h-42 z M2 36 h28 v1 h-28 z M72 36 h14 v1 h-14 z M100 36 h14 v1 h-14 z M128 36 h42 v1 h-42 z M184 36 h42 v1 h-42 z M2 37 h28 v1 h-28 z M72 37 h14 v1 h-14 z M100 37 h14 v1 h-14 z M128 37 h42 v1 h-42 z M184 37 h42 v1 h-42 z M2 38 h28 v1 h-28 z M72 38 h14 v1 h-14 z M100 38 h14 v1 h-14 z M128 38 h42 v1 h-42 z M184 38 h42 v1 h-42 z M2 39 h28 v1 h-28 z M72 39 h14 v1 h-14 z M100 39 h14 v1 h-14 z M128 39 h42 v1 h-42 z M184 39 h42 v1 h-42 z M2 40 h28 v1 h-28 z M72 40 h14 v1 h-14 z M100 40 h14 v1 h-14 z M128 40 h42 v1 h-42 z M184 40 h42 v1 h-42 z M2 41 h28 v1 h-28 z M72 41 h14 v1 h-14 z M100 41 h14 v1 h-14 z M128 41 h42 v1 h-42 z M184 41 h42 v1 h-42 z M2 42 h28 v1 h-28 z M72 42 h14 v1 h-14 z M100 42 h14 v1 h-14 z M128 42 h42 v1 h-42 z M184 42 h42 v1 h-42 z M2 43 h28 v1 h-28 z M72 43 h14 v1 h-14 z M100 43 h14 v1 h-14 z M128 43 h42 v1 h-42 z M184 43 h42 v1 h-42 z M2 44 h14 v1 h-14 z M30 44 h14 v1 h-14 z M86 44 h14 v1 h-14 z M114 44 h14 v1 h-14 z M156 44 h42 v1 h-42 z M226 44 h28 v1 h-28 z M2 45 h14 v1 h-14 z M30 45 h14 v1 h-14 z M86 45 h14 v1 h-14 z M114 45 h14 v1 h-14 z M156 45 h42 v1 h-42 z M226 45 h28 v1 h-28 z M2 46 h14 v1 h-14 z M30 46 h14 v1 h-14 z M86 46 h14 v1 h-14 z M114 46 h14 v1 h-14 z M156 46 h42 v1 h-42 z M226 46 h28 v1 h-28 z M2 47 h14 v1 h-14 z M30 47 h14 v1 h-14 z M86 47 h14 v1 h-14 z M114 47 h14 v1 h-14 z M156 47 h42 v1 h-42 z M226 47 h28 v1 h-28 z M2 48 h14 v1 h-14 z M30 48 h14 v1 h-14 z M86 48 h14 v1 h-14 z M114 48 h14 v1 h-14 z M156 48 h42 v1 h-42 z M226 48 h28 v1 h-28 z M2 49 h14 v1 h-14 z M30 49 h14 v1 h-14 z M86 49 h14 v1 h-14 z M114 49 h14 v1 h-14 z M156 49 h42 v1 h-42 z M226 49 h28 v1 h-28 z M2 50 h14 v1 h-14 z M30 50 h14 v1 h-14 z M86 50 h14 v1 h-14 z M114 50 h14 v1 h-14 z M156 50 h42 v1 h-42 z M226 50 h28 v1 h-28 z M2 51 h14 v1 h-14 z M30 51 h14 v1 h-14 z M86 51 h14 v1 h-14 z M114 51 h14 v1 h-14 z M156 51 h42 v1 h-42 z M226 51 h28 v1 h-28 z M2 52 h14 v1 h-14 z M30 52 h14 v1 h-14 z M86 52 h14 v1 h-14 z M114 52 h14 v1 h-14 z M156 52 h42 v1 h-42 z M226 52 h28 v1 h-28 z M2 53 h14 v1 h-14 z M30 53 h14 v1 h-14 z M86 53 h14 v1 h-14 z M114 53 h14 v1 h-14 z M156 53 h42 v1 h-42 z M226 53 h28 v1 h-28 z M2 54 h14 v1 h-14 z M30 54 h14 v1 h-14 z M86 54 h14 v1 h-14 z M114 54 h14 v1 h-14 z M156 54 h42 v1 h-42 z M226 54 h28 v1 h-28 z M2 55 h14 v1 h-14 z M30 55 h14 v1 h-14 z M86 55 h14 v1 h-14 z M114 55 h14 v1 h-14 z M156 55 h42 v1 h-42 z M226 55 h28 v1 h-28 z M2 56 h14 v1 h-14 z M30 56 h14 v1 h-14 z M86 56 h14 v1 h-14 z M114 56 h14 v1 h-14 z M156 56 h42 v1 h-42 z M226 56 h28 v1 h-28 z M2 57 h14 v1 h-14 z M30 57 h14 v1 h-14 z M86 57 h14 v1 h-14 z M114 57 h14 v1 h-14 z M156 57 h42 v1 h-42 z M226 57 h28 v1 h-28 z M2 58 h14 v1 h-14 z M44 58 h42 v1 h-42 z M156 58 h14 v1 h-14 z M198 58 h14 v1 h-14 z M2 59 h14 v1 h-14 z M44 59 h42 v1 h-42 z M156 59 h14 v1 h-14 z M198 59 h14 v1 h-14 z M2 60 h14 v1 h-14 z M44 60 h42 v1 h-42 z M156 60 h14 v1 h-14 z M198 60 h14 v1 h-14 z M2 61 h14 v1 h-14 z M44 61 h42 v1 h-42 z M156 61 h14 v1 h-14 z M198 61 h14 v1 h-14 z M2 62 h14 v1 h-14 z M44 62 h42 v1 h-42 z M156 62 h14 v1 h-14 z M198 62 h14 v1 h-14 z M2 63 h14 v1 h-14 z M44 63 h42 v1 h-42 z M156 63 h14 v1 h-14 z M198 63 h14 v1 h-14 z M2 64 h14 v1 h-14 z M44 64 h42 v1 h-42 z M156 64 h14 v1 h-14 z M198 64 h14 v1 h-14 z M2 65 h14 v1 h-14 z M44 65 h42 v1 h-42 z M156 65 h14 v1 h-14 z M198 65 h14 v1 h-14 z M2 66 h14 v1 h-14 z M44 66 h42 v1 h-42 z M156 66 h14 v1 h-14 z M198 66 h14 v1 h-14 z M2 67 h14 v1 h-14 z M44 67 h42 v1 h-42 z M156 67 h14 v1 h-14 z M198 67 h14 v1 h-14 z M2 68 h14 v1 h-14 z M44 68 h42 v1 h-42 z M156 68 h14 v1 h-14 z M198 68 h14 v1 h-14 z M2 69 h14 v1 h-14 z M44 69 h42 v1 h-42 z M156 69 h14 v1 h-14 z M198 69 h14 v1 h-14 z M2 70 h14 v1 h-14 z M44 70 h42 v1 h-42 z M156 70 h14 v1 h-14 z M198 70 h14 v1 h-14 z M2 71 h14 v1 h-14 z M44 71 h42 v1 h-42 z M156 71 h14 v1 h-14 z M198 71 h14 v1 h-14 z M2 72 h42 v1 h-42 z M100 72 h28 v1 h-28 z M142 72 h14 v1 h-14 z M170 72 h14 v1 h-14 z M198 72 h28 v1 h-28 z M240 72 h14 v1 h-14 z M2 73 h42 v1 h-42 z M100 73 h28 v1 h-28 z M142 73 h14 v1 h-14 z M170 73 h14 v1 h-14 z M198 73 h28 v1 h-28 z M240 73 h14 v1 h-14 z M2 74 h42 v1 h-42 z M100 74 h28 v1 h-28 z M142 74 h14 v1 h-14 z M170 74 h14 v1 h-14 z M198 74 h28 v1 h-28 z M240 74 h14 v1 h-14 z M2 75 h42 v1 h-42 z M100 75 h28 v1 h-28 z M142 75 h14 v1 h-14 z M170 75 h14 v1 h-14 z M198 75 h28 v1 h-28 z M240 75 h14 v1 h-14 z M2 76 h42 v1 h-42 z M100 76 h28 v1 h-28 z M142 76 h14 v1 h-14 z M170 76 h14 v1 h-14 z M198 76 h28 v1 h-28 z M240 76 h14 v1 h-14 z M2 77 h42 v1 h-42 z M100 77 h28 v1 h-28 z M142 77 h14 v1 h-14 z M170 77 h14 v1 h-14 z M198 77 h28 v1 h-28 z M240 77 h14 v1 h-14 z M2 78 h42 v1 h-42 z M100 78 h28 v1 h-28 z M142 78 h14 v1 h-14 z M170 78 h14 v1 h-14 z M198 78 h28 v1 h-28 z M240 78 h14 v1 h-14 z M2 79 h42 v1 h-42 z M100 79 h28 v1 h-28 z M142 79 h14 v1 h-14 z M170 79 h14 v1 h-14 z M198 79 h28 v1 h-28 z M240 79 h14 v1 h-14 z M2 80 h42 v1 h-42 z M100 80 h28 v1 h-28 z M142 80 h14 v1 h-14 z M170 80 h14 v1 h-14 z M198 80 h28 v1 h-28 z M240 80 h14 v1 h-14 z M2 81 h42 v1 h-42 z M100 81 h28 v1 h-28 z M142 81 h14 v1 h-14 z M170 81 h14 v1 h-14 z M198 81 h28 v1 h-28 z M240 81 h14 v1 h-14 z M2 82 h42 v1 h-42 z M100 82 h28 v1 h-28 z M142 82 h14 v1 h-14 z M170 82 h14 v1 h-14 z M198 82 h28 v1 h-28 z M240 82 h14 v1 h-14 z M2 83 h42 v1 h-42 z M100 83 h28 v1 h-28 z M142 83 h14 v1 h-14 z M170 83 h14 v1 h-14 z M198 83 h28 v1 h-28 z M240 83 h14 v1 h-14 z M2 84 h42 v1 h-42 z M100 84 h28 v1 h-28 z M142 84 h14 v1 h-14 z M170 84 h14 v1 h-14 z M198 84 h28 v1 h-28 z M240 84 h14 v1 h-14 z M2 85 h42 v1 h-42 z M100 85 h28 v1 h-28 z M142 85 h14 v1 h-14 z M170 85 h14 v1 h-14 z M198 85 h28 v1 h-28 z M240 85 h14 v1 h-14 z M2 86 h28 v1 h-28 z M44 86 h14 v1 h-14 z M72 86 h14 v1 h-14 z M128 86 h28 v1 h-28 z M170 86 h14 v1 h-14 z M2 87 h28 v1 h-28 z M44 87 h14 v1 h-14 z M72 87 h14 v1 h-14 z M128 87 h28 v1 h-28 z M170 87 h14 v1 h-14 z M2 88 h28 v1 h-28 z M44 88 h14 v1 h-14 z M72 88 h14 v1 h-14 z M128 88 h28 v1 h-28 z M170 88 h14 v1 h-14 z M2 89 h28 v1 h-28 z M44 89 h14 v1 h-14 z M72 89 h14 v1 h-14 z M128 89 h28 v1 h-28 z M170 89 h14 v1 h-14 z M2 90 h28 v1 h-28 z M44 90 h14 v1 h-14 z M72 90 h14 v1 h-14 z M128 90 h28 v1 h-28 z M170 90 h14 v1 h-14 z M2 91 h28 v1 h-28 z M44 91 h14 v1 h-14 z M72 91 h14 v1 h-14 z M128 91 h28 v1 h-28 z M170 91 h14 v1 h-14 z M2 92 h28 v1 h-28 z M44 92 h14 v1 h-14 z M72 92 h14 v1 h-14 z M128 92 h28 v1 h-28 z M170 92 h14 v1 h-14 z M2 93 h28 v1 h-28 z M44 93 h14 v1 h-14 z M72 93 h14 v1 h-14 z M128 93 h28 v1 h-28 z M170 93 h14 v1 h-14 z M2 94 h28 v1 h-28 z M44 94 h14 v1 h-14 z M72 94 h14 v1 h-14 z M128 94 h28 v1 h-28 z M170 94 h14 v1 h-14 z M2 95 h28 v1 h-28 z M44 95 h14 v1 h-14 z M72 95 h14 v1 h-14 z M128 95 h28 v1 h-28 z M170 95 h14 v1 h-14 z M2 96 h28 v1 h-28 z M44 96 h14 v1 h-14 z M72 96 h14 v1 h-14 z M128 96 h28 v1 h-28 z M170 96 h14 v1 h-14 z M2 97 h28 v1 h-28 z M44 97 h14 v1 h-14 z M72 97 h14 v1 h-14 z M128 97 h28 v1 h-28 z M170 97 h14 v1 h-14 z M2 98 h28 v1 h-28 z M44 98 h14 v1 h-14 z M72 98 h14 v1 h-14 z M128 98 h28 v1 h-28 z M170 98 h14 v1 h-14 z M2 99 h28 v1 h-28 z M44 99 h14 v1 h-14 z M72 99 h14 v1 h-14 z M128 99 h28 v1 h-28 z M170 99 h14 v1 h-14 z M2 100 h28 v1 h-28 z M58 100 h14 v1 h-14 z M100 100 h28 v1 h-28 z M156 100 h28 v1 h-28 z M198 100 h56 v1 h-56 z M2 101 h28 v1 h-28 z M58 101 h14 v1 h-14 z M100 101 h28 v1 h-28 z M156 101 h28 v1 h-28 z M198 101 h56 v1 h-56 z M2 102 h28 v1 h-28 z M58 102 h14 v1 h-14 z M100 102 h28 v1 h-28 z M156 102 h28 v1 h-28 z M198 102 h56 v1 h-56 z M2 103 h28 v1 h-28 z M58 103 h14 v1 h-14 z M100 103 h28 v1 h-28 z M156 103 h28 v1 h-28 z M198 103 h56 v1 h-56 z M2 104 h28 v1 h-28 z M58 104 h14 v1 h-14 z M100 104 h28 v1 h-28 z M156 104 h28 v1 h-28 z M198 104 h56 v1 h-56 z M2 105 h28 v1 h-28 z M58 105 h14 v1 h-14 z M100 105 h28 v1 h-28 z M156 105 h28 v1 h-28 z M198 105 h56 v1 h-56 z M2 106 h28 v1 h-28 z M58 106 h14 v1 h-14 z M100 106 h28 v1 h-28 z M156 106 h28 v1 h-28 z M198 106 h56 v1 h-56 z M2 107 h28 v1 h-28 z M58 107 h14 v1 h-14 z M100 107 h28 v1 h-28 z M156 107 h28 v1 h-28 z M198 107 h56 v1 h-56 z M2 108 h28 v1 h-28 z M58 108 h14 v1 h-14 z M100 108 h28 v1 h-28 z M156 108 h28 v1 h-28 z M198 108 h56 v1 h-56 z M2 109 h28 v1 h-28 z M58 109 h14 v1 h-14 z M100 109 h28 v1 h-28 z M156 109 h28 v1 h-28 z M198 109 h56 v1 h-56 z M2 110 h28 v1 h-28 z M58 110 h14 v1 h-14 z M100 110 h28 v1 h-28 z M156 110 h28 v1 h-28 z M198 110 h56 v1 h-56 z M2 111 h28 v1 h-28 z M58 111 h14 v1 h-14 z M100 111 h28 v1 h-28 z M156 111 h28 v1 h-28 z M198 111 h56 v1 h-56 z M2 112 h28 v1 h-28 z M58 112 h14 v1 h-14 z M100 112 h28 v1 h-28 z M156 112 h28 v1 h-28 z M198 112 h56 v1 h-56 z M2 113 h28 v1 h-28 z M58 113 h14 v1 h-14 z M100 113 h28 v1 h-28 z M156 113 h28 v1 h-28 z M198 113 h56 v1 h-56 z M2 114 h14 v1 h-14 z M30 114 h56 v1 h-56 z M100 114 h42 v1 h-42 z M184 114 h28 v1 h-28 z M226 114 h14 v1 h-14 z M2 115 h14 v1 h-14 z M30 115 h56 v1 h-56 z M100 115 h42 v1 h-42 z M184 115 h28 v1 h-28 z M226 115 h14 v1 h-14 z M2 116 h14 v1 h-14 z M30 116 h56 v1 h-56 z M100 116 h42 v1 h-42 z M184 116 h28 v1 h-28 z M226 116 h14 v1 h-14 z M2 117 h14 v1 h-14 z M30 117 h56 v1 h-56 z M100 117 h42 v1 h-42 z M184 117 h28 v1 h-28 z M226 117 h14 v1 h-14 z M2 118 h14 v1 h-14 z M30 118 h56 v1 h-56 z M100 118 h42 v1 h-42 z M184 118 h28 v1 h-28 z M226 118 h14 v1 h-14 z M2 119 h14 v1 h-14 z M30 119 h56 v1 h-56 z M100 119 h42 v1 h-42 z M184 119 h28 v1 h-28 z M226 119 h14 v1 h-14 z M2 120 h14 v1 h-14 z M30 120 h56 v1 h-56 z M100 120 h42 v1 h-42 z M184 120 h28 v1 h-28 z M226 120 h14 v1 h-14 z M2 121 h14 v1 h-14 z M30 121 h56 v1 h-56 z M100 121 h42 v1 h-42 z M184 121 h28 v1 h-28 z M226 121 h14 v1 h-14 z M2 122 h14 v1 h-14 z M30 122 h56 v1 h-56 z M100 122 h42 v1 h-42 z M184 122 h28 v1 h-28 z M226 122 h14 v1 h-14 z M2 123 h14 v1 h-14 z M30 123 h56 v1 h-56 z M100 123 h42 v1 h-42 z M184 123 h28 v1 h-28 z M226 123 h14 v1 h-14 z M2 124 h14 v1 h-14 z M30 124 h56 v1 h-56 z M100 124 h42 v1 h-42 z M184 124 h28 v1 h-28 z M226 124 h14 v1 h-14 z M2 125 h14 v1 h-14 z M30 125 h56 v1 h-56 z M100 125 h42 v1 h-42 z M184 125 h28 v1 h-28 z M226 125 h14 v1 h-14 z M2 126 h14 v1 h-14 z M30 126 h56 v1 h-56 z M100 126 h42 v1 h-42 z M184 126 h28 v1 h-28 z M226 126 h14 v1 h-14 z M2 127 h14 v1 h-14 z M30 127 h56 v1 h-56 z M100 127 h42 v1 h-42 z M184 127 h28 v1 h-28 z M226 127 h14 v1 h-14 z M2 128 h14 v1 h-14 z M30 128 h14 v1 h-14 z M72 128 h14 v1 h-14 z M114 128 h14 v1 h-14 z M142 128 h14 v1 h-14 z M170 128 h84 v1 h-84 z M2 129 h14 v1 h-14 z M30 129 h14 v1 h-14 z M72 129 h14 v1 h-14 z M114 129 h14 v1 h-14 z M142 129 h14 v1 h-14 z M170 129 h84 v1 h-84 z M2 130 h14 v1 h-14 z M30 130 h14 v1 h-14 z M72 130 h14 v1 h-14 z M114 130 h14 v1 h-14 z M142 130 h14 v1 h-14 z M170 130 h84 v1 h-84 z M2 131 h14 v1 h-14 z M30 131 h14 v1 h-14 z M72 131 h14 v1 h-14 z M114 131 h14 v1 h-14 z M142 131 h14 v1 h-14 z M170 131 h84 v1 h-84 z M2 132 h14 v1 h-14 z M30 132 h14 v1 h-14 z M72 132 h14 v1 h-14 z M114 132 h14 v1 h-14 z M142 132 h14 v1 h-14 z M170 132 h84 v1 h-84 z M2 133 h14 v1 h-14 z M30 133 h14 v1 h-14 z M72 133 h14 v1 h-14 z M114 133 h14 v1 h-14 z M142 133 h14 v1 h-14 z M170 133 h84 v1 h-84 z M2 134 h14 v1 h-14 z M30 134 h14 v1 h-14 z M72 134 h14 v1 h-14 z M114 134 h14 v1 h-14 z M142 134 h14 v1 h-14 z M170 134 h84 v1 h-84 z M2 135 h14 v1 h-14 z M30 135 h14 v1 h-14 z M72 135 h14 v1 h-14 z M114 135 h14 v1 h-14 z M142 135 h14 v1 h-14 z M170 135 h84 v1 h-84 z M2 136 h14 v1 h-14 z M30 136 h14 v1 h-14 z M72 136 h14 v1 h-14 z M114 136 h14 v1 h-14 z M142 136 h14 v1 h-14 z M170 136 h84 v1 h-84 z M2 137 h14 v1 h-14 z M30 137 h14 v1 h-14 z M72 137 h14 v1 h-14 z M114 137 h14 v1 h-14 z M142 137 h14 v1 h-14 z M170 137 h84 v1 h-84 z M2 138 h14 v1 h-14 z M30 138 h14 v1 h-14 z M72 138 h14 v1 h-14 z M114 138 h14 v1 h-14 z M142 138 h14 v1 h-14 z M170 138 h84 v1 h-84 z M2 139 h14 v1 h-14 z M30 139 h14 v1 h-14 z M72 139 h14 v1 h-14 z M114 139 h14 v1 h-14 z M142 139 h14 v1 h-14 z M170 139 h84 v1 h-84 z M2 140 h14 v1 h-14 z M30 140 h14 v1 h-14 z M72 140 h14 v1 h-14 z M114 140 h14 v1 h-14 z M142 140 h14 v1 h-14 z M170 140 h84 v1 h-84 z M2 141 h14 v1 h-14 z M30 141 h14 v1 h-14 z M72 141 h14 v1 h-14 z M114 141 h14 v1 h-14 z M142 141 h14 v1 h-14 z M170 141 h84 v1 h-84 z M2 142 h28 v1 h-28 z M44 142 h28 v1 h-28 z M100 142 h56 v1 h-56 z M184 142 h28 v1 h-28 z M226 142 h14 v1 h-14 z M2 143 h28 v1 h-28 z M44 143 h28 v1 h-28 z M100 143 h56 v1 h-56 z M184 143 h28 v1 h-28 z M226 143 h14 v1 h-14 z M2 144 h28 v1 h-28 z M44 144 h28 v1 h-28 z M100 144 h56 v1 h-56 z M184 144 h28 v1 h-28 z M226 144 h14 v1 h-14 z M2 145 h28 v1 h-28 z M44 145 h28 v1 h-28 z M100 145 h56 v1 h-56 z M184 145 h28 v1 h-28 z M226 145 h14 v1 h-14 z M2 146 h28 v1 h-28 z M44 146 h28 v1 h-28 z M100 146 h56 v1 h-56 z M184 146 h28 v1 h-28 z M226 146 h14 v1 h-14 z M2 147 h28 v1 h-28 z M44 147 h28 v1 h-28 z M100 147 h56 v1 h-56 z M184 147 h28 v1 h-28 z M226 147 h14 v1 h-14 z M2 148 h28 v1 h-28 z M44 148 h28 v1 h-28 z M100 148 h56 v1 h-56 z M184 148 h28 v1 h-28 z M226 148 h14 v1 h-14 z M2 149 h28 v1 h-28 z M44 149 h28 v1 h-28 z M100 149 h56 v1 h-56 z M184 149 h28 v1 h-28 z M226 149 h14 v1 h-14 z M2 150 h28 v1 h-28 z M44 150 h28 v1 h-28 z M100 150 h56 v1 h-56 z M184 150 h28 v1 h-28 z M226 150 h14 v1 h-14 z M2 151 h28 v1 h-28 z M44 151 h28 v1 h-28 z M100 151 h56 v1 h-56 z M184 151 h28 v1 h-28 z M226 151 h14 v1 h-14 z M2 152 h28 v1 h-28 z M44 152 h28 v1 h-28 z M100 152 h56 v1 h-56 z M184 152 h28 v1 h-28 z M226 152 h14 v1 h-14 z M2 153 h28 v1 h-28 z M44 153 h28 v1 h-28 z M100 153 h56 v1 h-56 z M184 153 h28 v1 h-28 z M226 153 h14 v1 h-14 z M2 154 h28 v1 h-28 z M44 154 h28 v1 h-28 z M100 154 h56 v1 h-56 z M184 154 h28 v1 h-28 z M226 154 h14 v1 h-14 z M2 155 h28 v1 h-28 z M44 155 h28 v1 h-28 z M100 155 h56 v1 h-56 z M184 155 h28 v1 h-28 z M226 155 h14 v1 h-14 z M2 156 h14 v1 h-14 z M30 156 h14 v1 h-14 z M58 156 h14 v1 h-14 z M114 156 h28 v1 h-28 z M170 156 h14 v1 h-14 z M198 156 h14 v1 h-14 z M226 156 h28 v1 h-28 z M2 157 h14 v1 h-14 z M30 157 h14 v1 h-14 z M58 157 h14 v1 h-14 z M114 157 h28 v1 h-28 z M170 157 h14 v1 h-14 z M198 157 h14 v1 h-14 z M226 157 h28 v1 h-28 z M2 158 h14 v1 h-14 z M30 158 h14 v1 h-14 z M58 158 h14 v1 h-14 z M114 158 h28 v1 h-28 z M170 158 h14 v1 h-14 z M198 158 h14 v1 h-14 z M226 158 h28 v1 h-28 z M2 159 h14 v1 h-14 z M30 159 h14 v1 h-14 z M58 159 h14 v1 h-14 z M114 159 h28 v1 h-28 z M170 159 h14 v1 h-14 z M198 159 h14 v1 h-14 z M226 159 h28 v1 h-28 z M2 160 h14 v1 h-14 z M30 160 h14 v1 h-14 z M58 160 h14 v1 h-14 z M114 160 h28 v1 h-28 z M170 160 h14 v1 h-14 z M198 160 h14 v1 h-14 z M226 160 h28 v1 h-28 z M2 161 h14 v1 h-14 z M30 161 h14 v1 h-14 z M58 161 h14 v1 h-14 z M114 161 h28 v1 h-28 z M170 161 h14 v1 h-14 z M198 161 h14 v1 h-14 z M226 161 h28 v1 h-28 z M2 162 h14 v1 h-14 z M30 162 h14 v1 h-14 z M58 162 h14 v1 h-14 z M114 162 h28 v1 h-28 z M170 162 h14 v1 h-14 z M198 162 h14 v1 h-14 z M226 162 h28 v1 h-28 z M2 163 h14 v1 h-14 z M30 163 h14 v1 h-14 z M58 163 h14 v1 h-14 z M114 163 h28 v1 h-28 z M170 163 h14 v1 h-14 z M198 163 h14 v1 h-14 z M226 163 h28 v1 h-28 z M2 164 h14 v1 h-14 z M30 164 h14 v1 h-14 z M58 164 h14 v1 h-14 z M114 164 h28 v1 h-28 z M170 164 h14 v1 h-14 z M198 164 h14 v1 h-14 z M226 164 h28 v1 h-28 z M2 165 h14 v1 h-14 z M30 165 h14 v1 h-14 z M58 165 h14 v1 h-14 z M114 165 h28 v1 h-28 z M170 165 h14 v1 h-14 z M198 165 h14 v1 h-14 z M226 165 h28 v1 h-28 z M2 166 h14 v1 h-14 z M30 166 h14 v1 h-14 z M58 166 h14 v1 h-14 z M114 166 h28 v1 h-28 z M170 166 h14 v1 h-14 z M198 166 h14 v1 h-14 z M226 166 h28 v1 h-28 z M2 167 h14 v1 h-14 z M30 167 h14 v1 h-14 z M58 167 h14 v1 h-14 z M114 167 h28 v1 h-28 z M170 167 h14 v1 h-14 z M198 167 h14 v1 h-14 z M226 167 h28 v1 h-28 z M2 168 h14 v1 h-14 z M30 168 h14 v1 h-14 z M58 168 h14 v1 h-14 z M114 168 h28 v1 h-28 z M170 168 h14 v1 h-14 z M198 168 h14 v1 h-14 z M226 168 h28 v1 h-28 z M2 169 h14 v1 h-14 z M30 169 h14 v1 h-14 z M58 169 h14 v1 h-14 z M114 169 h28 v1 h-28 z M170 169 h14 v1 h-14 z M198 169 h14 v1 h-14 z M226 169 h28 v1 h-28 z M2 170 h14 v1 h-14 z M30 170 h28 v1 h-28 z M128 170 h56 v1 h-56 z M198 170 h42 v1 h-42 z M2 171 h14 v1 h-14 z M30 171 h28 v1 h-28 z M128 171 h56 v1 h-56 z M198 171 h42 v1 h-42 z M2 172 h14 v1 h-14 z M30 172 h28 v1 h-28 z M128 172 h56 v1 h-56 z M198 172 h42 v1 h-42 z M2 173 h14 v1 h-14 z M30 173 h28 v1 h-28 z M128 173 h56 v1 h-56 z M198 173 h42 v1 h-42 z M2 174 h14 v1 h-14 z M30 174 h28 v1 h-28 z M128 174 h56 v1 h-56 z M198 174 h42 v1 h-42 z M2 175 h14 v1 h-14 z M30 175 h28 v1 h-28 z M128 175 h56 v1 h-56 z M198 175 h42 v1 h-42 z M2 176 h14 v1 h-14 z M30 176 h28 v1 h-28 z M128 176 h56 v1 h-56 z M198 176 h42 v1 h-42 z M2 177 h14 v1 h-14 z M30 177 h28 v1 h-28 z M128 177 h56 v1 h-56 z M198 177 h42 v1 h-42 z M2 178 h14 v1 h-14 z M30 178 h28 v1 h-28 z M128 178 h56 v1 h-56 z M198 178 h42 v1 h-42 z M2 179 h14 v1 h-14 z M30 179 h28 v1 h-28 z M128 179 h56 v1 h-56 z M198 179 h42 v1 h-42 z M2 180 h14 v1 h-14 z M30 180 h28 v1 h-28 z M128 180 h56 v1 h-56 z M198 180 h42 v1 h-42 z M2 181 h14 v1 h-14 z M30 181 h28 v1 h-28 z M128 181 h56 v1 h-56 z M198 181 h42 v1 h-42 z M2 182 h14 v1 h-14 z M30 182 h28 v1 h-28 z M128 182 h56 v1 h-56 z M198 182 h42 v1 h-42 z M2 183 h14 v1 h-14 z M30 183 h28 v1 h-28 z M128 183 h56 v1 h-56 z M198 183 h42 v1 h-42 z M2 184 h42 v1 h-42 z M72 184 h14 v1 h-14 z M114 184 h14 v1 h-14 z M142 184 h28 v1 h-28 z M226 184 h28 v1 h-28 z M2 185 h42 v1 h-42 z M72 185 h14 v1 h-14 z M114 185 h14 v1 h-14 z M142 185 h28 v1 h-28 z M226 185 h28 v1 h-28 z M2 186 h42 v1 h-42 z M72 186 h14 v1 h-14 z M114 186 h14 v1 h-14 z M142 186 h28 v1 h-28 z M226 186 h28 v1 h-28 z M2 187 h42 v1 h-42 z M72 187 h14 v1 h-14 z M114 187 h14 v1 h-14 z M142 187 h28 v1 h-28 z M226 187 h28 v1 h-28 z M2 188 h42 v1 h-42 z M72 188 h14 v1 h-14 z M114 188 h14 v1 h-14 z M142 188 h28 v1 h-28 z M226 188 h28 v1 h-28 z M2 189 h42 v1 h-42 z M72 189 h14 v1 h-14 z M114 189 h14 v1 h-14 z M142 189 h28 v1 h-28 z M226 189 h28 v1 h-28 z M2 190 h42 v1 h-42 z M72 190 h14 v1 h-14 z M114 190 h14 v1 h-14 z M142 190 h28 v1 h-28 z M226 190 h28 v1 h-28 z M2 191 h42 v1 h-42 z M72 191 h14 v1 h-14 z M114 191 h14 v1 h-14 z M142 191 h28 v1 h-28 z M226 191 h28 v1 h-28 z M2 192 h42 v1 h-42 z M72 192 h14 v1 h-14 z M114 192 h14 v1 h-14 z M142 192 h28 v1 h-28 z M226 192 h28 v1 h-28 z M2 193 h42 v1 h-42 z M72 193 h14 v1 h-14 z M114 193 h14 v1 h-14 z M142 193 h28 v1 h-28 z M226 193 h28 v1 h-28 z M2 194 h42 v1 h-42 z M72 194 h14 v1 h-14 z M114 194 h14 v1 h-14 z M142 194 h28 v1 h-28 z M226 194 h28 v1 h-28 z M2 195 h42 v1 h-42 z M72 195 h14 v1 h-14 z M114 195 h14 v1 h-14 z M142 195 h28 v1 h-28 z M226 195 h28 v1 h-28 z M2 196 h42 v1 h-42 z M72 196 h14 v1 h-14 z M114 196 h14 v1 h-14 z M142 196 h28 v1 h-28 z M226 196 h28 v1 h-28 z M2 197 h42 v1 h-42 z M72 197 h14 v1 h-14 z M114 197 h14 v1 h-14 z M142 197 h28 v1 h-28 z M226 197 h28 v1 h-28 z M2 198 h56 v1 h-56 z M72 198 h28 v1 h-28 z M114 198 h70 v1 h-70 z M2 199 h56 v1 h-56 z M72 199 h28 v1 h-28 z M114 199 h70 v1 h-70 z M2 200 h56 v1 h-56 z M72 200 h28 v1 h-28 z M114 200 h70 v1 h-70 z M2 201 h56 v1 h-56 z M72 201 h28 v1 h-28 z M114 201 h70 v1 h-70 z M2 202 h56 v1 h-56 z M72 202 h28 v1 h-28 z M114 202 h70 v1 h-70 z M2 203 h56 v1 h-56 z M72 203 h28 v1 h-28 z M114 203 h70 v1 h-70 z M2 204 h56 v1 h-56 z M72 204 h28 v1 h-28 z M114 204 h70 v1 h-70 z M2 205 h56 v1 h-56 z M72 205 h28 v1 h-28 z M114 205 h70 v1 h-70 z M2 206 h56 v1 h-56 z M72 206 h28 v1 h-28 z M114 206 h70 v1 h-70 z M2 207 h56 v1 h-56 z M72 207 h28 v1 h-28 z M114 207 h70 v1 h-70 z M2 208 h56 v1 h-56 z M72 208 h28 v1 h-28 z M114 208 h70 v1 h-70 z M2 209 h56 v1 h-56 z M72 209 h28 v1 h-28 z M114 209 h70 v1 h-70 z M2 210 h56 v1 h-56 z M72 210 h28 v1 h-28 z M114 210 h70 v1 h-70 z M2 211 h56 v1 h-56 z M72 211 h28 v1 h-28 z M114 211 h70 v1 h-70 z M2 212 h14 v1 h-14 z M30 212 h14 v1 h-14 z M58 212 h42 v1 h-42 z M142 212 h14 v1 h-14 z M170 212 h84 v1 h-84 z M2 213 h14 v1 h-14 z M30 213 h14 v1 h-14 z M58 213 h42 v1 h-42 z M142 213 h14 v1 h-14 z M170 213 h84 v1 h-84 z M2 214 h14 v1 h-14 z M30 214 h14 v1 h-14 z M58 214 h42 v1 h-42 z M142 214 h14 v1 h-14 z M170 214 h84 v1 h-84 z M2 215 h14 v1 h-14 z M30 215 h14 v1 h-14 z M58 215 h42 v1 h-42 z M142 215 h14 v1 h-14 z M170 215 h84 v1 h-84 z M2 216 h14 v1 h-14 z M30 216 h14 v1 h-14 z M58 216 h42 v1 h-42 z M142 216 h14 v1 h-14 z M170 216 h84 v1 h-84 z M2 217 h14 v1 h-14 z M30 217 h14 v1 h-14 z M58 217 h42 v1 h-42 z M142 217 h14 v1 h-14 z M170 217 h84 v1 h-84 z M2 218 h14 v1 h-14 z M30 218 h14 v1 h-14 z M58 218 h42 v1 h-42 z M142 218 h14 v1 h-14 z M170 218 h84 v1 h-84 z M2 219 h14 v1 h-14 z M30 219 h14 v1 h-14 z M58 219 h42 v1 h-42 z M142 219 h14 v1 h-14 z M170 219 h84 v1 h-84 z M2 220 h14 v1 h-14 z M30 220 h14 v1 h-14 z M58 220 h42 v1 h-42 z M142 220 h14 v1 h-14 z M170 220 h84 v1 h-84 z M2 221 h14 v1 h-14 z M30 221 h14 v1 h-14 z M58 221 h42 v1 h-42 z M142 221 h14 v1 h-14 z M170 221 h84 v1 h-84 z M2 222 h14 v1 h-14 z M30 222 h14 v1 h-14 z M58 222 h42 v1 h-42 z M142 222 h14 v1 h-14 z M170 222 h84 v1 h-84 z M2 223 h14 v1 h-14 z M30 223 h14 v1 h-14 z M58 223 h42 v1 h-42 z M142 223 h14 v1 h-14 z M170 223 h84 v1 h-84 z M2 224 h14 v1 h-14 z M30 224 h14 v1 h-14 z M58 224 h42 v1 h-42 z M142 224 h14 v1 h-14 z M170 224 h84 v1 h-84 z M2 225 h14 v1 h-14 z M30 225 h14 v1 h-14 z M58 225 h42 v1 h-42 z M142 225 h14 v1 h-14 z M170 225 h84 v1 h-84 z M2 226 h28 v1 h-28 z M44 226 h28 v1 h-28 z M100 226 h28 v1 h-28 z M142 226 h28 v1 h-28 z M212 226 h28 v1 h-28 z M2 227 h28 v1 h-28 z M44 227 h28 v1 h-28 z M100 227 h28 v1 h-28 z M142 227 h28 v1 h-28 z M212 227 h28 v1 h-28 z M2 228 h28 v1 h-28 z M44 228 h28 v1 h-28 z M100 228 h28 v1 h-28 z M142 228 h28 v1 h-28 z M212 228 h28 v1 h-28 z M2 229 h28 v1 h-28 z M44 229 h28 v1 h-28 z M100 229 h28 v1 h-28 z M142 229 h28 v1 h-28 z M212 229 h28 v1 h-28 z M2 230 h28 v1 h-28 z M44 230 h28 v1 h-28 z M100 230 h28 v1 h-28 z M142 230 h28 v1 h-28 z M212 230 h28 v1 h-28 z M2 231 h28 v1 h-28 z M44 231 h28 v1 h-28 z M100 231 h28 v1 h-28 z M142 231 h28 v1 h-28 z M212 231 h28 v1 h-28 z M2 232 h28 v1 h-28 z M44 232 h28 v1 h-28 z M100 232 h28 v1 h-28 z M142 232 h28 v1 h-28 z M212 232 h28 v1 h-28 z M2 233 h28 v1 h-28 z M44 233 h28 v1 h-28 z M100 233 h28 v1 h-28 z M142 233 h28 v1 h-28 z M212 233 h28 v1 h-28 z M2 234 h28 v1 h-28 z M44 234 h28 v1 h-28 z M100 234 h28 v1 h-28 z M142 234 h28 v1 h-28 z M212 234 h28 v1 h-28 z M2 235 h28 v1 h-28 z M44 235 h28 v1 h-28 z M100 235 h28 v1 h-28 z M142 235 h28 v1 h-28 z M212 235 h28 v1 h-28 z M2 236 h28 v1 h-28 z M44 236 h28 v1 h-28 z M100 236 h28 v1 h-28 z M142 236 h28 v1 h-28 z M212 236 h28 v1 h-28 z M2 237 h28 v1 h-28 z M44 237 h28 v1 h-28 z M100 237 h28 v1 h-28 z M142 237 h28 v1 h-28 z M212 237 h28 v1 h-28 z M2 238 h28 v1 h-28 z M44 238 h28 v1 h-28 z M100 238 h28 v1 h-28 z M142 238 h28 v1 h-28 z M212 238 h28 v1 h-28 z M2 239 h28 v1 h-28 z M44 239 h28 v1 h-28 z M100 239 h28 v1 h-28 z M142 239 h28 v1 h-28 z M212 239 h28 v1 h-28 z M2 240 h252 v1 h-252 z M2 241 h252 v1 h-252 z M2 242 h252 v1 h-252 z M2 243 h252 v1 h-252 z M2 244 h252 v1 h-252 z M2 245 h252 v1 h-252 z M2 246 h252 v1 h-252 z M2 247 h252 v1 h-252 z M2 248 h252 v1 h-252 z M2 249 h252 v1 h-252 z M2 250 h252 v1 h-252 z M2 251 h252 v1 h-252 z M2 252 h252 v1 h-252 z M2 253 h252 v1 h-252 z " fill="black"/>
  
</svg>