<svg viewBox="0 0 450 180" xmlns="http://www.w3.org/2000/svg" shape-rendering="crispEdges">
  <rect width="450" height="180" fill="white"/>
  <path d="M35 0 h4 v1 h-4 z M43 0 h4 v1 h-4 z M59 0 h8 v1 h-8 z M71 0 h4 v1 h-4 z M79 0 h4 v1 h-4 z M91 0 h12 v1 h-12 z M107 0 h4 v1 h-4 z M115 0 h16 v1 h-16 z M135 0 h16 v1 h-16 z M155 0 h4 v1 h-4 z M171 0 h4 v1 h-4 z M183 0 h4 v1 h-4 z M191 0 h8 v1 h-8 z M207 0 h8 v1 h-8 z M219 0 h4 v1 h-4 z M227 0 h4 v1 h-4 z M235 0 h4 v1 h-4 z M255 0 h4 v1 h-4 z M263 0 h4 v1 h-4 z M283 0 h4 v1 h-4 z M291 0 h4 v1 h-4 z M311 0 h4 v1 h-4 z M319 0 h12 v1 h-12 z M335 0 h4 v1 h-4 z M347 0 h4 v1 h-4 z M367 0 h4 v1 h-4 z M375 0 h8 v1 h-8 z M391 0 h8 v1 h-8 z M403 0 h4 v1 h-4 z M411 0 h4 v1 h-4 z M35 1 h4 v1 h-4 z M43 1 h4 v1 h-4 z M59 1 h8 v1 h-8 z M71 1 h4 v1 h-4 z M79 1 h4 v1 h-4 z M91 1 h12 v1 h-12 z M107 1 h4 v1 h-4 z M115 1 h16 v1 h-16 z M135 1 h16 v1 h-16 z M155 1 h4 v1 h-4 z M171 1 h4 v1 h-4 z M183 1 h4 v1 h-4 z M191 1 h8 v1 h-8 z M207 1 h8 v1 h-8 z M219 1 h4 v1 h-4 z M227 1 h4 v1 h-4 z M235 1 h4 v1 h-4 z M255 1 h4 v1 h-4 z M263 1 h4 v1 h-4 z M283 1 h4 v1 h-4 z M291 1 h4 v1 h-4 z M311 1 h4 v1 h-4 z M319 1 h12 v1 h-12 z M335 1 h4 v1 h-4 z M347 1 h4 v1 h-4 z M367 1 h4 v1 h-4 z M375 1 h8 v1 h-8 z M391 1 h8 v1 h-8 z M403 1 h4 v1 h-4 z M411 1 h4 v1 h-4 z M35 2 h4 v1 h-4 z M43 2 h4 v1 h-4 z M59 2 h8 v1 h-8 z M71 2 h4 v1 h-4 z M79 2 h4 v1 h-4 z M91 2 h12 v1 h-12 z M107 2 h4 v1 h-4 z M115 2 h16 v1 h-16 z M135 2 h16 v1 h-16 z M155 2 h4 v1 h-4 z M171 2 h4 v1 h-4 z M183 2 h4 v1 h-4 z M191 2 h8 v1 h-8 z M207 2 h8 v1 h-8 z M219 2 h4 v1 h-4 z M227 2 h4 v1 h-4 z M235 2 h4 v1 h-4 z M255 2 h4 v1 h-4 z M263 2 h4 v1 h-4 z M283 2 h4 v1 h-4 z M291 2 h4 v1 h-4 z M311 2 h4 v1 h-4 z M319 2 h12 v1 h-12 z M335 2 h4 v1 h-4 z M347 2 h4 v1 h-4 z M367 2 h4 v1 h-4 z M375 2 h8 v1 h-8 z M391 2 h8 v1 h-8 z M403 2 h4 v1 h-4 z M411 2 h4 v1 h-4 z M35 3 h4 v1 h-4 z M43 3 h4 v1 h-4 z M59 3 h8 v1 h-8 z M71 3 h4 v1 h-4 z M79 3 h4 v1 h-4 z M91 3 h12 v1 h-12 z M107 3 h4 v1 h-4 z M115 3 h16 v1 h-16 z M135 3 h16 v1 h-16 z M155 3 h4 v1 h-4 z M171 3 h4 v1 h-4 z M183 3 h4 v1 h-4 z M191 3 h8 v1 h-8 z M207 3 h8 v1 h-8 z M219 3 h4 v1 h-4 z M227 3 h4 v1 h-4 z M235 3 h4 v1 h-4 z M255 3 h4 v1 h-4 z M263 3 h4 v1 h-4 z M283 3 h4 v1 h-4 z M291 3 h4 v1 h-4 z M311 3 h4 v1 h-4 z M319 3 h12 v1 h-12 z M335 3 h4 v1 h-4 z M347 3 h4 v1 h-4 z M367 3 h4 v1 h-4 z M375 3 h8 v1 h-8 z M391 3 h8 v1 h-8 z M403 3 h4 v1 h-4 z M411 3 h4 v1 h-4 z M35 4 h4 v1 h-4 z M43 4 h4 v1 h-4 z M59 4 h8 v1 h-8 z M71 4 h4 v1 h-4 z M79 4 h4 v1 h-4 z M91 4 h12 v1 h-12 z M107 4 h4 v1 h-4 z M115 4 h16 v1 h-16 z M135 4 h16 v1 h-16 z M155 4 h4 v1 h-4 z M171 4 h4 v1 h-4 z M183 4 h4 v1 h-4 z M191 4 h8 v1 h-8 z M207 4 h8 v1 h-8 z M219 4 h4 v1 h-4 z M227 4 h4 v1 h-4 z M235 4 h4 v1 h-4 z M255 4 h4 v1 h-4 z M263 4 h4 v1 h-4 z M283 4 h4 v1 h-4 z M291 4 h4 v1 h-4 z M311 4 h4 v1 h-4 z M319 4 h12 v1 h-12 z M335 4 h4 v1 h-4 z M347 4 h4 v1 h-4 z M367 4 h4 v1 h-4 z M375 4 h8 v1 h-8 z M391 4 h8 v1 h-8 z M403 4 h4 v1 h-4 z M411 4 h4 v1 h-4 z M35 5 h4 v1 h-4 z M43 5 h4 v1 h-4 z M59 5 h8 v1 h-8 z M71 5 h4 v1 h-4 z M79 5 h4 v1 h-4 z M91 5 h12 v1 h-12 z M107 5 h4 v1 h-4 z M115 5 h16 v1 h-16 z M135 5 h16 v1 h-16 z M155 5 h4 v1 h-4 z M171 5 h4 v1 h-4 z M183 5 h4 v1 h-4 z M191 5 h8 v1 h-8 z M207 5 h8 v1 h-8 z M219 5 h4 v1 h-4 z M227 5 h4 v1 h-4 z M235 5 h4 v1 h-4 z M255 5 h4 v1 h-4 z M263 5 h4 v1 h-4 z M283 5 h4 v1 h-4 z M291 5 h4 v1 h-4 z M311 5 h4 v1 h-4 z M319 5 h12 v1 h-12 z M335 5 h4 v1 h-4 z M347 5 h4 v1 h-4 z M367 5 h4 v1 h-4 z M375 5 h8 v1 h-8 z M391 5 h8 v1 h-8 z M403 5 h4 v1 h-4 z M411 5 h4 v1 h-4 z M35 6 h4 v1 h-4 z M43 6 h4 v1 h-4 z M59 6 h8 v1 h-8 z M71 6 h4 v1 h-4 z M79 6 h4 v1 h-4 z M91 6 h12 v1 h-12 z M107 6 h4 v1 h-4 z M115 6 h16 v1 h-16 z M135 6 h16 v1 h-16 z M155 6 h4 v1 h-4 z M171 6 h4 v1 h-4 z M183 6 h4 v1 h-4 z M191 6 h8 v1 h-8 z M207 6 h8 v1 h-8 z M219 6 h4 v1 h-4 z M227 6 h4 v1 h-4 z M235 6 h4 v1 h-4 z M255 6 h4 v1 h-4 z M263 6 h4 v1 h-4 z M283 6 h4 v1 h-4 z M291 6 h4 v1 h-4 z M311 6 h4 v1 h-4 z M319 6 h12 v1 h-12 z M335 6 h4 v1 h-4 z M347 6 h4 v1 h-4 z M367 6 h4 v1 h-4 z M375 6 h8 v1 h-8 z M391 6 h8 v1 h-8 z M403 6 h4 v1 h-4 z M411 6 h4 v1 h-4 z M35 7 h4 v1 h-4 z M43 7 h4 v1 h-4 z M59 7 h8 v1 h-8 z M71 7 h4 v1 h-4 z M79 7 h4 v1 h-4 z M91 7 h12 v1 h-12 z M107 7 h4 v1 h-4 z M115 7 h16 v1 h-16 z M135 7 h16 v1 h-16 z M155 7 h4 v1 h-4 z M171 7 h4 v1 h-4 z M183 7 h4 v1 h-4 z M191 7 h8 v1 h-8 z M207 7 h8 v1 h-8 z M219 7 h4 v1 h-4 z M227 7 h4 v1 h-4 z M235 7 h4 v1 h-4 z M255 7 h4 v1 h-4 z M263 7 h4 v1 h-4 z M283 7 h4 v1 h-4 z M291 7 h4 v1 h-4 z M311 7 h4 v1 h-4 z M319 7 h12 v1 h-12 z M335 7 h4 v1 h-4 z M347 7 h4 v1 h-4 z M367 7 h4 v1 h-4 z M375 7 h8 v1 h-8 z M391 7 h8 v1 h-8 z M403 7 h4 v1 h-4 z M411 7 h4 v1 h-4 z M35 8 h4 v1 h-4 z M43 8 h4 v1 h-4 z M59 8 h8 v1 h-8 z M71 8 h4 v1 h-4 z M79 8 h4 v1 h-4 z M91 8 h12 v1 h-12 z M107 8 h4 v1 h-4 z M115 8 h16 v1 h-16 z M135 8 h16 v1 h-16 z M155 8 h4 v1 h-4 z M171 8 h4 v1 h-4 z M183 8 h4 v1 h-4 z M191 8 h8 v1 h-8 z M207 8 h8 v1 h-8 z M219 8 h4 v1 h-4 z M227 8 h4 v1 h-4 z M235 8 h4 v1 h-4 z M255 8 h4 v1 h-4 z M263 8 h4 v1 h-4 z M283 8 h4 v1 h-4 z M291 8 h4 v1 h-4 z M311 8 h4 v1 h-4 z M319 8 h12 v1 h-12 z M335 8 h4 v1 h-4 z M347 8 h4 v1 h-4 z M367 8 h4 v1 h-4 z M375 8 h8 v1 h-8 z M391 8 h8 v1 h-8 z M403 8 h4 v1 h-4 z M411 8 h4 v1 h-4 z M35 9 h4 v1 h-4 z M43 9 h4 v1 h-4 z M59 9 h8 v1 h-8 z M71 9 h4 v1 h-4 z M79 9 h4 v1 h-4 z M91 9 h12 v1 h-12 z M107 9 h4 v1 h-4 z M115 9 h16 v1 h-16 z M135 9 h16 v1 h-16 z M155 9 h4 v1 h-4 z M171 9 h4 v1 h-4 z M183 9 h4 v1 h-4 z M191 9 h8 v1 h-8 z M207 9 h8 v1 h-8 z M219 9 h4 v1 h-4 z M227 9 h4 v1 h-4 z M235 9 h4 v1 h-4 z M255 9 h4 v1 h-4 z M263 9 h4 v1 h-4 z M283 9 h4 v1 h-4 z M291 9 h4 v1 h-4 z M311 9 h4 v1 h-4 z M319 9 h12 v1 h-12 z M335 9 h4 v1 h-4 z M347 9 h4 v1 h-4 z M367 9 h4 v1 h-4 z M375 9 h8 v1 h-8 z M391 9 h8 v1 h-8 z M403 9 h4 v1 h-4 z M411 9 h4 v1 h-4 z M35 10 h4 v1 h-4 z M43 10 h4 v1 h-4 z M59 10 h8 v1 h-8 z M71 10 h4 v1 h-4 z M79 10 h4 v1 h-4 z M91 10 h12 v1 h-12 z M107 10 h4 v1 h-4 z M115 10 h16 v1 h-16 z M135 10 h16 v1 h-16 z M155 10 h4 v1 h-4 z M171 10 h4 v1 h-4 z M183 10 h4 v1 h-4 z M191 10 h8 v1 h-8 z M207 10 h8 v1 h-8 z M219 10 h4 v1 h-4 z M227 10 h4 v1 h-4 z M235 10 h4 v1 h-4 z M255 10 h4 v1 h-4 z M263 10 h4 v1 h-4 z M283 10 h4 v1 h-4 z M291 10 h4 v1 h-4 z M311 10 h4 v1 h-4 z M319 10 h12 v1 h-12 z M335 10 h4 v1 h-4 z M347 10 h4 v1 h-4 z M367 10 h4 v1 h-4 z M375 10 h8 v1 h-8 z M391 10 h8 v1 h-8 z M403 10 h4 v1 h-4 z M411 10 h4 v1 h-4 z M35 11 h4 v1 h-4 z M43 11 h4 v1 h-4 z M59 11 h8 v1 h-8 z M71 11 h4 v1 h-4 z M79 11 h4 v1 h-4 z M91 11 h12 v1 h-12 z M107 11 h4 v1 h-4 z M115 11 h16 v1 h-16 z M135 11 h16 v1 h-16 z M155 11 h4 v1 h-4 z M171 11 h4 v1 h-4 z M183 11 h4 v1 h-4 z M191 11 h8 v1 h-8 z M207 11 h8 v1 h-8 z M219 11 h4 v1 h-4 z M227 11 h4 v1 h-4 z M235 11 h4 v1 h-4 z M255 11 h4 v1 h-4 z M263 11 h4 v1 h-4 z M283 11 h4 v1 h-4 z M291 11 h4 v1 h-4 z M311 11 h4 v1 h-4 z M319 11 h12 v1 h-12 z M335 11 h4 v1 h-4 z M347 11 h4 v1 h-4 z M367 11 h4 v1 h-4 z M375 11 h8 v1 h-8 z M391 11 h8 v1 h-8 z M403 11 h4 v1 h-4 z M411 11 h4 v1 h-4 z M35 12 h4 v1 h-4 z M43 12 h4 v1 h-4 z M59 12 h8 v1 h-8 z M71 12 h4 v1 h-4 z M79 12 h4 v1 h-4 z M91 12 h12 v1 h-12 z M107 12 h4 v1 h-4 z M115 12 h16 v1 h-16 z M135 12 h16 v1 h-16 z M155 12 h4 v1 h-4 z M171 12 h4 v1 h-4 z M183 12 h4 v1 h-4 z M191 12 h8 v1 h-8 z M207 12 h8 v1 h-8 z M219 12 h4 v1 h-4 z M227 12 h4 v1 h-4 z M235 12 h4 v1 h-4 z M255 12 h4 v1 h-4 z M263 12 h4 v1 h-4 z M283 12 h4 v1 h-4 z M291 12 h4 v1 h-4 z M311 12 h4 v1 h-4 z M319 12 h12 v1 h-12 z M335 12 h4 v1 h-4 z M347 12 h4 v1 h-4 z M367 12 h4 v1 h-4 z M375 12 h8 v1 h-8 z M391 12 h8 v1 h-8 z M403 12 h4 v1 h-4 z M411 12 h4 v1 h-4 z M35 13 h4 v1 h-4 z M43 13 h4 v1 h-4 z M59 13 h8 v1 h-8 z M71 13 h4 v1 h-4 z M79 13 h4 v1 h-4 z M91 13 h12 v1 h-12 z M107 13 h4 v1 h-4 z M115 13 h16 v1 h-16 z M135 13 h16 v1 h-16 z M155 13 h4 v1 h-4 z M171 13 h4 v1 h-4 z M183 13 h4 v1 h-4 z M191 13 h8 v1 h-8 z M207 13 h8 v1 h-8 z M219 13 h4 v1 h-4 z M227 13 h4 v1 h-4 z M235 13 h4 v1 h-4 z M255 13 h4 v1 h-4 z M263 13 h4 v1 h-4 z M283 13 h4 v1 h-4 z M291 13 h4 v1 h-4 z M311 13 h4 v1 h-4 z M319 13 h12 v1 h-12 z M335 13 h4 v1 h-4 z M347 13 h4 v1 h-4 z M367 13 h4 v1 h-4 z M375 13 h8 v1 h-8 z M391 13 h8 v1 h-8 z M403 13 h4 v1 h-4 z M411 13 h4 v1 h-4 z M35 14 h4 v1 h-4 z M43 14 h4 v1 h-4 z M59 14 h8 v1 h-8 z M71 14 h4 v1 h-4 z M79 14 h4 v1 h-4 z M91 14 h12 v1 h-12 z M107 14 h4 v1 h-4 z M115 14 h16 v1 h-16 z M135 14 h16 v1 h-16 z M155 14 h4 v1 h-4 z M171 14 h4 v1 h-4 z M183 14 h4 v1 h-4 z M191 14 h8 v1 h-8 z M207 14 h8 v1 h-8 z M219 14 h4 v1 h-4 z M227 14 h4 v1 h-4 z M235 14 h4 v1 h-4 z M255 14 h4 v1 h-4 z M263 14 h4 v1 h-4 z M283 14 h4 v1 h-4 z M291 14 h4 v1 h-4 z M311 14 h4 v1 h-4 z M319 14 h12 v1 h-12 z M335 14 h4 v1 h-4 z M347 14 h4 v1 h-4 z M367 14 h4 v1 h-4 z M375 14 h8 v1 h-8 z M391 14 h8 v1 h-8 z M403 14 h4 v1 h-4 z M411 14 h4 v1 h-4 z M35 15 h4 v1 h-4 z M43 15 h4 v1 h-4 z M59 15 h8 v1 h-8 z M71 15 h4 v1 h-4 z M79 15 h4 v1 h-4 z M91 15 h12 v1 h-12 z M107 15 h4 v1 h-4 z M115 15 h16 v1 h-16 z M135 15 h16 v1 h-16 z M155 15 h4 v1 h-4 z M171 15 h4 v1 h-4 z M183 15 h4 v1 h-4 z M191 15 h8 v1 h-8 z M207 15 h8 v1 h-8 z M219 15 h4 v1 h-4 z M227 15 h4 v1 h-4 z M235 15 h4 v1 h-4 z M255 15 h4 v1 h-4 z M263 15 h4 v1 h-4 z M283 15 h4 v1 h-4 z M291 15 h4 v1 h-4 z M311 15 h4 v1 h-4 z M319 15 h12 v1 h-12 z M335 15 h4 v1 h-4 z M347 15 h4 v1 h-4 z M367 15 h4 v1 h-4 z M375 15 h8 v1 h-8 z M391 15 h8 v1 h-8 z M403 15 h4 v1 h-4 z M411 15 h4 v1 h-4 z M35 16 h4 v1 h-4 z M43 16 h4 v1 h-4 z M59 16 h8 v1 h-8 z M71 16 h4 v1 h-4 z M79 16 h4 v1 h-4 z M91 16 h12 v1 h-12 z M107 16 h4 v1 h-4 z M115 16 h16 v1 h-16 z M135 16 h16 v1 h-16 z M155 16 h4 v1 h-4 z M171 16 h4 v1 h-4 z M183 16 h4 v1 h-4 z M191 16 h8 v1 h-8 z M207 16 h8 v1 h-8 z M219 16 h4 v1 h-4 z M227 16 h4 v1 h-4 z M235 16 h4 v1 h-4 z M255 16 h4 v1 h-4 z M263 16 h4 v1 h-4 z M283 16 h4 v1 h-4 z M291 16 h4 v1 h-4 z M311 16 h4 v1 h-4 z M319 16 h12 v1 h-12 z M335 16 h4 v1 h-4 z M347 16 h4 v1 h-4 z M367 16 h4 v1 h-4 z M375 16 h8 v1 h-8 z M391 16 h8 v1 h-8 z M403 16 h4 v1 h-4 z M411 16 h4 v1 h-4 z M35 17 h4 v1 h-4 z M43 17 h4 v1 h-4 z M59 17 h8 v1 h-8 z M71 17 h4 v1 h-4 z M79 17 h4 v1 h-4 z M91 17 h12 v1 h-12 z M107 17 h4 v1 h-4 z M115 17 h16 v1 h-16 z M135 17 h16 v1 h-16 z M155 17 h4 v1 h-4 z M171 17 h4 v1 h-4 z M183 17 h4 v1 h-4 z M191 17 h8 v1 h-8 z M207 17 h8 v1 h-8 z M219 17 h4 v1 h-4 z M227 17 h4 v1 h-4 z M235 17 h4 v1 h-4 z M255 17 h4 v1 h-4 z M263 17 h4 v1 h-4 z M283 17 h4 v1 h-4 z M291 17 h4 v1 h-4 z M311 17 h4 v1 h-4 z M319 17 h12 v1 h-12 z M335 17 h4 v1 h-4 z M347 17 h4 v1 h-4 z M367 17 h4 v1 h-4 z M375 17 h8 v1 h-8 z M391 17 h8 v1 h-8 z M403 17 h4 v1 h-4 z M411 17 h4 v1 h-4 z M35 18 h4 v1 h-4 z M43 18 h4 v1 h-4 z M59 18 h8 v1 h-8 z M71 18 h4 v1 h-4 z M79 18 h4 v1 h-4 z M91 18 h12 v1 h-12 z M107 18 h4 v1 h-4 z M115 18 h16 v1 h-16 z M135 18 h16 v1 h-16 z M155 18 h4 v1 h-4 z M171 18 h4 v1 h-4 z M183 18 h4 v1 h-4 z M191 18 h8 v1 h-8 z M207 18 h8 v1 h-8 z M219 18 h4 v1 h-4 z M227 18 h4 v1 h-4 z M235 18 h4 v1 h-4 z M255 18 h4 v1 h-4 z M263 18 h4 v1 h-4 z M283 18 h4 v1 h-4 z M291 18 h4 v1 h-4 z M311 18 h4 v1 h-4 z M319 18 h12 v1 h-12 z M335 18 h4 v1 h-4 z M347 18 h4 v1 h-4 z M367 18 h4 v1 h-4 z M375 18 h8 v1 h-8 z M391 18 h8 v1 h-8 z M403 18 h4 v1 h-4 z M411 18 h4 v1 h-4 z M35 19 h4 v1 h-4 z M43 19 h4 v1 h-4 z M59 19 h8 v1 h-8 z M71 19 h4 v1 h-4 z M79 19 h4 v1 h-4 z M91 19 h12 v1 h-12 z M107 19 h4 v1 h-4 z M115 19 h16 v1 h-16 z M135 19 h16 v1 h-16 z M155 19 h4 v1 h-4 z M171 19 h4 v1 h-4 z M183 19 h4 v1 h-4 z M191 19 h8 v1 h-8 z M207 19 h8 v1 h-8 z M219 19 h4 v1 h-4 z M227 19 h4 v1 h-4 z M235 19 h4 v1 h-4 z M255 19 h4 v1 h-4 z M263 19 h4 v1 h-4 z M283 19 h4 v1 h-4 z M291 19 h4 v1 h-4 z M311 19 h4 v1 h-4 z M319 19 h12 v1 h-12 z M335 19 h4 v1 h-4 z M347 19 h4 v1 h-4 z M367 19 h4 v1 h-4 z M375 19 h8 v1 h-8 z M391 19 h8 v1 h-8 z M403 19 h4 v1 h-4 z M411 19 h4 v1 h-4 z M35 20 h4 v1 h-4 z M43 20 h4 v1 h-4 z M59 20 h8 v1 h-8 z M71 20 h4 v1 h-4 z M79 20 h4 v1 h-4 z M91 20 h12 v1 h-12 z M107 20 h4 v1 h-4 z M115 20 h16 v1 h-16 z M135 20 h16 v1 h-16 z M155 20 h4 v1 h-4 z M171 20 h4 v1 h-4 z M183 20 h4 v1 h-4 z M191 20 h8 v1 h-8 z M207 20 h8 v1 h-8 z M219 20 h4 v1 h-4 z M227 20 h4 v1 h-4 z M235 20 h4 v1 h-4 z M255 20 h4 v1 h-4 z M263 20 h4 v1 h-4 z M283 20 h4 v1 h-4 z M291 20 h4 v1 h-4 z M311 20 h4 v1 h-4 z M319 20 h12 v1 h-12 z M335 20 h4 v1 h-4 z M347 20 h4 v1 h-4 z M367 20 h4 v1 h-4 z M375 20 h8 v1 h-8 z M391 20 h8 v1 h-8 z M403 20 h4 v1 h-4 z M411 20 h4 v1 h-4 z M35 21 h4 v1 h-4 z M43 21 h4 v1 h-4 z M59 21 h8 v1 h-8 z M71 21 h4 v1 h-4 z M79 21 h4 v1 h-4 z M91 21 h12 v1 h-12 z M107 21 h4 v1 h-4 z M115 21 h16 v1 h-16 z M135 21 h16 v1 h-16 z M155 21 h4 v1 h-4 z M171 21 h4 v1 h-4 z M183 21 h4 v1 h-4 z M191 21 h8 v1 h-8 z M207 21 h8 v1 h-8 z M219 21 h4 v1 h-4 z M227 21 h4 v1 h-4 z M235 21 h4 v1 h-4 z M255 21 h4 v1 h-4 z M263 21 h4 v1 h-4 z M283 21 h4 v1 h-4 z M291 21 h4 v1 h-4 z M311 21 h4 v1 h-4 z M319 21 h12 v1 h-12 z M335 21 h4 v1 h-4 z M347 21 h4 v1 h-4 z M367 21 h4 v1 h-4 z M375 21 h8 v1 h-8 z M391 21 h8 v1 h-8 z M403 21 h4 v1 h-4 z M411 21 h4 v1 h-4 z M35 22 h4 v1 h-4 z M43 22 h4 v1 h-4 z M59 22 h8 v1 h-8 z M71 22 h4 v1 h-4 z M79 22 h4 v1 h-4 z M91 22 h12 v1 h-12 z M107 22 h4 v1 h-4 z M115 22 h16 v1 h-16 z M135 22 h16 v1 h-16 z M155 22 h4 v1 h-4 z M171 22 h4 v1 h-4 z M183 22 h4 v1 h-4 z M191 22 h8 v1 h-8 z M207 22 h8 v1 h-8 z M219 22 h4 v1 h-4 z M227 22 h4 v1 h-4 z M235 22 h4 v1 h-4 z M255 22 h4 v1 h-4 z M263 22 h4 v1 h-4 z M283 22 h4 v1 h-4 z M291 22 h4 v1 h-4 z M311 22 h4 v1 h-4 z M319 22 h12 v1 h-12 z M335 22 h4 v1 h-4 z M347 22 h4 v1 h-4 z M367 22 h4 v1 h-4 z M375 22 h8 v1 h-8 z M391 22 h8 v1 h-8 z M403 22 h4 v1 h-4 z M411 22 h4 v1 h-4 z M35 23 h4 v1 h-4 z M43 23 h4 v1 h-4 z M59 23 h8 v1 h-8 z M71 23 h4 v1 h-4 z M79 23 h4 v1 h-4 z M91 23 h12 v1 h-12 z M107 23 h4 v1 h-4 z M115 23 h16 v1 h-16 z M135 23 h16 v1 h-16 z M155 23 h4 v1 h-4 z M171 23 h4 v1 h-4 z M183 23 h4 v1 h-4 z M191 23 h8 v1 h-8 z M207 23 h8 v1 h-8 z M219 23 h4 v1 h-4 z M227 23 h4 v1 h-4 z M235 23 h4 v1 h-4 z M255 23 h4 v1 h-4 z M263 23 h4 v1 h-4 z M283 23 h4 v1 h-4 z M291 23 h4 v1 h-4 z M311 23 h4 v1 h-4 z M319 23 h12 v1 h-12 z M335 23 h4 v1 h-4 z M347 23 h4 v1 h-4 z M367 23 h4 v1 h-4 z M375 23 h8 v1 h-8 z M391 23 h8 v1 h-8 z M403 23 h4 v1 h-4 z M411 23 h4 v1 h-4 z M35 24 h4 v1 h-4 z M43 24 h4 v1 h-4 z M59 24 h8 v1 h-8 z M71 24 h4 v1 h-4 z M79 24 h4 v1 h-4 z M91 24 h12 v1 h-12 z M107 24 h4 v1 h-4 z M115 24 h16 v1 h-16 z M135 24 h16 v1 h-16 z M155 24 h4 v1 h-4 z M171 24 h4 v1 h-4 z M183 24 h4 v1 h-4 z M191 24 h8 v1 h-8 z M207 24 h8 v1 h-8 z M219 24 h4 v1 h-4 z M227 24 h4 v1 h-4 z M235 24 h4 v1 h-4 z M255 24 h4 v1 h-4 z M263 24 h4 v1 h-4 z M283 24 h4 v1 h-4 z M291 24 h4 v1 h-4 z M311 24 h4 v1 h-4 z M319 24 h12 v1 h-12 z M335 24 h4 v1 h-4 z M347 24 h4 v1 h-4 z M367 24 h4 v1 h-4 z M375 24 h8 v1 h-8 z M391 24 h8 v1 h-8 z M403 24 h4 v1 h-4 z M411 24 h4 v1 h-4 z M35 25 h4 v1 h-4 z M43 25 h4 v1 h-4 z M59 25 h8 v1 h-8 z M71 25 h4 v1 h-4 z M79 25 h4 v1 h-4 z M91 25 h12 v1 h-12 z M107 25 h4 v1 h-4 z M115 25 h16 v1 h-16 z M135 25 h16 v1 h-16 z M155 25 h4 v1 h-4 z M171 25 h4 v1 h-4 z M183 25 h4 v1 h-4 z M191 25 h8 v1 h-8 z M207 25 h8 v1 h-8 z M219 25 h4 v1 h-4 z M227 25 h4 v1 h-4 z M235 25 h4 v1 h-4 z M255 25 h4 v1 h-4 z M263 25 h4 v1 h-4 z M283 25 h4 v1 h-4 z M291 25 h4 v1 h-4 z M311 25 h4 v1 h-4 z M319 25 h12 v1 h-12 z M335 25 h4 v1 h-4 z M347 25 h4 v1 h-4 z M367 25 h4 v1 h-4 z M375 25 h8 v1 h-8 z M391 25 h8 v1 h-8 z M403 25 h4 v1 h-4 z M411 25 h4 v1 h-4 z M35 26 h4 v1 h-4 z M43 26 h4 v1 h-4 z M59 26 h8 v1 h-8 z M71 26 h4 v1 h-4 z M79 26 h4 v1 h-4 z M91 26 h12 v1 h-12 z M107 26 h4 v1 h-4 z M115 26 h16 v1 h-16 z M135 26 h16 v1 h-16 z M155 26 h4 v1 h-4 z M171 26 h4 v1 h-4 z M183 26 h4 v1 h-4 z M191 26 h8 v1 h-8 z M207 26 h8 v1 h-8 z M219 26 h4 v1 h-4 z M227 26 h4 v1 h-4 z M235 26 h4 v1 h-4 z M255 26 h4 v1 h-4 z M263 26 h4 v1 h-4 z M283 26 h4 v1 h-4 z M291 26 h4 v1 h-4 z M311 26 h4 v1 h-4 z M319 26 h12 v1 h-12 z M335 26 h4 v1 h-4 z M347 26 h4 v1 h-4 z M367 26 h4 v1 h-4 z M375 26 h8 v1 h-8 z M391 26 h8 v1 h-8 z M403 26 h4 v1 h-4 z M411 26 h4 v1 h-4 z M35 27 h4 v1 h-4 z M43 27 h4 v1 h-4 z M59 27 h8 v1 h-8 z M71 27 h4 v1 h-4 z M79 27 h4 v1 h-4 z M91 27 h12 v1 h-12 z M107 27 h4 v1 h-4 z M115 27 h16 v1 h-16 z M135 27 h16 v1 h-16 z M155 27 h4 v1 h-4 z M171 27 h4 v1 h-4 z M183 27 h4 v1 h-4 z M191 27 h8 v1 h-8 z M207 27 h8 v1 h-8 z M219 27 h4 v1 h-4 z M227 27 h4 v1 h-4 z M235 27 h4 v1 h-4 z M255 27 h4 v1 h-4 z M263 27 h4 v1 h-4 z M283 27 h4 v1 h-4 z M291 27 h4 v1 h-4 z M311 27 h4 v1 h-4 z M319 27 h12 v1 h-12 z M335 27 h4 v1 h-4 z M347 27 h4 v1 h-4 z M367 27 h4 v1 h-4 z M375 27 h8 v1 h-8 z M391 27 h8 v1 h-8 z M403 27 h4 v1 h-4 z M411 27 h4 v1 h-4 z M35 28 h4 v1 h-4 z M43 28 h4 v1 h-4 z M59 28 h8 v1 h-8 z M71 28 h4 v1 h-4 z M79 28 h4 v1 h-4 z M91 28 h12 v1 h-12 z M107 28 h4 v1 h-4 z M115 28 h16 v1 h-16 z M135 28 h16 v1 h-16 z M155 28 h4 v1 h-4 z M171 28 h4 v1 h-4 z M183 28 h4 v1 h-4 z M191 28 h8 v1 h-8 z M207 28 h8 v1 h-8 z M219 28 h4 v1 h-4 z M227 28 h4 v1 h-4 z M235 28 h4 v1 h-4 z M255 28 h4 v1 h-4 z M263 28 h4 v1 h-4 z M283 28 h4 v1 h-4 z M291 28 h4 v1 h-4 z M311 28 h4 v1 h-4 z M319 28 h12 v1 h-12 z M335 28 h4 v1 h-4 z M347 28 h4 v1 h-4 z M367 28 h4 v1 h-4 z M375 28 h8 v1 h-8 z M391 28 h8 v1 h-8 z M403 28 h4 v1 h-4 z M411 28 h4 v1 h-4 z M35 29 h4 v1 h-4 z M43 29 h4 v1 h-4 z M59 29 h8 v1 h-8 z M71 29 h4 v1 h-4 z M79 29 h4 v1 h-4 z M91 29 h12 v1 h-12 z M107 29 h4 v1 h-4 z M115 29 h16 v1 h-16 z M135 29 h16 v1 h-16 z M155 29 h4 v1 h-4 z M171 29 h4 v1 h-4 z M183 29 h4 v1 h-4 z M191 29 h8 v1 h-8 z M207 29 h8 v1 h-8 z M219 29 h4 v1 h-4 z M227 29 h4 v1 h-4 z M235 29 h4 v1 h-4 z M255 29 h4 v1 h-4 z M263 29 h4 v1 h-4 z M283 29 h4 v1 h-4 z M291 29 h4 v1 h-4 z M311 29 h4 v1 h-4 z M319 29 h12 v1 h-12 z M335 29 h4 v1 h-4 z M347 29 h4 v1 h-4 z M367 29 h4 v1 h-4 z M375 29 h8 v1 h-8 z M391 29 h8 v1 h-8 z M403 29 h4 v1 h-4 z M411 29 h4 v1 h-4 z M35 30 h4 v1 h-4 z M43 30 h4 v1 h-4 z M59 30 h8 v1 h-8 z M71 30 h4 v1 h-4 z M79 30 h4 v1 h-4 z M91 30 h12 v1 h-12 z M107 30 h4 v1 h-4 z M115 30 h16 v1 h-16 z M135 30 h16 v1 h-16 z M155 30 h4 v1 h-4 z M171 30 h4 v1 h-4 z M183 30 h4 v1 h-4 z M191 30 h8 v1 h-8 z M207 30 h8 v1 h-8 z M219 30 h4 v1 h-4 z M227 30 h4 v1 h-4 z M235 30 h4 v1 h-4 z M255 30 h4 v1 h-4 z M263 30 h4 v1 h-4 z M283 30 h4 v1 h-4 z M291 30 h4 v1 h-4 z M311 30 h4 v1 h-4 z M319 30 h12 v1 h-12 z M335 30 h4 v1 h-4 z M347 30 h4 v1 h-4 z M367 30 h4 v1 h-4 z M375 30 h8 v1 h-8 z M391 30 h8 v1 h-8 z M403 30 h4 v1 h-4 z M411 30 h4 v1 h-4 z M35 31 h4 v1 h-4 z M43 31 h4 v1 h-4 z M59 31 h8 v1 h-8 z M71 31 h4 v1 h-4 z M79 31 h4 v1 h-4 z M91 31 h12 v1 h-12 z M107 31 h4 v1 h-4 z M115 31 h16 v1 h-16 z M135 31 h16 v1 h-16 z M155 31 h4 v1 h-4 z M171 31 h4 v1 h-4 z M183 31 h4 v1 h-4 z M191 31 h8 v1 h-8 z M207 31 h8 v1 h-8 z M219 31 h4 v1 h-4 z M227 31 h4 v1 h-4 z M235 31 h4 v1 h-4 z M255 31 h4 v1 h-4 z M263 31 h4 v1 h-4 z M283 31 h4 v1 h-4 z M291 31 h4 v1 h-4 z M311 31 h4 v1 h-4 z M319 31 h12 v1 h-12 z M335 31 h4 v1 h-4 z M347 31 h4 v1 h-4 z M367 31 h4 v1 h-4 z M375 31 h8 v1 h-8 z M391 31 h8 v1 h-8 z M403 31 h4 v1 h-4 z M411 31 h4 v1 h-4 z M35 32 h4 v1 h-4 z M43 32 h4 v1 h-4 z M59 32 h8 v1 h-8 z M71 32 h4 v1 h-4 z M79 32 h4 v1 h-4 z M91 32 h12 v1 h-12 z M107 32 h4 v1 h-4 z M115 32 h16 v1 h-16 z M135 32 h16 v1 h-16 z M155 32 h4 v1 h-4 z M171 32 h4 v1 h-4 z M183 32 h4 v1 h-4 z M191 32 h8 v1 h-8 z M207 32 h8 v1 h-8 z M219 32 h4 v1 h-4 z M227 32 h4 v1 h-4 z M235 32 h4 v1 h-4 z M255 32 h4 v1 h-4 z M263 32 h4 v1 h-4 z M283 32 h4 v1 h-4 z M291 32 h4 v1 h-4 z M311 32 h4 v1 h-4 z M319 32 h12 v1 h-12 z M335 32 h4 v1 h-4 z M347 32 h4 v1 h-4 z M367 32 h4 v1 h-4 z M375 32 h8 v1 h-8 z M391 32 h8 v1 h-8 z M403 32 h4 v1 h-4 z M411 32 h4 v1 h-4 z M35 33 h4 v1 h-4 z M43 33 h4 v1 h-4 z M59 33 h8 v1 h-8 z M71 33 h4 v1 h-4 z M79 33 h4 v1 h-4 z M91 33 h12 v1 h-12 z M107 33 h4 v1 h-4 z M115 33 h16 v1 h-16 z M135 33 h16 v1 h-16 z M155 33 h4 v1 h-4 z M171 33 h4 v1 h-4 z M183 33 h4 v1 h-4 z M191 33 h8 v1 h-8 z M207 33 h8 v1 h-8 z M219 33 h4 v1 h-4 z M227 33 h4 v1 h-4 z M235 33 h4 v1 h-4 z M255 33 h4 v1 h-4 z M263 33 h4 v1 h-4 z M283 33 h4 v1 h-4 z M291 33 h4 v1 h-4 z M311 33 h4 v1 h-4 z M319 33 h12 v1 h-12 z M335 33 h4 v1 h-4 z M347 33 h4 v1 h-4 z M367 33 h4 v1 h-4 z M375 33 h8 v1 h-8 z M391 33 h8 v1 h-8 z M403 33 h4 v1 h-4 z M411 33 h4 v1 h-4 z M35 34 h4 v1 h-4 z M43 34 h4 v1 h-4 z M59 34 h8 v1 h-8 z M71 34 h4 v1 h-4 z M79 34 h4 v1 h-4 z M91 34 h12 v1 h-12 z M107 34 h4 v1 h-4 z M115 34 h16 v1 h-16 z M135 34 h16 v1 h-16 z M155 34 h4 v1 h-4 z M171 34 h4 v1 h-4 z M183 34 h4 v1 h-4 z M191 34 h8 v1 h-8 z M207 34 h8 v1 h-8 z M219 34 h4 v1 h-4 z M227 34 h4 v1 h-4 z M235 34 h4 v1 h-4 z M255 34 h4 v1 h-4 z M263 34 h4 v1 h-4 z M283 34 h4 v1 h-4 z M291 34 h4 v1 h-4 z M311 34 h4 v1 h-4 z M319 34 h12 v1 h-12 z M335 34 h4 v1 h-4 z M347 34 h4 v1 h-4 z M367 34 h4 v1 h-4 z M375 34 h8 v1 h-8 z M391 34 h8 v1 h-8 z M403 34 h4 v1 h-4 z M411 34 h4 v1 h-4 z M35 35 h4 v1 h-4 z M43 35 h4 v1 h-4 z M59 35 h8 v1 h-8 z M71 35 h4 v1 h-4 z M79 35 h4 v1 h-4 z M91 35 h12 v1 h-12 z M107 35 h4 v1 h-4 z M115 35 h16 v1 h-16 z M135 35 h16 v1 h-16 z M155 35 h4 v1 h-4 z M171 35 h4 v1 h-4 z M183 35 h4 v1 h-4 z M191 35 h8 v1 h-8 z M207 35 h8 v1 h-8 z M219 35 h4 v1 h-4 z M227 35 h4 v1 h-4 z M235 35 h4 v1 h-4 z M255 35 h4 v1 h-4 z M263 35 h4 v1 h-4 z M283 35 h4 v1 h-4 z M291 35 h4 v1 h-4 z M311 35 h4 v1 h-4 z M319 35 h12 v1 h-12 z M335 35 h4 v1 h-4 z M347 35 h4 v1 h-4 z M367 35 h4 v1 h-4 z M375 35 h8 v1 h-8 z M391 35 h8 v1 h-8 z M403 35 h4 v1 h-4 z M411 35 h4 v1 h-4 z M35 36 h4 v1 h-4 z M43 36 h4 v1 h-4 z M59 36 h8 v1 h-8 z M71 36 h4 v1 h-4 z M79 36 h4 v1 h-4 z M91 36 h12 v1 h-12 z M107 36 h4 v1 h-4 z M115 36 h16 v1 h-16 z M135 36 h16 v1 h-16 z M155 36 h4 v1 h-4 z M171 36 h4 v1 h-4 z M183 36 h4 v1 h-4 z M191 36 h8 v1 h-8 z M207 36 h8 v1 h-8 z M219 36 h4 v1 h-4 z M227 36 h4 v1 h-4 z M235 36 h4 v1 h-4 z M255 36 h4 v1 h-4 z M263 36 h4 v1 h-4 z M283 36 h4 v1 h-4 z M291 36 h4 v1 h-4 z M311 36 h4 v1 h-4 z M319 36 h12 v1 h-12 z M335 36 h4 v1 h-4 z M347 36 h4 v1 h-4 z M367 36 h4 v1 h-4 z M375 36 h8 v1 h-8 z M391 36 h8 v1 h-8 z M403 36 h4 v1 h-4 z M411 36 h4 v1 h-4 z M35 37 h4 v1 h-4 z M43 37 h4 v1 h-4 z M59 37 h8 v1 h-8 z M71 37 h4 v1 h-4 z M79 37 h4 v1 h-4 z M91 37 h12 v1 h-12 z M107 37 h4 v1 h-4 z M115 37 h16 v1 h-16 z M135 37 h16 v1 h-16 z M155 37 h4 v1 h-4 z M171 37 h4 v1 h-4 z M183 37 h4 v1 h-4 z M191 37 h8 v1 h-8 z M207 37 h8 v1 h-8 z M219 37 h4 v1 h-4 z M227 37 h4 v1 h-4 z M235 37 h4 v1 h-4 z M255 37 h4 v1 h-4 z M263 37 h4 v1 h-4 z M283 37 h4 v1 h-4 z M291 37 h4 v1 h-4 z M311 37 h4 v1 h-4 z M319 37 h12 v1 h-12 z M335 37 h4 v1 h-4 z M347 37 h4 v1 h-4 z M367 37 h4 v1 h-4 z M375 37 h8 v1 h-8 z M391 37 h8 v1 h-8 z M403 37 h4 v1 h-4 z M411 37 h4 v1 h-4 z M35 38 h4 v1 h-4 z M43 38 h4 v1 h-4 z M59 38 h8 v1 h-8 z M71 38 h4 v1 h-4 z M79 38 h4 v1 h-4 z M91 38 h12 v1 h-12 z M107 38 h4 v1 h-4 z M115 38 h16 v1 h-16 z M135 38 h16 v1 h-16 z M155 38 h4 v1 h-4 z M171 38 h4 v1 h-4 z M183 38 h4 v1 h-4 z M191 38 h8 v1 h-8 z M207 38 h8 v1 h-8 z M219 38 h4 v1 h-4 z M227 38 h4 v1 h-4 z M235 38 h4 v1 h-4 z M255 38 h4 v1 h-4 z M263 38 h4 v1 h-4 z M283 38 h4 v1 h-4 z M291 38 h4 v1 h-4 z M311 38 h4 v1 h-4 z M319 38 h12 v1 h-12 z M335 38 h4 v1 h-4 z M347 38 h4 v1 h-4 z M367 38 h4 v1 h-4 z M375 38 h8 v1 h-8 z M391 38 h8 v1 h-8 z M403 38 h4 v1 h-4 z M411 38 h4 v1 h-4 z M35 39 h4 v1 h-4 z M43 39 h4 v1 h-4 z M59 39 h8 v1 h-8 z M71 39 h4 v1 h-4 z M79 39 h4 v1 h-4 z M91 39 h12 v1 h-12 z M107 39 h4 v1 h-4 z M115 39 h16 v1 h-16 z M135 39 h16 v1 h-16 z M155 39 h4 v1 h-4 z M171 39 h4 v1 h-4 z M183 39 h4 v1 h-4 z M191 39 h8 v1 h-8 z M207 39 h8 v1 h-8 z M219 39 h4 v1 h-4 z M227 39 h4 v1 h-4 z M235 39 h4 v1 h-4 z M255 39 h4 v1 h-4 z M263 39 h4 v1 h-4 z M283 39 h4 v1 h-4 z M291 39 h4 v1 h-4 z M311 39 h4 v1 h-4 z M319 39 h12 v1 h-12 z M335 39 h4 v1 h-4 z M347 39 h4 v1 h-4 z M367 39 h4 v1 h-4 z M375 39 h8 v1 h-8 z M391 39 h8 v1 h-8 z M403 39 h4 v1 h-4 z M411 39 h4 v1 h-4 z M35 40 h4 v1 h-4 z M43 40 h4 v1 h-4 z M59 40 h8 v1 h-8 z M71 40 h4 v1 h-4 z M79 40 h4 v1 h-4 z M91 40 h12 v1 h-12 z M107 40 h4 v1 h-4 z M115 40 h16 v1 h-16 z M135 40 h16 v1 h-16 z M155 40 h4 v1 h-4 z M171 40 h4 v1 h-4 z M183 40 h4 v1 h-4 z M191 40 h8 v1 h-8 z M207 40 h8 v1 h-8 z M219 40 h4 v1 h-4 z M227 40 h4 v1 h-4 z M235 40 h4 v1 h-4 z M255 40 h4 v1 h-4 z M263 40 h4 v1 h-4 z M283 40 h4 v1 h-4 z M291 40 h4 v1 h-4 z M311 40 h4 v1 h-4 z M319 40 h12 v1 h-12 z M335 40 h4 v1 h-4 z M347 40 h4 v1 h-4 z M367 40 h4 v1 h-4 z M375 40 h8 v1 h-8 z M391 40 h8 v1 h-8 z M403 40 h4 v1 h-4 z M411 40 h4 v1 h-4 z M35 41 h4 v1 h-4 z M43 41 h4 v1 h-4 z M59 41 h8 v1 h-8 z M71 41 h4 v1 h-4 z M79 41 h4 v1 h-4 z M91 41 h12 v1 h-12 z M107 41 h4 v1 h-4 z M115 41 h16 v1 h-16 z M135 41 h16 v1 h-16 z M155 41 h4 v1 h-4 z M171 41 h4 v1 h-4 z M183 41 h4 v1 h-4 z M191 41 h8 v1 h-8 z M207 41 h8 v1 h-8 z M219 41 h4 v1 h-4 z M227 41 h4 v1 h-4 z M235 41 h4 v1 h-4 z M255 41 h4 v1 h-4 z M263 41 h4 v1 h-4 z M283 41 h4 v1 h-4 z M291 41 h4 v1 h-4 z M311 41 h4 v1 h-4 z M319 41 h12 v1 h-12 z M335 41 h4 v1 h-4 z M347 41 h4 v1 h-4 z M367 41 h4 v1 h-4 z M375 41 h8 v1 h-8 z M391 41 h8 v1 h-8 z M403 41 h4 v1 h-4 z M411 41 h4 v1 h-4 z M35 42 h4 v1 h-4 z M43 42 h4 v1 h-4 z M59 42 h8 v1 h-8 z M71 42 h4 v1 h-4 z M79 42 h4 v1 h-4 z M91 42 h12 v1 h-12 z M107 42 h4 v1 h-4 z M115 42 h16 v1 h-16 z M135 42 h16 v1 h-16 z M155 42 h4 v1 h-4 z M171 42 h4 v1 h-4 z M183 42 h4 v1 h-4 z M191 42 h8 v1 h-8 z M207 42 h8 v1 h-8 z M219 42 h4 v1 h-4 z M227 42 h4 v1 h-4 z M235 42 h4 v1 h-4 z M255 42 h4 v1 h-4 z M263 42 h4 v1 h-4 z M283 42 h4 v1 h-4 z M291 42 h4 v1 h-4 z M311 42 h4 v1 h-4 z M319 42 h12 v1 h-12 z M335 42 h4 v1 h-4 z M347 42 h4 v1 h-4 z M367 42 h4 v1 h-4 z M375 42 h8 v1 h-8 z M391 42 h8 v1 h-8 z M403 42 h4 v1 h-4 z M411 42 h4 v1 h-4 z M35 43 h4 v1 h-4 z M43 43 h4 v1 h-4 z M59 43 h8 v1 h-8 z M71 43 h4 v1 h-4 z M79 43 h4 v1 h-4 z M91 43 h12 v1 h-12 z M107 43 h4 v1 h-4 z M115 43 h16 v1 h-16 z M135 43 h16 v1 h-16 z M155 43 h4 v1 h-4 z M171 43 h4 v1 h-4 z M183 43 h4 v1 h-4 z M191 43 h8 v1 h-8 z M207 43 h8 v1 h-8 z M219 43 h4 v1 h-4 z M227 43 h4 v1 h-4 z M235 43 h4 v1 h-4 z M255 43 h4 v1 h-4 z M263 43 h4 v1 h-4 z M283 43 h4 v1 h-4 z M291 43 h4 v1 h-4 z M311 43 h4 v1 h-4 z M319 43 h12 v1 h-12 z M335 43 h4 v1 h-4 z M347 43 h4 v1 h-4 z M367 43 h4 v1 h-4 z M375 43 h8 v1 h-8 z M391 43 h8 v1 h-8 z M403 43 h4 v1 h-4 z M411 43 h4 v1 h-4 z M35 44 h4 v1 h-4 z M43 44 h4 v1 h-4 z M59 44 h8 v1 h-8 z M71 44 h4 v1 h-4 z M79 44 h4 v1 h-4 z M91 44 h12 v1 h-12 z M107 44 h4 v1 h-4 z M115 44 h16 v1 h-16 z M135 44 h16 v1 h-16 z M155 44 h4 v1 h-4 z M171 44 h4 v1 h-4 z M183 44 h4 v1 h-4 z M191 44 h8 v1 h-8 z M207 44 h8 v1 h-8 z M219 44 h4 v1 h-4 z M227 44 h4 v1 h-4 z M235 44 h4 v1 h-4 z M255 44 h4 v1 h-4 z M263 44 h4 v1 h-4 z M283 44 h4 v1 h-4 z M291 44 h4 v1 h-4 z M311 44 h4 v1 h-4 z M319 44 h12 v1 h-12 z M335 44 h4 v1 h-4 z M347 44 h4 v1 h-4 z M367 44 h4 v1 h-4 z M375 44 h8 v1 h-8 z M391 44 h8 v1 h-8 z M403 44 h4 v1 h-4 z M411 44 h4 v1 h-4 z M35 45 h4 v1 h-4 z M43 45 h4 v1 h-4 z M59 45 h8 v1 h-8 z M71 45 h4 v1 h-4 z M79 45 h4 v1 h-4 z M91 45 h12 v1 h-12 z M107 45 h4 v1 h-4 z M115 45 h16 v1 h-16 z M135 45 h16 v1 h-16 z M155 45 h4 v1 h-4 z M171 45 h4 v1 h-4 z M183 45 h4 v1 h-4 z M191 45 h8 v1 h-8 z M207 45 h8 v1 h-8 z M219 45 h4 v1 h-4 z M227 45 h4 v1 h-4 z M235 45 h4 v1 h-4 z M255 45 h4 v1 h-4 z M263 45 h4 v1 h-4 z M283 45 h4 v1 h-4 z M291 45 h4 v1 h-4 z M311 45 h4 v1 h-4 z M319 45 h12 v1 h-12 z M335 45 h4 v1 h-4 z M347 45 h4 v1 h-4 z M367 45 h4 v1 h-4 z M375 45 h8 v1 h-8 z M391 45 h8 v1 h-8 z M403 45 h4 v1 h-4 z M411 45 h4 v1 h-4 z M35 46 h4 v1 h-4 z M43 46 h4 v1 h-4 z M59 46 h8 v1 h-8 z M71 46 h4 v1 h-4 z M79 46 h4 v1 h-4 z M91 46 h12 v1 h-12 z M107 46 h4 v1 h-4 z M115 46 h16 v1 h-16 z M135 46 h16 v1 h-16 z M155 46 h4 v1 h-4 z M171 46 h4 v1 h-4 z M183 46 h4 v1 h-4 z M191 46 h8 v1 h-8 z M207 46 h8 v1 h-8 z M219 46 h4 v1 h-4 z M227 46 h4 v1 h-4 z M235 46 h4 v1 h-4 z M255 46 h4 v1 h-4 z M263 46 h4 v1 h-4 z M283 46 h4 v1 h-4 z M291 46 h4 v1 h-4 z M311 46 h4 v1 h-4 z M319 46 h12 v1 h-12 z M335 46 h4 v1 h-4 z M347 46 h4 v1 h-4 z M367 46 h4 v1 h-4 z M375 46 h8 v1 h-8 z M391 46 h8 v1 h-8 z M403 46 h4 v1 h-4 z M411 46 h4 v1 h-4 z M35 47 h4 v1 h-4 z M43 47 h4 v1 h-4 z M59 47 h8 v1 h-8 z M71 47 h4 v1 h-4 z M79 47 h4 v1 h-4 z M91 47 h12 v1 h-12 z M107 47 h4 v1 h-4 z M115 47 h16 v1 h-16 z M135 47 h16 v1 h-16 z M155 47 h4 v1 h-4 z M171 47 h4 v1 h-4 z M183 47 h4 v1 h-4 z M191 47 h8 v1 h-8 z M207 47 h8 v1 h-8 z M219 47 h4 v1 h-4 z M227 47 h4 v1 h-4 z M235 47 h4 v1 h-4 z M255 47 h4 v1 h-4 z M263 47 h4 v1 h-4 z M283 47 h4 v1 h-4 z M291 47 h4 v1 h-4 z M311 47 h4 v1 h-4 z M319 47 h12 v1 h-12 z M335 47 h4 v1 h-4 z M347 47 h4 v1 h-4 z M367 47 h4 v1 h-4 z M375 47 h8 v1 h-8 z M391 47 h8 v1 h-8 z M403 47 h4 v1 h-4 z M411 47 h4 v1 h-4 z M35 48 h4 v1 h-4 z M43 48 h4 v1 h-4 z M59 48 h8 v1 h-8 z M71 48 h4 v1 h-4 z M79 48 h4 v1 h-4 z M91 48 h12 v1 h-12 z M107 48 h4 v1 h-4 z M115 48 h16 v1 h-16 z M135 48 h16 v1 h-16 z M155 48 h4 v1 h-4 z M171 48 h4 v1 h-4 z M183 48 h4 v1 h-4 z M191 48 h8 v1 h-8 z M207 48 h8 v1 h-8 z M219 48 h4 v1 h-4 z M227 48 h4 v1 h-4 z M235 48 h4 v1 h-4 z M255 48 h4 v1 h-4 z M263 48 h4 v1 h-4 z M283 48 h4 v1 h-4 z M291 48 h4 v1 h-4 z M311 48 h4 v1 h-4 z M319 48 h12 v1 h-12 z M335 48 h4 v1 h-4 z M347 48 h4 v1 h-4 z M367 48 h4 v1 h-4 z M375 48 h8 v1 h-8 z M391 48 h8 v1 h-8 z M403 48 h4 v1 h-4 z M411 48 h4 v1 h-4 z M35 49 h4 v1 h-4 z M43 49 h4 v1 h-4 z M59 49 h8 v1 h-8 z M71 49 h4 v1 h-4 z M79 49 h4 v1 h-4 z M91 49 h12 v1 h-12 z M107 49 h4 v1 h-4 z M115 49 h16 v1 h-16 z M135 49 h16 v1 h-16 z M155 49 h4 v1 h-4 z M171 49 h4 v1 h-4 z M183 49 h4 v1 h-4 z M191 49 h8 v1 h-8 z M207 49 h8 v1 h-8 z M219 49 h4 v1 h-4 z M227 49 h4 v1 h-4 z M235 49 h4 v1 h-4 z M255 49 h4 v1 h-4 z M263 49 h4 v1 h-4 z M283 49 h4 v1 h-4 z M291 49 h4 v1 h-4 z M311 49 h4 v1 h-4 z M319 49 h12 v1 h-12 z M335 49 h4 v1 h-4 z M347 49 h4 v1 h-4 z M367 49 h4 v1 h-4 z M375 49 h8 v1 h-8 z M391 49 h8 v1 h-8 z M403 49 h4 v1 h-4 z M411 49 h4 v1 h-4 z M35 50 h4 v1 h-4 z M43 50 h4 v1 h-4 z M59 50 h8 v1 h-8 z M71 50 h4 v1 h-4 z M79 50 h4 v1 h-4 z M91 50 h12 v1 h-12 z M107 50 h4 v1 h-4 z M115 50 h16 v1 h-16 z M135 50 h16 v1 h-16 z M155 50 h4 v1 h-4 z M171 50 h4 v1 h-4 z M183 50 h4 v1 h-4 z M191 50 h8 v1 h-8 z M207 50 h8 v1 h-8 z M219 50 h4 v1 h-4 z M227 50 h4 v1 h-4 z M235 50 h4 v1 h-4 z M255 50 h4 v1 h-4 z M263 50 h4 v1 h-4 z M283 50 h4 v1 h-4 z M291 50 h4 v1 h-4 z M311 50 h4 v1 h-4 z M319 50 h12 v1 h-12 z M335 50 h4 v1 h-4 z M347 50 h4 v1 h-4 z M367 50 h4 v1 h-4 z M375 50 h8 v1 h-8 z M391 50 h8 v1 h-8 z M403 50 h4 v1 h-4 z M411 50 h4 v1 h-4 z M35 51 h4 v1 h-4 z M43 51 h4 v1 h-4 z M59 51 h8 v1 h-8 z M71 51 h4 v1 h-4 z M79 51 h4 v1 h-4 z M91 51 h12 v1 h-12 z M107 51 h4 v1 h-4 z M115 51 h16 v1 h-16 z M135 51 h16 v1 h-16 z M155 51 h4 v1 h-4 z M171 51 h4 v1 h-4 z M183 51 h4 v1 h-4 z M191 51 h8 v1 h-8 z M207 51 h8 v1 h-8 z M219 51 h4 v1 h-4 z M227 51 h4 v1 h-4 z M235 51 h4 v1 h-4 z M255 51 h4 v1 h-4 z M263 51 h4 v1 h-4 z M283 51 h4 v1 h-4 z M291 51 h4 v1 h-4 z M311 51 h4 v1 h-4 z M319 51 h12 v1 h-12 z M335 51 h4 v1 h-4 z M347 51 h4 v1 h-4 z M367 51 h4 v1 h-4 z M375 51 h8 v1 h-8 z M391 51 h8 v1 h-8 z M403 51 h4 v1 h-4 z M411 51 h4 v1 h-4 z M35 52 h4 v1 h-4 z M43 52 h4 v1 h-4 z M59 52 h8 v1 h-8 z M71 52 h4 v1 h-4 z M79 52 h4 v1 h-4 z M91 52 h12 v1 h-12 z M107 52 h4 v1 h-4 z M115 52 h16 v1 h-16 z M135 52 h16 v1 h-16 z M155 52 h4 v1 h-4 z M171 52 h4 v1 h-4 z M183 52 h4 v1 h-4 z M191 52 h8 v1 h-8 z M207 52 h8 v1 h-8 z M219 52 h4 v1 h-4 z M227 52 h4 v1 h-4 z M235 52 h4 v1 h-4 z M255 52 h4 v1 h-4 z M263 52 h4 v1 h-4 z M283 52 h4 v1 h-4 z M291 52 h4 v1 h-4 z M311 52 h4 v1 h-4 z M319 52 h12 v1 h-12 z M335 52 h4 v1 h-4 z M347 52 h4 v1 h-4 z M367 52 h4 v1 h-4 z M375 52 h8 v1 h-8 z M391 52 h8 v1 h-8 z M403 52 h4 v1 h-4 z M411 52 h4 v1 h-4 z M35 53 h4 v1 h-4 z M43 53 h4 v1 h-4 z M59 53 h8 v1 h-8 z M71 53 h4 v1 h-4 z M79 53 h4 v1 h-4 z M91 53 h12 v1 h-12 z M107 53 h4 v1 h-4 z M115 53 h16 v1 h-16 z M135 53 h16 v1 h-16 z M155 53 h4 v1 h-4 z M171 53 h4 v1 h-4 z M183 53 h4 v1 h-4 z M191 53 h8 v1 h-8 z M207 53 h8 v1 h-8 z M219 53 h4 v1 h-4 z M227 53 h4 v1 h-4 z M235 53 h4 v1 h-4 z M255 53 h4 v1 h-4 z M263 53 h4 v1 h-4 z M283 53 h4 v1 h-4 z M291 53 h4 v1 h-4 z M311 53 h4 v1 h-4 z M319 53 h12 v1 h-12 z M335 53 h4 v1 h-4 z M347 53 h4 v1 h-4 z M367 53 h4 v1 h-4 z M375 53 h8 v1 h-8 z M391 53 h8 v1 h-8 z M403 53 h4 v1 h-4 z M411 53 h4 v1 h-4 z M35 54 h4 v1 h-4 z M43 54 h4 v1 h-4 z M59 54 h8 v1 h-8 z M71 54 h4 v1 h-4 z M79 54 h4 v1 h-4 z M91 54 h12 v1 h-12 z M107 54 h4 v1 h-4 z M115 54 h16 v1 h-16 z M135 54 h16 v1 h-16 z M155 54 h4 v1 h-4 z M171 54 h4 v1 h-4 z M183 54 h4 v1 h-4 z M191 54 h8 v1 h-8 z M207 54 h8 v1 h-8 z M219 54 h4 v1 h-4 z M227 54 h4 v1 h-4 z M235 54 h4 v1 h-4 z M255 54 h4 v1 h-4 z M263 54 h4 v1 h-4 z M283 54 h4 v1 h-4 z M291 54 h4 v1 h-4 z M311 54 h4 v1 h-4 z M319 54 h12 v1 h-12 z M335 54 h4 v1 h-4 z M347 54 h4 v1 h-4 z M367 54 h4 v1 h-4 z M375 54 h8 v1 h-8 z M391 54 h8 v1 h-8 z M403 54 h4 v1 h-4 z M411 54 h4 v1 h-4 z M35 55 h4 v1 h-4 z M43 55 h4 v1 h-4 z M59 55 h8 v1 h-8 z M71 55 h4 v1 h-4 z M79 55 h4 v1 h-4 z M91 55 h12 v1 h-12 z M107 55 h4 v1 h-4 z M115 55 h16 v1 h-16 z M135 55 h16 v1 h-16 z M155 55 h4 v1 h-4 z M171 55 h4 v1 h-4 z M183 55 h4 v1 h-4 z M191 55 h8 v1 h-8 z M207 55 h8 v1 h-8 z M219 55 h4 v1 h-4 z M227 55 h4 v1 h-4 z M235 55 h4 v1 h-4 z M255 55 h4 v1 h-4 z M263 55 h4 v1 h-4 z M283 55 h4 v1 h-4 z M291 55 h4 v1 h-4 z M311 55 h4 v1 h-4 z M319 55 h12 v1 h-12 z M335 55 h4 v1 h-4 z M347 55 h4 v1 h-4 z M367 55 h4 v1 h-4 z M375 55 h8 v1 h-8 z M391 55 h8 v1 h-8 z M403 55 h4 v1 h-4 z M411 55 h4 v1 h-4 z M35 56 h4 v1 h-4 z M43 56 h4 v1 h-4 z M59 56 h8 v1 h-8 z M71 56 h4 v1 h-4 z M79 56 h4 v1 h-4 z M91 56 h12 v1 h-12 z M107 56 h4 v1 h-4 z M115 56 h16 v1 h-16 z M135 56 h16 v1 h-16 z M155 56 h4 v1 h-4 z M171 56 h4 v1 h-4 z M183 56 h4 v1 h-4 z M191 56 h8 v1 h-8 z M207 56 h8 v1 h-8 z M219 56 h4 v1 h-4 z M227 56 h4 v1 h-4 z M235 56 h4 v1 h-4 z M255 56 h4 v1 h-4 z M263 56 h4 v1 h-4 z M283 56 h4 v1 h-4 z M291 56 h4 v1 h-4 z M311 56 h4 v1 h-4 z M319 56 h12 v1 h-12 z M335 56 h4 v1 h-4 z M347 56 h4 v1 h-4 z M367 56 h4 v1 h-4 z M375 56 h8 v1 h-8 z M391 56 h8 v1 h-8 z M403 56 h4 v1 h-4 z M411 56 h4 v1 h-4 z M35 57 h4 v1 h-4 z M43 57 h4 v1 h-4 z M59 57 h8 v1 h-8 z M71 57 h4 v1 h-4 z M79 57 h4 v1 h-4 z M91 57 h12 v1 h-12 z M107 57 h4 v1 h-4 z M115 57 h16 v1 h-16 z M135 57 h16 v1 h-16 z M155 57 h4 v1 h-4 z M171 57 h4 v1 h-4 z M183 57 h4 v1 h-4 z M191 57 h8 v1 h-8 z M207 57 h8 v1 h-8 z M219 57 h4 v1 h-4 z M227 57 h4 v1 h-4 z M235 57 h4 v1 h-4 z M255 57 h4 v1 h-4 z M263 57 h4 v1 h-4 z M283 57 h4 v1 h-4 z M291 57 h4 v1 h-4 z M311 57 h4 v1 h-4 z M319 57 h12 v1 h-12 z M335 57 h4 v1 h-4 z M347 57 h4 v1 h-4 z M367 57 h4 v1 h-4 z M375 57 h8 v1 h-8 z M391 57 h8 v1 h-8 z M403 57 h4 v1 h-4 z M411 57 h4 v1 h-4 z M35 58 h4 v1 h-4 z M43 58 h4 v1 h-4 z M59 58 h8 v1 h-8 z M71 58 h4 v1 h-4 z M79 58 h4 v1 h-4 z M91 58 h12 v1 h-12 z M107 58 h4 v1 h-4 z M115 58 h16 v1 h-16 z M135 58 h16 v1 h-16 z M155 58 h4 v1 h-4 z M171 58 h4 v1 h-4 z M183 58 h4 v1 h-4 z M191 58 h8 v1 h-8 z M207 58 h8 v1 h-8 z M219 58 h4 v1 h-4 z M227 58 h4 v1 h-4 z M235 58 h4 v1 h-4 z M255 58 h4 v1 h-4 z M263 58 h4 v1 h-4 z M283 58 h4 v1 h-4 z M291 58 h4 v1 h-4 z M311 58 h4 v1 h-4 z M319 58 h12 v1 h-12 z M335 58 h4 v1 h-4 z M347 58 h4 v1 h-4 z M367 58 h4 v1 h-4 z M375 58 h8 v1 h-8 z M391 58 h8 v1 h-8 z M403 58 h4 v1 h-4 z M411 58 h4 v1 h-4 z M35 59 h4 v1 h-4 z M43 59 h4 v1 h-4 z M59 59 h8 v1 h-8 z M71 59 h4 v1 h-4 z M79 59 h4 v1 h-4 z M91 59 h12 v1 h-12 z M107 59 h4 v1 h-4 z M115 59 h16 v1 h-16 z M135 59 h16 v1 h-16 z M155 59 h4 v1 h-4 z M171 59 h4 v1 h-4 z M183 59 h4 v1 h-4 z M191 59 h8 v1 h-8 z M207 59 h8 v1 h-8 z M219 59 h4 v1 h-4 z M227 59 h4 v1 h-4 z M235 59 h4 v1 h-4 z M255 59 h4 v1 h-4 z M263 59 h4 v1 h-4 z M283 59 h4 v1 h-4 z M291 59 h4 v1 h-4 z M311 59 h4 v1 h-4 z M319 59 h12 v1 h-12 z M335 59 h4 v1 h-4 z M347 59 h4 v1 h-4 z M367 59 h4 v1 h-4 z M375 59 h8 v1 h-8 z M391 59 h8 v1 h-8 z M403 59 h4 v1 h-4 z M411 59 h4 v1 h-4 z M35 60 h4 v1 h-4 z M43 60 h4 v1 h-4 z M59 60 h8 v1 h-8 z M71 60 h4 v1 h-4 z M79 60 h4 v1 h-4 z M91 60 h12 v1 h-12 z M107 60 h4 v1 h-4 z M115 60 h16 v1 h-16 z M135 60 h16 v1 h-16 z M155 60 h4 v1 h-4 z M171 60 h4 v1 h-4 z M183 60 h4 v1 h-4 z M191 60 h8 v1 h-8 z M207 60 h8 v1 h-8 z M219 60 h4 v1 h-4 z M227 60 h4 v1 h-4 z M235 60 h4 v1 h-4 z M255 60 h4 v1 h-4 z M263 60 h4 v1 h-4 z M283 60 h4 v1 h-4 z M291 60 h4 v1 h-4 z M311 60 h4 v1 h-4 z M319 60 h12 v1 h-12 z M335 60 h4 v1 h-4 z M347 60 h4 v1 h-4 z M367 60 h4 v1 h-4 z M375 60 h8 v1 h-8 z M391 60 h8 v1 h-8 z M403 60 h4 v1 h-4 z M411 60 h4 v1 h-4 z M35 61 h4 v1 h-4 z M43 61 h4 v1 h-4 z M59 61 h8 v1 h-8 z M71 61 h4 v1 h-4 z M79 61 h4 v1 h-4 z M91 61 h12 v1 h-12 z M107 61 h4 v1 h-4 z M115 61 h16 v1 h-16 z M135 61 h16 v1 h-16 z M155 61 h4 v1 h-4 z M171 61 h4 v1 h-4 z M183 61 h4 v1 h-4 z M191 61 h8 v1 h-8 z M207 61 h8 v1 h-8 z M219 61 h4 v1 h-4 z M227 61 h4 v1 h-4 z M235 61 h4 v1 h-4 z M255 61 h4 v1 h-4 z M263 61 h4 v1 h-4 z M283 61 h4 v1 h-4 z M291 61 h4 v1 h-4 z M311 61 h4 v1 h-4 z M319 61 h12 v1 h-12 z M335 61 h4 v1 h-4 z M347 61 h4 v1 h-4 z M367 61 h4 v1 h-4 z M375 61 h8 v1 h-8 z M391 61 h8 v1 h-8 z M403 61 h4 v1 h-4 z M411 61 h4 v1 h-4 z M35 62 h4 v1 h-4 z M43 62 h4 v1 h-4 z M59 62 h8 v1 h-8 z M71 62 h4 v1 h-4 z M79 62 h4 v1 h-4 z M91 62 h12 v1 h-12 z M107 62 h4 v1 h-4 z M115 62 h16 v1 h-16 z M135 62 h16 v1 h-16 z M155 62 h4 v1 h-4 z M171 62 h4 v1 h-4 z M183 62 h4 v1 h-4 z M191 62 h8 v1 h-8 z M207 62 h8 v1 h-8 z M219 62 h4 v1 h-4 z M227 62 h4 v1 h-4 z M235 62 h4 v1 h-4 z M255 62 h4 v1 h-4 z M263 62 h4 v1 h-4 z M283 62 h4 v1 h-4 z M291 62 h4 v1 h-4 z M311 62 h4 v1 h-4 z M319 62 h12 v1 h-12 z M335 62 h4 v1 h-4 z M347 62 h4 v1 h-4 z M367 62 h4 v1 h-4 z M375 62 h8 v1 h-8 z M391 62 h8 v1 h-8 z M403 62 h4 v1 h-4 z M411 62 h4 v1 h-4 z M35 63 h4 v1 h-4 z M43 63 h4 v1 h-4 z M59 63 h8 v1 h-8 z M71 63 h4 v1 h-4 z M79 63 h4 v1 h-4 z M91 63 h12 v1 h-12 z M107 63 h4 v1 h-4 z M115 63 h16 v1 h-16 z M135 63 h16 v1 h-16 z M155 63 h4 v1 h-4 z M171 63 h4 v1 h-4 z M183 63 h4 v1 h-4 z M191 63 h8 v1 h-8 z M207 63 h8 v1 h-8 z M219 63 h4 v1 h-4 z M227 63 h4 v1 h-4 z M235 63 h4 v1 h-4 z M255 63 h4 v1 h-4 z M263 63 h4 v1 h-4 z M283 63 h4 v1 h-4 z M291 63 h4 v1 h-4 z M311 63 h4 v1 h-4 z M319 63 h12 v1 h-12 z M335 63 h4 v1 h-4 z M347 63 h4 v1 h-4 z M367 63 h4 v1 h-4 z M375 63 h8 v1 h-8 z M391 63 h8 v1 h-8 z M403 63 h4 v1 h-4 z M411 63 h4 v1 h-4 z M35 64 h4 v1 h-4 z M43 64 h4 v1 h-4 z M59 64 h8 v1 h-8 z M71 64 h4 v1 h-4 z M79 64 h4 v1 h-4 z M91 64 h12 v1 h-12 z M107 64 h4 v1 h-4 z M115 64 h16 v1 h-16 z M135 64 h16 v1 h-16 z M155 64 h4 v1 h-4 z M171 64 h4 v1 h-4 z M183 64 h4 v1 h-4 z M191 64 h8 v1 h-8 z M207 64 h8 v1 h-8 z M219 64 h4 v1 h-4 z M227 64 h4 v1 h-4 z M235 64 h4 v1 h-4 z M255 64 h4 v1 h-4 z M263 64 h4 v1 h-4 z M283 64 h4 v1 h-4 z M291 64 h4 v1 h-4 z M311 64 h4 v1 h-4 z M319 64 h12 v1 h-12 z M335 64 h4 v1 h-4 z M347 64 h4 v1 h-4 z M367 64 h4 v1 h-4 z M375 64 h8 v1 h-8 z M391 64 h8 v1 h-8 z M403 64 h4 v1 h-4 z M411 64 h4 v1 h-4 z M35 65 h4 v1 h-4 z M43 65 h4 v1 h-4 z M59 65 h8 v1 h-8 z M71 65 h4 v1 h-4 z M79 65 h4 v1 h-4 z M91 65 h12 v1 h-12 z M107 65 h4 v1 h-4 z M115 65 h16 v1 h-16 z M135 65 h16 v1 h-16 z M155 65 h4 v1 h-4 z M171 65 h4 v1 h-4 z M183 65 h4 v1 h-4 z M191 65 h8 v1 h-8 z M207 65 h8 v1 h-8 z M219 65 h4 v1 h-4 z M227 65 h4 v1 h-4 z M235 65 h4 v1 h-4 z M255 65 h4 v1 h-4 z M263 65 h4 v1 h-4 z M283 65 h4 v1 h-4 z M291 65 h4 v1 h-4 z M311 65 h4 v1 h-4 z M319 65 h12 v1 h-12 z M335 65 h4 v1 h-4 z M347 65 h4 v1 h-4 z M367 65 h4 v1 h-4 z M375 65 h8 v1 h-8 z M391 65 h8 v1 h-8 z M403 65 h4 v1 h-4 z M411 65 h4 v1 h-4 z M35 66 h4 v1 h-4 z M43 66 h4 v1 h-4 z M59 66 h8 v1 h-8 z M71 66 h4 v1 h-4 z M79 66 h4 v1 h-4 z M91 66 h12 v1 h-12 z M107 66 h4 v1 h-4 z M115 66 h16 v1 h-16 z M135 66 h16 v1 h-16 z M155 66 h4 v1 h-4 z M171 66 h4 v1 h-4 z M183 66 h4 v1 h-4 z M191 66 h8 v1 h-8 z M207 66 h8 v1 h-8 z M219 66 h4 v1 h-4 z M227 66 h4 v1 h-4 z M235 66 h4 v1 h-4 z M255 66 h4 v1 h-4 z M263 66 h4 v1 h-4 z M283 66 h4 v1 h-4 z M291 66 h4 v1 h-4 z M311 66 h4 v1 h-4 z M319 66 h12 v1 h-12 z M335 66 h4 v1 h-4 z M347 66 h4 v1 h-4 z M367 66 h4 v1 h-4 z M375 66 h8 v1 h-8 z M391 66 h8 v1 h-8 z M403 66 h4 v1 h-4 z M411 66 h4 v1 h-4 z M35 67 h4 v1 h-4 z M43 67 h4 v1 h-4 z M59 67 h8 v1 h-8 z M71 67 h4 v1 h-4 z M79 67 h4 v1 h-4 z M91 67 h12 v1 h-12 z M107 67 h4 v1 h-4 z M115 67 h16 v1 h-16 z M135 67 h16 v1 h-16 z M155 67 h4 v1 h-4 z M171 67 h4 v1 h-4 z M183 67 h4 v1 h-4 z M191 67 h8 v1 h-8 z M207 67 h8 v1 h-8 z M219 67 h4 v1 h-4 z M227 67 h4 v1 h-4 z M235 67 h4 v1 h-4 z M255 67 h4 v1 h-4 z M263 67 h4 v1 h-4 z M283 67 h4 v1 h-4 z M291 67 h4 v1 h-4 z M311 67 h4 v1 h-4 z M319 67 h12 v1 h-12 z M335 67 h4 v1 h-4 z M347 67 h4 v1 h-4 z M367 67 h4 v1 h-4 z M375 67 h8 v1 h-8 z M391 67 h8 v1 h-8 z M403 67 h4 v1 h-4 z M411 67 h4 v1 h-4 z M35 68 h4 v1 h-4 z M43 68 h4 v1 h-4 z M59 68 h8 v1 h-8 z M71 68 h4 v1 h-4 z M79 68 h4 v1 h-4 z M91 68 h12 v1 h-12 z M107 68 h4 v1 h-4 z M115 68 h16 v1 h-16 z M135 68 h16 v1 h-16 z M155 68 h4 v1 h-4 z M171 68 h4 v1 h-4 z M183 68 h4 v1 h-4 z M191 68 h8 v1 h-8 z M207 68 h8 v1 h-8 z M219 68 h4 v1 h-4 z M227 68 h4 v1 h-4 z M235 68 h4 v1 h-4 z M255 68 h4 v1 h-4 z M263 68 h4 v1 h-4 z M283 68 h4 v1 h-4 z M291 68 h4 v1 h-4 z M311 68 h4 v1 h-4 z M319 68 h12 v1 h-12 z M335 68 h4 v1 h-4 z M347 68 h4 v1 h-4 z M367 68 h4 v1 h-4 z M375 68 h8 v1 h-8 z M391 68 h8 v1 h-8 z M403 68 h4 v1 h-4 z M411 68 h4 v1 h-4 z M35 69 h4 v1 h-4 z M43 69 h4 v1 h-4 z M59 69 h8 v1 h-8 z M71 69 h4 v1 h-4 z M79 69 h4 v1 h-4 z M91 69 h12 v1 h-12 z M107 69 h4 v1 h-4 z M115 69 h16 v1 h-16 z M135 69 h16 v1 h-16 z M155 69 h4 v1 h-4 z M171 69 h4 v1 h-4 z M183 69 h4 v1 h-4 z M191 69 h8 v1 h-8 z M207 69 h8 v1 h-8 z M219 69 h4 v1 h-4 z M227 69 h4 v1 h-4 z M235 69 h4 v1 h-4 z M255 69 h4 v1 h-4 z M263 69 h4 v1 h-4 z M283 69 h4 v1 h-4 z M291 69 h4 v1 h-4 z M311 69 h4 v1 h-4 z M319 69 h12 v1 h-12 z M335 69 h4 v1 h-4 z M347 69 h4 v1 h-4 z M367 69 h4 v1 h-4 z M375 69 h8 v1 h-8 z M391 69 h8 v1 h-8 z M403 69 h4 v1 h-4 z M411 69 h4 v1 h-4 z M35 70 h4 v1 h-4 z M43 70 h4 v1 h-4 z M59 70 h8 v1 h-8 z M71 70 h4 v1 h-4 z M79 70 h4 v1 h-4 z M91 70 h12 v1 h-12 z M107 70 h4 v1 h-4 z M115 70 h16 v1 h-16 z M135 70 h16 v1 h-16 z M155 70 h4 v1 h-4 z M171 70 h4 v1 h-4 z M183 70 h4 v1 h-4 z M191 70 h8 v1 h-8 z M207 70 h8 v1 h-8 z M219 70 h4 v1 h-4 z M227 70 h4 v1 h-4 z M235 70 h4 v1 h-4 z M255 70 h4 v1 h-4 z M263 70 h4 v1 h-4 z M283 70 h4 v1 h-4 z M291 70 h4 v1 h-4 z M311 70 h4 v1 h-4 z M319 70 h12 v1 h-12 z M335 70 h4 v1 h-4 z M347 70 h4 v1 h-4 z M367 70 h4 v1 h-4 z M375 70 h8 v1 h-8 z M391 70 h8 v1 h-8 z M403 70 h4 v1 h-4 z M411 70 h4 v1 h-4 z M35 71 h4 v1 h-4 z M43 71 h4 v1 h-4 z M59 71 h8 v1 h-8 z M71 71 h4 v1 h-4 z M79 71 h4 v1 h-4 z M91 71 h12 v1 h-12 z M107 71 h4 v1 h-4 z M115 71 h16 v1 h-16 z M135 71 h16 v1 h-16 z M155 71 h4 v1 h-4 z M171 71 h4 v1 h-4 z M183 71 h4 v1 h-4 z M191 71 h8 v1 h-8 z M207 71 h8 v1 h-8 z M219 71 h4 v1 h-4 z M227 71 h4 v1 h-4 z M235 71 h4 v1 h-4 z M255 71 h4 v1 h-4 z M263 71 h4 v1 h-4 z M283 71 h4 v1 h-4 z M291 71 h4 v1 h-4 z M311 71 h4 v1 h-4 z M319 71 h12 v1 h-12 z M335 71 h4 v1 h-4 z M347 71 h4 v1 h-4 z M367 71 h4 v1 h-4 z M375 71 h8 v1 h-8 z M391 71 h8 v1 h-8 z M403 71 h4 v1 h-4 z M411 71 h4 v1 h-4 z M35 72 h4 v1 h-4 z M43 72 h4 v1 h-4 z M59 72 h8 v1 h-8 z M71 72 h4 v1 h-4 z M79 72 h4 v1 h-4 z M91 72 h12 v1 h-12 z M107 72 h4 v1 h-4 z M115 72 h16 v1 h-16 z M135 72 h16 v1 h-16 z M155 72 h4 v1 h-4 z M171 72 h4 v1 h-4 z M183 72 h4 v1 h-4 z M191 72 h8 v1 h-8 z M207 72 h8 v1 h-8 z M219 72 h4 v1 h-4 z M227 72 h4 v1 h-4 z M235 72 h4 v1 h-4 z M255 72 h4 v1 h-4 z M263 72 h4 v1 h-4 z M283 72 h4 v1 h-4 z M291 72 h4 v1 h-4 z M311 72 h4 v1 h-4 z M319 72 h12 v1 h-12 z M335 72 h4 v1 h-4 z M347 72 h4 v1 h-4 z M367 72 h4 v1 h-4 z M375 72 h8 v1 h-8 z M391 72 h8 v1 h-8 z M403 72 h4 v1 h-4 z M411 72 h4 v1 h-4 z M35 73 h4 v1 h-4 z M43 73 h4 v1 h-4 z M59 73 h8 v1 h-8 z M71 73 h4 v1 h-4 z M79 73 h4 v1 h-4 z M91 73 h12 v1 h-12 z M107 73 h4 v1 h-4 z M115 73 h16 v1 h-16 z M135 73 h16 v1 h-16 z M155 73 h4 v1 h-4 z M171 73 h4 v1 h-4 z M183 73 h4 v1 h-4 z M191 73 h8 v1 h-8 z M207 73 h8 v1 h-8 z M219 73 h4 v1 h-4 z M227 73 h4 v1 h-4 z M235 73 h4 v1 h-4 z M255 73 h4 v1 h-4 z M263 73 h4 v1 h-4 z M283 73 h4 v1 h-4 z M291 73 h4 v1 h-4 z M311 73 h4 v1 h-4 z M319 73 h12 v1 h-12 z M335 73 h4 v1 h-4 z M347 73 h4 v1 h-4 z M367 73 h4 v1 h-4 z M375 73 h8 v1 h-8 z M391 73 h8 v1 h-8 z M403 73 h4 v1 h-4 z M411 73 h4 v1 h-4 z M35 74 h4 v1 h-4 z M43 74 h4 v1 h-4 z M59 74 h8 v1 h-8 z M71 74 h4 v1 h-4 z M79 74 h4 v1 h-4 z M91 74 h12 v1 h-12 z M107 74 h4 v1 h-4 z M115 74 h16 v1 h-16 z M135 74 h16 v1 h-16 z M155 74 h4 v1 h-4 z M171 74 h4 v1 h-4 z M183 74 h4 v1 h-4 z M191 74 h8 v1 h-8 z M207 74 h8 v1 h-8 z M219 74 h4 v1 h-4 z M227 74 h4 v1 h-4 z M235 74 h4 v1 h-4 z M255 74 h4 v1 h-4 z M263 74 h4 v1 h-4 z M283 74 h4 v1 h-4 z M291 74 h4 v1 h-4 z M311 74 h4 v1 h-4 z M319 74 h12 v1 h-12 z M335 74 h4 v1 h-4 z M347 74 h4 v1 h-4 z M367 74 h4 v1 h-4 z M375 74 h8 v1 h-8 z M391 74 h8 v1 h-8 z M403 74 h4 v1 h-4 z M411 74 h4 v1 h-4 z M35 75 h4 v1 h-4 z M43 75 h4 v1 h-4 z M59 75 h8 v1 h-8 z M71 75 h4 v1 h-4 z M79 75 h4 v1 h-4 z M91 75 h12 v1 h-12 z M107 75 h4 v1 h-4 z M115 75 h16 v1 h-16 z M135 75 h16 v1 h-16 z M155 75 h4 v1 h-4 z M171 75 h4 v1 h-4 z M183 75 h4 v1 h-4 z M191 75 h8 v1 h-8 z M207 75 h8 v1 h-8 z M219 75 h4 v1 h-4 z M227 75 h4 v1 h-4 z M235 75 h4 v1 h-4 z M255 75 h4 v1 h-4 z M263 75 h4 v1 h-4 z M283 75 h4 v1 h-4 z M291 75 h4 v1 h-4 z M311 75 h4 v1 h-4 z M319 75 h12 v1 h-12 z M335 75 h4 v1 h-4 z M347 75 h4 v1 h-4 z M367 75 h4 v1 h-4 z M375 75 h8 v1 h-8 z M391 75 h8 v1 h-8 z M403 75 h4 v1 h-4 z M411 75 h4 v1 h-4 z M35 76 h4 v1 h-4 z M43 76 h4 v1 h-4 z M59 76 h8 v1 h-8 z M71 76 h4 v1 h-4 z M79 76 h4 v1 h-4 z M91 76 h12 v1 h-12 z M107 76 h4 v1 h-4 z M115 76 h16 v1 h-16 z M135 76 h16 v1 h-16 z M155 76 h4 v1 h-4 z M171 76 h4 v1 h-4 z M183 76 h4 v1 h-4 z M191 76 h8 v1 h-8 z M207 76 h8 v1 h-8 z M219 76 h4 v1 h-4 z M227 76 h4 v1 h-4 z M235 76 h4 v1 h-4 z M255 76 h4 v1 h-4 z M263 76 h4 v1 h-4 z M283 76 h4 v1 h-4 z M291 76 h4 v1 h-4 z M311 76 h4 v1 h-4 z M319 76 h12 v1 h-12 z M335 76 h4 v1 h-4 z M347 76 h4 v1 h-4 z M367 76 h4 v1 h-4 z M375 76 h8 v1 h-8 z M391 76 h8 v1 h-8 z M403 76 h4 v1 h-4 z M411 76 h4 v1 h-4 z M35 77 h4 v1 h-4 z M43 77 h4 v1 h-4 z M59 77 h8 v1 h-8 z M71 77 h4 v1 h-4 z M79 77 h4 v1 h-4 z M91 77 h12 v1 h-12 z M107 77 h4 v1 h-4 z M115 77 h16 v1 h-16 z M135 77 h16 v1 h-16 z M155 77 h4 v1 h-4 z M171 77 h4 v1 h-4 z M183 77 h4 v1 h-4 z M191 77 h8 v1 h-8 z M207 77 h8 v1 h-8 z M219 77 h4 v1 h-4 z M227 77 h4 v1 h-4 z M235 77 h4 v1 h-4 z M255 77 h4 v1 h-4 z M263 77 h4 v1 h-4 z M283 77 h4 v1 h-4 z M291 77 h4 v1 h-4 z M311 77 h4 v1 h-4 z M319 77 h12 v1 h-12 z M335 77 h4 v1 h-4 z M347 77 h4 v1 h-4 z M367 77 h4 v1 h-4 z M375 77 h8 v1 h-8 z M391 77 h8 v1 h-8 z M403 77 h4 v1 h-4 z M411 77 h4 v1 h-4 z M35 78 h4 v1 h-4 z M43 78 h4 v1 h-4 z M59 78 h8 v1 h-8 z M71 78 h4 v1 h-4 z M79 78 h4 v1 h-4 z M91 78 h12 v1 h-12 z M107 78 h4 v1 h-4 z M115 78 h16 v1 h-16 z M135 78 h16 v1 h-16 z M155 78 h4 v1 h-4 z M171 78 h4 v1 h-4 z M183 78 h4 v1 h-4 z M191 78 h8 v1 h-8 z M207 78 h8 v1 h-8 z M219 78 h4 v1 h-4 z M227 78 h4 v1 h-4 z M235 78 h4 v1 h-4 z M255 78 h4 v1 h-4 z M263 78 h4 v1 h-4 z M283 78 h4 v1 h-4 z M291 78 h4 v1 h-4 z M311 78 h4 v1 h-4 z M319 78 h12 v1 h-12 z M335 78 h4 v1 h-4 z M347 78 h4 v1 h-4 z M367 78 h4 v1 h-4 z M375 78 h8 v1 h-8 z M391 78 h8 v1 h-8 z M403 78 h4 v1 h-4 z M411 78 h4 v1 h-4 z M35 79 h4 v1 h-4 z M43 79 h4 v1 h-4 z M59 79 h8 v1 h-8 z M71 79 h4 v1 h-4 z M79 79 h4 v1 h-4 z M91 79 h12 v1 h-12 z M107 79 h4 v1 h-4 z M115 79 h16 v1 h-16 z M135 79 h16 v1 h-16 z M155 79 h4 v1 h-4 z M171 79 h4 v1 h-4 z M183 79 h4 v1 h-4 z M191 79 h8 v1 h-8 z M207 79 h8 v1 h-8 z M219 79 h4 v1 h-4 z M227 79 h4 v1 h-4 z M235 79 h4 v1 h-4 z M255 79 h4 v1 h-4 z M263 79 h4 v1 h-4 z M283 79 h4 v1 h-4 z M291 79 h4 v1 h-4 z M311 79 h4 v1 h-4 z M319 79 h12 v1 h-12 z M335 79 h4 v1 h-4 z M347 79 h4 v1 h-4 z M367 79 h4 v1 h-4 z M375 79 h8 v1 h-8 z M391 79 h8 v1 h-8 z M403 79 h4 v1 h-4 z M411 79 h4 v1 h-4 z M35 80 h4 v1 h-4 z M43 80 h4 v1 h-4 z M59 80 h8 v1 h-8 z M71 80 h4 v1 h-4 z M79 80 h4 v1 h-4 z M91 80 h12 v1 h-12 z M107 80 h4 v1 h-4 z M115 80 h16 v1 h-16 z M135 80 h16 v1 h-16 z M155 80 h4 v1 h-4 z M171 80 h4 v1 h-4 z M183 80 h4 v1 h-4 z M191 80 h8 v1 h-8 z M207 80 h8 v1 h-8 z M219 80 h4 v1 h-4 z M227 80 h4 v1 h-4 z M235 80 h4 v1 h-4 z M255 80 h4 v1 h-4 z M263 80 h4 v1 h-4 z M283 80 h4 v1 h-4 z M291 80 h4 v1 h-4 z M311 80 h4 v1 h-4 z M319 80 h12 v1 h-12 z M335 80 h4 v1 h-4 z M347 80 h4 v1 h-4 z M367 80 h4 v1 h-4 z M375 80 h8 v1 h-8 z M391 80 h8 v1 h-8 z M403 80 h4 v1 h-4 z M411 80 h4 v1 h-4 z M35 81 h4 v1 h-4 z M43 81 h4 v1 h-4 z M59 81 h8 v1 h-8 z M71 81 h4 v1 h-4 z M79 81 h4 v1 h-4 z M91 81 h12 v1 h-12 z M107 81 h4 v1 h-4 z M115 81 h16 v1 h-16 z M135 81 h16 v1 h-16 z M155 81 h4 v1 h-4 z M171 81 h4 v1 h-4 z M183 81 h4 v1 h-4 z M191 81 h8 v1 h-8 z M207 81 h8 v1 h-8 z M219 81 h4 v1 h-4 z M227 81 h4 v1 h-4 z M235 81 h4 v1 h-4 z M255 81 h4 v1 h-4 z M263 81 h4 v1 h-4 z M283 81 h4 v1 h-4 z M291 81 h4 v1 h-4 z M311 81 h4 v1 h-4 z M319 81 h12 v1 h-12 z M335 81 h4 v1 h-4 z M347 81 h4 v1 h-4 z M367 81 h4 v1 h-4 z M375 81 h8 v1 h-8 z M391 81 h8 v1 h-8 z M403 81 h4 v1 h-4 z M411 81 h4 v1 h-4 z M35 82 h4 v1 h-4 z M43 82 h4 v1 h-4 z M59 82 h8 v1 h-8 z M71 82 h4 v1 h-4 z M79 82 h4 v1 h-4 z M91 82 h12 v1 h-12 z M107 82 h4 v1 h-4 z M115 82 h16 v1 h-16 z M135 82 h16 v1 h-16 z M155 82 h4 v1 h-4 z M171 82 h4 v1 h-4 z M183 82 h4 v1 h-4 z M191 82 h8 v1 h-8 z M207 82 h8 v1 h-8 z M219 82 h4 v1 h-4 z M227 82 h4 v1 h-4 z M235 82 h4 v1 h-4 z M255 82 h4 v1 h-4 z M263 82 h4 v1 h-4 z M283 82 h4 v1 h-4 z M291 82 h4 v1 h-4 z M311 82 h4 v1 h-4 z M319 82 h12 v1 h-12 z M335 82 h4 v1 h-4 z M347 82 h4 v1 h-4 z M367 82 h4 v1 h-4 z M375 82 h8 v1 h-8 z M391 82 h8 v1 h-8 z M403 82 h4 v1 h-4 z M411 82 h4 v1 h-4 z M35 83 h4 v1 h-4 z M43 83 h4 v1 h-4 z M59 83 h8 v1 h-8 z M71 83 h4 v1 h-4 z M79 83 h4 v1 h-4 z M91 83 h12 v1 h-12 z M107 83 h4 v1 h-4 z M115 83 h16 v1 h-16 z M135 83 h16 v1 h-16 z M155 83 h4 v1 h-4 z M171 83 h4 v1 h-4 z M183 83 h4 v1 h-4 z M191 83 h8 v1 h-8 z M207 83 h8 v1 h-8 z M219 83 h4 v1 h-4 z M227 83 h4 v1 h-4 z M235 83 h4 v1 h-4 z M255 83 h4 v1 h-4 z M263 83 h4 v1 h-4 z M283 83 h4 v1 h-4 z M291 83 h4 v1 h-4 z M311 83 h4 v1 h-4 z M319 83 h12 v1 h-12 z M335 83 h4 v1 h-4 z M347 83 h4 v1 h-4 z M367 83 h4 v1 h-4 z M375 83 h8 v1 h-8 z M391 83 h8 v1 h-8 z M403 83 h4 v1 h-4 z M411 83 h4 v1 h-4 z M35 84 h4 v1 h-4 z M43 84 h4 v1 h-4 z M59 84 h8 v1 h-8 z M71 84 h4 v1 h-4 z M79 84 h4 v1 h-4 z M91 84 h12 v1 h-12 z M107 84 h4 v1 h-4 z M115 84 h16 v1 h-16 z M135 84 h16 v1 h-16 z M155 84 h4 v1 h-4 z M171 84 h4 v1 h-4 z M183 84 h4 v1 h-4 z M191 84 h8 v1 h-8 z M207 84 h8 v1 h-8 z M219 84 h4 v1 h-4 z M227 84 h4 v1 h-4 z M235 84 h4 v1 h-4 z M255 84 h4 v1 h-4 z M263 84 h4 v1 h-4 z M283 84 h4 v1 h-4 z M291 84 h4 v1 h-4 z M311 84 h4 v1 h-4 z M319 84 h12 v1 h-12 z M335 84 h4 v1 h-4 z M347 84 h4 v1 h-4 z M367 84 h4 v1 h-4 z M375 84 h8 v1 h-8 z M391 84 h8 v1 h-8 z M403 84 h4 v1 h-4 z M411 84 h4 v1 h-4 z M35 85 h4 v1 h-4 z M43 85 h4 v1 h-4 z M59 85 h8 v1 h-8 z M71 85 h4 v1 h-4 z M79 85 h4 v1 h-4 z M91 85 h12 v1 h-12 z M107 85 h4 v1 h-4 z M115 85 h16 v1 h-16 z M135 85 h16 v1 h-16 z M155 85 h4 v1 h-4 z M171 85 h4 v1 h-4 z M183 85 h4 v1 h-4 z M191 85 h8 v1 h-8 z M207 85 h8 v1 h-8 z M219 85 h4 v1 h-4 z M227 85 h4 v1 h-4 z M235 85 h4 v1 h-4 z M255 85 h4 v1 h-4 z M263 85 h4 v1 h-4 z M283 85 h4 v1 h-4 z M291 85 h4 v1 h-4 z M311 85 h4 v1 h-4 z M319 85 h12 v1 h-12 z M335 85 h4 v1 h-4 z M347 85 h4 v1 h-4 z M367 85 h4 v1 h-4 z M375 85 h8 v1 h-8 z M391 85 h8 v1 h-8 z M403 85 h4 v1 h-4 z M411 85 h4 v1 h-4 z M35 86 h4 v1 h-4 z M43 86 h4 v1 h-4 z M59 86 h8 v1 h-8 z M71 86 h4 v1 h-4 z M79 86 h4 v1 h-4 z M91 86 h12 v1 h-12 z M107 86 h4 v1 h-4 z M115 86 h16 v1 h-16 z M135 86 h16 v1 h-16 z M155 86 h4 v1 h-4 z M171 86 h4 v1 h-4 z M183 86 h4 v1 h-4 z M191 86 h8 v1 h-8 z M207 86 h8 v1 h-8 z M219 86 h4 v1 h-4 z M227 86 h4 v1 h-4 z M235 86 h4 v1 h-4 z M255 86 h4 v1 h-4 z M263 86 h4 v1 h-4 z M283 86 h4 v1 h-4 z M291 86 h4 v1 h-4 z M311 86 h4 v1 h-4 z M319 86 h12 v1 h-12 z M335 86 h4 v1 h-4 z M347 86 h4 v1 h-4 z M367 86 h4 v1 h-4 z M375 86 h8 v1 h-8 z M391 86 h8 v1 h-8 z M403 86 h4 v1 h-4 z M411 86 h4 v1 h-4 z M35 87 h4 v1 h-4 z M43 87 h4 v1 h-4 z M59 87 h8 v1 h-8 z M71 87 h4 v1 h-4 z M79 87 h4 v1 h-4 z M91 87 h12 v1 h-12 z M107 87 h4 v1 h-4 z M115 87 h16 v1 h-16 z M135 87 h16 v1 h-16 z M155 87 h4 v1 h-4 z M171 87 h4 v1 h-4 z M183 87 h4 v1 h-4 z M191 87 h8 v1 h-8 z M207 87 h8 v1 h-8 z M219 87 h4 v1 h-4 z M227 87 h4 v1 h-4 z M235 87 h4 v1 h-4 z M255 87 h4 v1 h-4 z M263 87 h4 v1 h-4 z M283 87 h4 v1 h-4 z M291 87 h4 v1 h-4 z M311 87 h4 v1 h-4 z M319 87 h12 v1 h-12 z M335 87 h4 v1 h-4 z M347 87 h4 v1 h-4 z M367 87 h4 v1 h-4 z M375 87 h8 v1 h-8 z M391 87 h8 v1 h-8 z M403 87 h4 v1 h-4 z M411 87 h4 v1 h-4 z M35 88 h4 v1 h-4 z M43 88 h4 v1 h-4 z M59 88 h8 v1 h-8 z M71 88 h4 v1 h-4 z M79 88 h4 v1 h-4 z M91 88 h12 v1 h-12 z M107 88 h4 v1 h-4 z M115 88 h16 v1 h-16 z M135 88 h16 v1 h-16 z M155 88 h4 v1 h-4 z M171 88 h4 v1 h-4 z M183 88 h4 v1 h-4 z M191 88 h8 v1 h-8 z M207 88 h8 v1 h-8 z M219 88 h4 v1 h-4 z M227 88 h4 v1 h-4 z M235 88 h4 v1 h-4 z M255 88 h4 v1 h-4 z M263 88 h4 v1 h-4 z M283 88 h4 v1 h-4 z M291 88 h4 v1 h-4 z M311 88 h4 v1 h-4 z M319 88 h12 v1 h-12 z M335 88 h4 v1 h-4 z M347 88 h4 v1 h-4 z M367 88 h4 v1 h-4 z M375 88 h8 v1 h-8 z M391 88 h8 v1 h-8 z M403 88 h4 v1 h-4 z M411 88 h4 v1 h-4 z M35 89 h4 v1 h-4 z M43 89 h4 v1 h-4 z M59 89 h8 v1 h-8 z M71 89 h4 v1 h-4 z M79 89 h4 v1 h-4 z M91 89 h12 v1 h-12 z M107 89 h4 v1 h-4 z M115 89 h16 v1 h-16 z M135 89 h16 v1 h-16 z M155 89 h4 v1 h-4 z M171 89 h4 v1 h-4 z M183 89 h4 v1 h-4 z M191 89 h8 v1 h-8 z M207 89 h8 v1 h-8 z M219 89 h4 v1 h-4 z M227 89 h4 v1 h-4 z M235 89 h4 v1 h-4 z M255 89 h4 v1 h-4 z M263 89 h4 v1 h-4 z M283 89 h4 v1 h-4 z M291 89 h4 v1 h-4 z M311 89 h4 v1 h-4 z M319 89 h12 v1 h-12 z M335 89 h4 v1 h-4 z M347 89 h4 v1 h-4 z M367 89 h4 v1 h-4 z M375 89 h8 v1 h-8 z M391 89 h8 v1 h-8 z M403 89 h4 v1 h-4 z M411 89 h4 v1 h-4 z M35 90 h4 v1 h-4 z M43 90 h4 v1 h-4 z M59 90 h8 v1 h-8 z M71 90 h4 v1 h-4 z M79 90 h4 v1 h-4 z M91 90 h12 v1 h-12 z M107 90 h4 v1 h-4 z M115 90 h16 v1 h-16 z M135 90 h16 v1 h-16 z M155 90 h4 v1 h-4 z M171 90 h4 v1 h-4 z M183 90 h4 v1 h-4 z M191 90 h8 v1 h-8 z M207 90 h8 v1 h-8 z M219 90 h4 v1 h-4 z M227 90 h4 v1 h-4 z M235 90 h4 v1 h-4 z M255 90 h4 v1 h-4 z M263 90 h4 v1 h-4 z M283 90 h4 v1 h-4 z M291 90 h4 v1 h-4 z M311 90 h4 v1 h-4 z M319 90 h12 v1 h-12 z M335 90 h4 v1 h-4 z M347 90 h4 v1 h-4 z M367 90 h4 v1 h-4 z M375 90 h8 v1 h-8 z M391 90 h8 v1 h-8 z M403 90 h4 v1 h-4 z M411 90 h4 v1 h-4 z M35 91 h4 v1 h-4 z M43 91 h4 v1 h-4 z M59 91 h8 v1 h-8 z M71 91 h4 v1 h-4 z M79 91 h4 v1 h-4 z M91 91 h12 v1 h-12 z M107 91 h4 v1 h-4 z M115 91 h16 v1 h-16 z M135 91 h16 v1 h-16 z M155 91 h4 v1 h-4 z M171 91 h4 v1 h-4 z M183 91 h4 v1 h-4 z M191 91 h8 v1 h-8 z M207 91 h8 v1 h-8 z M219 91 h4 v1 h-4 z M227 91 h4 v1 h-4 z M235 91 h4 v1 h-4 z M255 91 h4 v1 h-4 z M263 91 h4 v1 h-4 z M283 91 h4 v1 h-4 z M291 91 h4 v1 h-4 z M311 91 h4 v1 h-4 z M319 91 h12 v1 h-12 z M335 91 h4 v1 h-4 z M347 91 h4 v1 h-4 z M367 91 h4 v1 h-4 z M375 91 h8 v1 h-8 z M391 91 h8 v1 h-8 z M403 91 h4 v1 h-4 z M411 91 h4 v1 h-4 z M35 92 h4 v1 h-4 z M43 92 h4 v1 h-4 z M59 92 h8 v1 h-8 z M71 92 h4 v1 h-4 z M79 92 h4 v1 h-4 z M91 92 h12 v1 h-12 z M107 92 h4 v1 h-4 z M115 92 h16 v1 h-16 z M135 92 h16 v1 h-16 z M155 92 h4 v1 h-4 z M171 92 h4 v1 h-4 z M183 92 h4 v1 h-4 z M191 92 h8 v1 h-8 z M207 92 h8 v1 h-8 z M219 92 h4 v1 h-4 z M227 92 h4 v1 h-4 z M235 92 h4 v1 h-4 z M255 92 h4 v1 h-4 z M263 92 h4 v1 h-4 z M283 92 h4 v1 h-4 z M291 92 h4 v1 h-4 z M311 92 h4 v1 h-4 z M319 92 h12 v1 h-12 z M335 92 h4 v1 h-4 z M347 92 h4 v1 h-4 z M367 92 h4 v1 h-4 z M375 92 h8 v1 h-8 z M391 92 h8 v1 h-8 z M403 92 h4 v1 h-4 z M411 92 h4 v1 h-4 z M35 93 h4 v1 h-4 z M43 93 h4 v1 h-4 z M59 93 h8 v1 h-8 z M71 93 h4 v1 h-4 z M79 93 h4 v1 h-4 z M91 93 h12 v1 h-12 z M107 93 h4 v1 h-4 z M115 93 h16 v1 h-16 z M135 93 h16 v1 h-16 z M155 93 h4 v1 h-4 z M171 93 h4 v1 h-4 z M183 93 h4 v1 h-4 z M191 93 h8 v1 h-8 z M207 93 h8 v1 h-8 z M219 93 h4 v1 h-4 z M227 93 h4 v1 h-4 z M235 93 h4 v1 h-4 z M255 93 h4 v1 h-4 z M263 93 h4 v1 h-4 z M283 93 h4 v1 h-4 z M291 93 h4 v1 h-4 z M311 93 h4 v1 h-4 z M319 93 h12 v1 h-12 z M335 93 h4 v1 h-4 z M347 93 h4 v1 h-4 z M367 93 h4 v1 h-4 z M375 93 h8 v1 h-8 z M391 93 h8 v1 h-8 z M403 93 h4 v1 h-4 z M411 93 h4 v1 h-4 z M35 94 h4 v1 h-4 z M43 94 h4 v1 h-4 z M59 94 h8 v1 h-8 z M71 94 h4 v1 h-4 z M79 94 h4 v1 h-4 z M91 94 h12 v1 h-12 z M107 94 h4 v1 h-4 z M115 94 h16 v1 h-16 z M135 94 h16 v1 h-16 z M155 94 h4 v1 h-4 z M171 94 h4 v1 h-4 z M183 94 h4 v1 h-4 z M191 94 h8 v1 h-8 z M207 94 h8 v1 h-8 z M219 94 h4 v1 h-4 z M227 94 h4 v1 h-4 z M235 94 h4 v1 h-4 z M255 94 h4 v1 h-4 z M263 94 h4 v1 h-4 z M283 94 h4 v1 h-4 z M291 94 h4 v1 h-4 z M311 94 h4 v1 h-4 z M319 94 h12 v1 h-12 z M335 94 h4 v1 h-4 z M347 94 h4 v1 h-4 z M367 94 h4 v1 h-4 z M375 94 h8 v1 h-8 z M391 94 h8 v1 h-8 z M403 94 h4 v1 h-4 z M411 94 h4 v1 h-4 z M35 95 h4 v1 h-4 z M43 95 h4 v1 h-4 z M59 95 h8 v1 h-8 z M71 95 h4 v1 h-4 z M79 95 h4 v1 h-4 z M91 95 h12 v1 h-12 z M107 95 h4 v1 h-4 z M115 95 h16 v1 h-16 z M135 95 h16 v1 h-16 z M155 95 h4 v1 h-4 z M171 95 h4 v1 h-4 z M183 95 h4 v1 h-4 z M191 95 h8 v1 h-8 z M207 95 h8 v1 h-8 z M219 95 h4 v1 h-4 z M227 95 h4 v1 h-4 z M235 95 h4 v1 h-4 z M255 95 h4 v1 h-4 z M263 95 h4 v1 h-4 z M283 95 h4 v1 h-4 z M291 95 h4 v1 h-4 z M311 95 h4 v1 h-4 z M319 95 h12 v1 h-12 z M335 95 h4 v1 h-4 z M347 95 h4 v1 h-4 z M367 95 h4 v1 h-4 z M375 95 h8 v1 h-8 z M391 95 h8 v1 h-8 z M403 95 h4 v1 h-4 z M411 95 h4 v1 h-4 z M35 96 h4 v1 h-4 z M43 96 h4 v1 h-4 z M59 96 h8 v1 h-8 z M71 96 h4 v1 h-4 z M79 96 h4 v1 h-4 z M91 96 h12 v1 h-12 z M107 96 h4 v1 h-4 z M115 96 h16 v1 h-16 z M135 96 h16 v1 h-16 z M155 96 h4 v1 h-4 z M171 96 h4 v1 h-4 z M183 96 h4 v1 h-4 z M191 96 h8 v1 h-8 z M207 96 h8 v1 h-8 z M219 96 h4 v1 h-4 z M227 96 h4 v1 h-4 z M235 96 h4 v1 h-4 z M255 96 h4 v1 h-4 z M263 96 h4 v1 h-4 z M283 96 h4 v1 h-4 z M291 96 h4 v1 h-4 z M311 96 h4 v1 h-4 z M319 96 h12 v1 h-12 z M335 96 h4 v1 h-4 z M347 96 h4 v1 h-4 z M367 96 h4 v1 h-4 z M375 96 h8 v1 h-8 z M391 96 h8 v1 h-8 z M403 96 h4 v1 h-4 z M411 96 h4 v1 h-4 z M35 97 h4 v1 h-4 z M43 97 h4 v1 h-4 z M59 97 h8 v1 h-8 z M71 97 h4 v1 h-4 z M79 97 h4 v1 h-4 z M91 97 h12 v1 h-12 z M107 97 h4 v1 h-4 z M115 97 h16 v1 h-16 z M135 97 h16 v1 h-16 z M155 97 h4 v1 h-4 z M171 97 h4 v1 h-4 z M183 97 h4 v1 h-4 z M191 97 h8 v1 h-8 z M207 97 h8 v1 h-8 z M219 97 h4 v1 h-4 z M227 97 h4 v1 h-4 z M235 97 h4 v1 h-4 z M255 97 h4 v1 h-4 z M263 97 h4 v1 h-4 z M283 97 h4 v1 h-4 z M291 97 h4 v1 h-4 z M311 97 h4 v1 h-4 z M319 97 h12 v1 h-12 z M335 97 h4 v1 h-4 z M347 97 h4 v1 h-4 z M367 97 h4 v1 h-4 z M375 97 h8 v1 h-8 z M391 97 h8 v1 h-8 z M403 97 h4 v1 h-4 z M411 97 h4 v1 h-4 z M35 98 h4 v1 h-4 z M43 98 h4 v1 h-4 z M59 98 h8 v1 h-8 z M71 98 h4 v1 h-4 z M79 98 h4 v1 h-4 z M91 98 h12 v1 h-12 z M107 98 h4 v1 h-4 z M115 98 h16 v1 h-16 z M135 98 h16 v1 h-16 z M155 98 h4 v1 h-4 z M171 98 h4 v1 h-4 z M183 98 h4 v1 h-4 z M191 98 h8 v1 h-8 z M207 98 h8 v1 h-8 z M219 98 h4 v1 h-4 z M227 98 h4 v1 h-4 z M235 98 h4 v1 h-4 z M255 98 h4 v1 h-4 z M263 98 h4 v1 h-4 z M283 98 h4 v1 h-4 z M291 98 h4 v1 h-4 z M311 98 h4 v1 h-4 z M319 98 h12 v1 h-12 z M335 98 h4 v1 h-4 z M347 98 h4 v1 h-4 z M367 98 h4 v1 h-4 z M375 98 h8 v1 h-8 z M391 98 h8 v1 h-8 z M403 98 h4 v1 h-4 z M411 98 h4 v1 h-4 z M35 99 h4 v1 h-4 z M43 99 h4 v1 h-4 z M59 99 h8 v1 h-8 z M71 99 h4 v1 h-4 z M79 99 h4 v1 h-4 z M91 99 h12 v1 h-12 z M107 99 h4 v1 h-4 z M115 99 h16 v1 h-16 z M135 99 h16 v1 h-16 z M155 99 h4 v1 h-4 z M171 99 h4 v1 h-4 z M183 99 h4 v1 h-4 z M191 99 h8 v1 h-8 z M207 99 h8 v1 h-8 z M219 99 h4 v1 h-4 z M227 99 h4 v1 h-4 z M235 99 h4 v1 h-4 z M255 99 h4 v1 h-4 z M263 99 h4 v1 h-4 z M283 99 h4 v1 h-4 z M291 99 h4 v1 h-4 z M311 99 h4 v1 h-4 z M319 99 h12 v1 h-12 z M335 99 h4 v1 h-4 z M347 99 h4 v1 h-4 z M367 99 h4 v1 h-4 z M375 99 h8 v1 h-8 z M391 99 h8 v1 h-8 z M403 99 h4 v1 h-4 z M411 99 h4 v1 h-4 z M35 100 h4 v1 h-4 z M43 100 h4 v1 h-4 z M59 100 h8 v1 h-8 z M71 100 h4 v1 h-4 z M79 100 h4 v1 h-4 z M91 100 h12 v1 h-12 z M107 100 h4 v1 h-4 z M115 100 h16 v1 h-16 z M135 100 h16 v1 h-16 z M155 100 h4 v1 h-4 z M171 100 h4 v1 h-4 z M183 100 h4 v1 h-4 z M191 100 h8 v1 h-8 z M207 100 h8 v1 h-8 z M219 100 h4 v1 h-4 z M227 100 h4 v1 h-4 z M235 100 h4 v1 h-4 z M255 100 h4 v1 h-4 z M263 100 h4 v1 h-4 z M283 100 h4 v1 h-4 z M291 100 h4 v1 h-4 z M311 100 h4 v1 h-4 z M319 100 h12 v1 h-12 z M335 100 h4 v1 h-4 z M347 100 h4 v1 h-4 z M367 100 h4 v1 h-4 z M375 100 h8 v1 h-8 z M391 100 h8 v1 h-8 z M403 100 h4 v1 h-4 z M411 100 h4 v1 h-4 z M35 101 h4 v1 h-4 z M43 101 h4 v1 h-4 z M59 101 h8 v1 h-8 z M71 101 h4 v1 h-4 z M79 101 h4 v1 h-4 z M91 101 h12 v1 h-12 z M107 101 h4 v1 h-4 z M115 101 h16 v1 h-16 z M135 101 h16 v1 h-16 z M155 101 h4 v1 h-4 z M171 101 h4 v1 h-4 z M183 101 h4 v1 h-4 z M191 101 h8 v1 h-8 z M207 101 h8 v1 h-8 z M219 101 h4 v1 h-4 z M227 101 h4 v1 h-4 z M235 101 h4 v1 h-4 z M255 101 h4 v1 h-4 z M263 101 h4 v1 h-4 z M283 101 h4 v1 h-4 z M291 101 h4 v1 h-4 z M311 101 h4 v1 h-4 z M319 101 h12 v1 h-12 z M335 101 h4 v1 h-4 z M347 101 h4 v1 h-4 z M367 101 h4 v1 h-4 z M375 101 h8 v1 h-8 z M391 101 h8 v1 h-8 z M403 101 h4 v1 h-4 z M411 101 h4 v1 h-4 z M35 102 h4 v1 h-4 z M43 102 h4 v1 h-4 z M59 102 h8 v1 h-8 z M71 102 h4 v1 h-4 z M79 102 h4 v1 h-4 z M91 102 h12 v1 h-12 z M107 102 h4 v1 h-4 z M115 102 h16 v1 h-16 z M135 102 h16 v1 h-16 z M155 102 h4 v1 h-4 z M171 102 h4 v1 h-4 z M183 102 h4 v1 h-4 z M191 102 h8 v1 h-8 z M207 102 h8 v1 h-8 z M219 102 h4 v1 h-4 z M227 102 h4 v1 h-4 z M235 102 h4 v1 h-4 z M255 102 h4 v1 h-4 z M263 102 h4 v1 h-4 z M283 102 h4 v1 h-4 z M291 102 h4 v1 h-4 z M311 102 h4 v1 h-4 z M319 102 h12 v1 h-12 z M335 102 h4 v1 h-4 z M347 102 h4 v1 h-4 z M367 102 h4 v1 h-4 z M375 102 h8 v1 h-8 z M391 102 h8 v1 h-8 z M403 102 h4 v1 h-4 z M411 102 h4 v1 h-4 z M35 103 h4 v1 h-4 z M43 103 h4 v1 h-4 z M59 103 h8 v1 h-8 z M71 103 h4 v1 h-4 z M79 103 h4 v1 h-4 z M91 103 h12 v1 h-12 z M107 103 h4 v1 h-4 z M115 103 h16 v1 h-16 z M135 103 h16 v1 h-16 z M155 103 h4 v1 h-4 z M171 103 h4 v1 h-4 z M183 103 h4 v1 h-4 z M191 103 h8 v1 h-8 z M207 103 h8 v1 h-8 z M219 103 h4 v1 h-4 z M227 103 h4 v1 h-4 z M235 103 h4 v1 h-4 z M255 103 h4 v1 h-4 z M263 103 h4 v1 h-4 z M283 103 h4 v1 h-4 z M291 103 h4 v1 h-4 z M311 103 h4 v1 h-4 z M319 103 h12 v1 h-12 z M335 103 h4 v1 h-4 z M347 103 h4 v1 h-4 z M367 103 h4 v1 h-4 z M375 103 h8 v1 h-8 z M391 103 h8 v1 h-8 z M403 103 h4 v1 h-4 z M411 103 h4 v1 h-4 z M35 104 h4 v1 h-4 z M43 104 h4 v1 h-4 z M59 104 h8 v1 h-8 z M71 104 h4 v1 h-4 z M79 104 h4 v1 h-4 z M91 104 h12 v1 h-12 z M107 104 h4 v1 h-4 z M115 104 h16 v1 h-16 z M135 104 h16 v1 h-16 z M155 104 h4 v1 h-4 z M171 104 h4 v1 h-4 z M183 104 h4 v1 h-4 z M191 104 h8 v1 h-8 z M207 104 h8 v1 h-8 z M219 104 h4 v1 h-4 z M227 104 h4 v1 h-4 z M235 104 h4 v1 h-4 z M255 104 h4 v1 h-4 z M263 104 h4 v1 h-4 z M283 104 h4 v1 h-4 z M291 104 h4 v1 h-4 z M311 104 h4 v1 h-4 z M319 104 h12 v1 h-12 z M335 104 h4 v1 h-4 z M347 104 h4 v1 h-4 z M367 104 h4 v1 h-4 z M375 104 h8 v1 h-8 z M391 104 h8 v1 h-8 z M403 104 h4 v1 h-4 z M411 104 h4 v1 h-4 z M35 105 h4 v1 h-4 z M43 105 h4 v1 h-4 z M59 105 h8 v1 h-8 z M71 105 h4 v1 h-4 z M79 105 h4 v1 h-4 z M91 105 h12 v1 h-12 z M107 105 h4 v1 h-4 z M115 105 h16 v1 h-16 z M135 105 h16 v1 h-16 z M155 105 h4 v1 h-4 z M171 105 h4 v1 h-4 z M183 105 h4 v1 h-4 z M191 105 h8 v1 h-8 z M207 105 h8 v1 h-8 z M219 105 h4 v1 h-4 z M227 105 h4 v1 h-4 z M235 105 h4 v1 h-4 z M255 105 h4 v1 h-4 z M263 105 h4 v1 h-4 z M283 105 h4 v1 h-4 z M291 105 h4 v1 h-4 z M311 105 h4 v1 h-4 z M319 105 h12 v1 h-12 z M335 105 h4 v1 h-4 z M347 105 h4 v1 h-4 z M367 105 h4 v1 h-4 z M375 105 h8 v1 h-8 z M391 105 h8 v1 h-8 z M403 105 h4 v1 h-4 z M411 105 h4 v1 h-4 z M35 106 h4 v1 h-4 z M43 106 h4 v1 h-4 z M59 106 h8 v1 h-8 z M71 106 h4 v1 h-4 z M79 106 h4 v1 h-4 z M91 106 h12 v1 h-12 z M107 106 h4 v1 h-4 z M115 106 h16 v1 h-16 z M135 106 h16 v1 h-16 z M155 106 h4 v1 h-4 z M171 106 h4 v1 h-4 z M183 106 h4 v1 h-4 z M191 106 h8 v1 h-8 z M207 106 h8 v1 h-8 z M219 106 h4 v1 h-4 z M227 106 h4 v1 h-4 z M235 106 h4 v1 h-4 z M255 106 h4 v1 h-4 z M263 106 h4 v1 h-4 z M283 106 h4 v1 h-4 z M291 106 h4 v1 h-4 z M311 106 h4 v1 h-4 z M319 106 h12 v1 h-12 z M335 106 h4 v1 h-4 z M347 106 h4 v1 h-4 z M367 106 h4 v1 h-4 z M375 106 h8 v1 h-8 z M391 106 h8 v1 h-8 z M403 106 h4 v1 h-4 z M411 106 h4 v1 h-4 z M35 107 h4 v1 h-4 z M43 107 h4 v1 h-4 z M59 107 h8 v1 h-8 z M71 107 h4 v1 h-4 z M79 107 h4 v1 h-4 z M91 107 h12 v1 h-12 z M107 107 h4 v1 h-4 z M115 107 h16 v1 h-16 z M135 107 h16 v1 h-16 z M155 107 h4 v1 h-4 z M171 107 h4 v1 h-4 z M183 107 h4 v1 h-4 z M191 107 h8 v1 h-8 z M207 107 h8 v1 h-8 z M219 107 h4 v1 h-4 z M227 107 h4 v1 h-4 z M235 107 h4 v1 h-4 z M255 107 h4 v1 h-4 z M263 107 h4 v1 h-4 z M283 107 h4 v1 h-4 z M291 107 h4 v1 h-4 z M311 107 h4 v1 h-4 z M319 107 h12 v1 h-12 z M335 107 h4 v1 h-4 z M347 107 h4 v1 h-4 z M367 107 h4 v1 h-4 z M375 107 h8 v1 h-8 z M391 107 h8 v1 h-8 z M403 107 h4 v1 h-4 z M411 107 h4 v1 h-4 z M35 108 h4 v1 h-4 z M43 108 h4 v1 h-4 z M59 108 h8 v1 h-8 z M71 108 h4 v1 h-4 z M79 108 h4 v1 h-4 z M91 108 h12 v1 h-12 z M107 108 h4 v1 h-4 z M115 108 h16 v1 h-16 z M135 108 h16 v1 h-16 z M155 108 h4 v1 h-4 z M171 108 h4 v1 h-4 z M183 108 h4 v1 h-4 z M191 108 h8 v1 h-8 z M207 108 h8 v1 h-8 z M219 108 h4 v1 h-4 z M227 108 h4 v1 h-4 z M235 108 h4 v1 h-4 z M255 108 h4 v1 h-4 z M263 108 h4 v1 h-4 z M283 108 h4 v1 h-4 z M291 108 h4 v1 h-4 z M311 108 h4 v1 h-4 z M319 108 h12 v1 h-12 z M335 108 h4 v1 h-4 z M347 108 h4 v1 h-4 z M367 108 h4 v1 h-4 z M375 108 h8 v1 h-8 z M391 108 h8 v1 h-8 z M403 108 h4 v1 h-4 z M411 108 h4 v1 h-4 z M35 109 h4 v1 h-4 z M43 109 h4 v1 h-4 z M59 109 h8 v1 h-8 z M71 109 h4 v1 h-4 z M79 109 h4 v1 h-4 z M91 109 h12 v1 h-12 z M107 109 h4 v1 h-4 z M115 109 h16 v1 h-16 z M135 109 h16 v1 h-16 z M155 109 h4 v1 h-4 z M171 109 h4 v1 h-4 z M183 109 h4 v1 h-4 z M191 109 h8 v1 h-8 z M207 109 h8 v1 h-8 z M219 109 h4 v1 h-4 z M227 109 h4 v1 h-4 z M235 109 h4 v1 h-4 z M255 109 h4 v1 h-4 z M263 109 h4 v1 h-4 z M283 109 h4 v1 h-4 z M291 109 h4 v1 h-4 z M311 109 h4 v1 h-4 z M319 109 h12 v1 h-12 z M335 109 h4 v1 h-4 z M347 109 h4 v1 h-4 z M367 109 h4 v1 h-4 z M375 109 h8 v1 h-8 z M391 109 h8 v1 h-8 z M403 109 h4 v1 h-4 z M411 109 h4 v1 h-4 z M35 110 h4 v1 h-4 z M43 110 h4 v1 h-4 z M59 110 h8 v1 h-8 z M71 110 h4 v1 h-4 z M79 110 h4 v1 h-4 z M91 110 h12 v1 h-12 z M107 110 h4 v1 h-4 z M115 110 h16 v1 h-16 z M135 110 h16 v1 h-16 z M155 110 h4 v1 h-4 z M171 110 h4 v1 h-4 z M183 110 h4 v1 h-4 z M191 110 h8 v1 h-8 z M207 110 h8 v1 h-8 z M219 110 h4 v1 h-4 z M227 110 h4 v1 h-4 z M235 110 h4 v1 h-4 z M255 110 h4 v1 h-4 z M263 110 h4 v1 h-4 z M283 110 h4 v1 h-4 z M291 110 h4 v1 h-4 z M311 110 h4 v1 h-4 z M319 110 h12 v1 h-12 z M335 110 h4 v1 h-4 z M347 110 h4 v1 h-4 z M367 110 h4 v1 h-4 z M375 110 h8 v1 h-8 z M391 110 h8 v1 h-8 z M403 110 h4 v1 h-4 z M411 110 h4 v1 h-4 z M35 111 h4 v1 h-4 z M43 111 h4 v1 h-4 z M59 111 h8 v1 h-8 z M71 111 h4 v1 h-4 z M79 111 h4 v1 h-4 z M91 111 h12 v1 h-12 z M107 111 h4 v1 h-4 z M115 111 h16 v1 h-16 z M135 111 h16 v1 h-16 z M155 111 h4 v1 h-4 z M171 111 h4 v1 h-4 z M183 111 h4 v1 h-4 z M191 111 h8 v1 h-8 z M207 111 h8 v1 h-8 z M219 111 h4 v1 h-4 z M227 111 h4 v1 h-4 z M235 111 h4 v1 h-4 z M255 111 h4 v1 h-4 z M263 111 h4 v1 h-4 z M283 111 h4 v1 h-4 z M291 111 h4 v1 h-4 z M311 111 h4 v1 h-4 z M319 111 h12 v1 h-12 z M335 111 h4 v1 h-4 z M347 111 h4 v1 h-4 z M367 111 h4 v1 h-4 z M375 111 h8 v1 h-8 z M391 111 h8 v1 h-8 z M403 111 h4 v1 h-4 z M411 111 h4 v1 h-4 z M35 112 h4 v1 h-4 z M43 112 h4 v1 h-4 z M59 112 h8 v1 h-8 z M71 112 h4 v1 h-4 z M79 112 h4 v1 h-4 z M91 112 h12 v1 h-12 z M107 112 h4 v1 h-4 z M115 112 h16 v1 h-16 z M135 112 h16 v1 h-16 z M155 112 h4 v1 h-4 z M171 112 h4 v1 h-4 z M183 112 h4 v1 h-4 z M191 112 h8 v1 h-8 z M207 112 h8 v1 h-8 z M219 112 h4 v1 h-4 z M227 112 h4 v1 h-4 z M235 112 h4 v1 h-4 z M255 112 h4 v1 h-4 z M263 112 h4 v1 h-4 z M283 112 h4 v1 h-4 z M291 112 h4 v1 h-4 z M311 112 h4 v1 h-4 z M319 112 h12 v1 h-12 z M335 112 h4 v1 h-4 z M347 112 h4 v1 h-4 z M367 112 h4 v1 h-4 z M375 112 h8 v1 h-8 z M391 112 h8 v1 h-8 z M403 112 h4 v1 h-4 z M411 112 h4 v1 h-4 z M35 113 h4 v1 h-4 z M43 113 h4 v1 h-4 z M59 113 h8 v1 h-8 z M71 113 h4 v1 h-4 z M79 113 h4 v1 h-4 z M91 113 h12 v1 h-12 z M107 113 h4 v1 h-4 z M115 113 h16 v1 h-16 z M135 113 h16 v1 h-16 z M155 113 h4 v1 h-4 z M171 113 h4 v1 h-4 z M183 113 h4 v1 h-4 z M191 113 h8 v1 h-8 z M207 113 h8 v1 h-8 z M219 113 h4 v1 h-4 z M227 113 h4 v1 h-4 z M235 113 h4 v1 h-4 z M255 113 h4 v1 h-4 z M263 113 h4 v1 h-4 z M283 113 h4 v1 h-4 z M291 113 h4 v1 h-4 z M311 113 h4 v1 h-4 z M319 113 h12 v1 h-12 z M335 113 h4 v1 h-4 z M347 113 h4 v1 h-4 z M367 113 h4 v1 h-4 z M375 113 h8 v1 h-8 z M391 113 h8 v1 h-8 z M403 113 h4 v1 h-4 z M411 113 h4 v1 h-4 z M35 114 h4 v1 h-4 z M43 114 h4 v1 h-4 z M59 114 h8 v1 h-8 z M71 114 h4 v1 h-4 z M79 114 h4 v1 h-4 z M91 114 h12 v1 h-12 z M107 114 h4 v1 h-4 z M115 114 h16 v1 h-16 z M135 114 h16 v1 h-16 z M155 114 h4 v1 h-4 z M171 114 h4 v1 h-4 z M183 114 h4 v1 h-4 z M191 114 h8 v1 h-8 z M207 114 h8 v1 h-8 z M219 114 h4 v1 h-4 z M227 114 h4 v1 h-4 z M235 114 h4 v1 h-4 z M255 114 h4 v1 h-4 z M263 114 h4 v1 h-4 z M283 114 h4 v1 h-4 z M291 114 h4 v1 h-4 z M311 114 h4 v1 h-4 z M319 114 h12 v1 h-12 z M335 114 h4 v1 h-4 z M347 114 h4 v1 h-4 z M367 114 h4 v1 h-4 z M375 114 h8 v1 h-8 z M391 114 h8 v1 h-8 z M403 114 h4 v1 h-4 z M411 114 h4 v1 h-4 z M35 115 h4 v1 h-4 z M43 115 h4 v1 h-4 z M59 115 h8 v1 h-8 z M71 115 h4 v1 h-4 z M79 115 h4 v1 h-4 z M91 115 h12 v1 h-12 z M107 115 h4 v1 h-4 z M115 115 h16 v1 h-16 z M135 115 h16 v1 h-16 z M155 115 h4 v1 h-4 z M171 115 h4 v1 h-4 z M183 115 h4 v1 h-4 z M191 115 h8 v1 h-8 z M207 115 h8 v1 h-8 z M219 115 h4 v1 h-4 z M227 115 h4 v1 h-4 z M235 115 h4 v1 h-4 z M255 115 h4 v1 h-4 z M263 115 h4 v1 h-4 z M283 115 h4 v1 h-4 z M291 115 h4 v1 h-4 z M311 115 h4 v1 h-4 z M319 115 h12 v1 h-12 z M335 115 h4 v1 h-4 z M347 115 h4 v1 h-4 z M367 115 h4 v1 h-4 z M375 115 h8 v1 h-8 z M391 115 h8 v1 h-8 z M403 115 h4 v1 h-4 z M411 115 h4 v1 h-4 z M35 116 h4 v1 h-4 z M43 116 h4 v1 h-4 z M59 116 h8 v1 h-8 z M71 116 h4 v1 h-4 z M79 116 h4 v1 h-4 z M91 116 h12 v1 h-12 z M107 116 h4 v1 h-4 z M115 116 h16 v1 h-16 z M135 116 h16 v1 h-16 z M155 116 h4 v1 h-4 z M171 116 h4 v1 h-4 z M183 116 h4 v1 h-4 z M191 116 h8 v1 h-8 z M207 116 h8 v1 h-8 z M219 116 h4 v1 h-4 z M227 116 h4 v1 h-4 z M235 116 h4 v1 h-4 z M255 116 h4 v1 h-4 z M263 116 h4 v1 h-4 z M283 116 h4 v1 h-4 z M291 116 h4 v1 h-4 z M311 116 h4 v1 h-4 z M319 116 h12 v1 h-12 z M335 116 h4 v1 h-4 z M347 116 h4 v1 h-4 z M367 116 h4 v1 h-4 z M375 116 h8 v1 h-8 z M391 116 h8 v1 h-8 z M403 116 h4 v1 h-4 z M411 116 h4 v1 h-4 z M35 117 h4 v1 h-4 z M43 117 h4 v1 h-4 z M59 117 h8 v1 h-8 z M71 117 h4 v1 h-4 z M79 117 h4 v1 h-4 z M91 117 h12 v1 h-12 z M107 117 h4 v1 h-4 z M115 117 h16 v1 h-16 z M135 117 h16 v1 h-16 z M155 117 h4 v1 h-4 z M171 117 h4 v1 h-4 z M183 117 h4 v1 h-4 z M191 117 h8 v1 h-8 z M207 117 h8 v1 h-8 z M219 117 h4 v1 h-4 z M227 117 h4 v1 h-4 z M235 117 h4 v1 h-4 z M255 117 h4 v1 h-4 z M263 117 h4 v1 h-4 z M283 117 h4 v1 h-4 z M291 117 h4 v1 h-4 z M311 117 h4 v1 h-4 z M319 117 h12 v1 h-12 z M335 117 h4 v1 h-4 z M347 117 h4 v1 h-4 z M367 117 h4 v1 h-4 z M375 117 h8 v1 h-8 z M391 117 h8 v1 h-8 z M403 117 h4 v1 h-4 z M411 117 h4 v1 h-4 z M35 118 h4 v1 h-4 z M43 118 h4 v1 h-4 z M59 118 h8 v1 h-8 z M71 118 h4 v1 h-4 z M79 118 h4 v1 h-4 z M91 118 h12 v1 h-12 z M107 118 h4 v1 h-4 z M115 118 h16 v1 h-16 z M135 118 h16 v1 h-16 z M155 118 h4 v1 h-4 z M171 118 h4 v1 h-4 z M183 118 h4 v1 h-4 z M191 118 h8 v1 h-8 z M207 118 h8 v1 h-8 z M219 118 h4 v1 h-4 z M227 118 h4 v1 h-4 z M235 118 h4 v1 h-4 z M255 118 h4 v1 h-4 z M263 118 h4 v1 h-4 z M283 118 h4 v1 h-4 z M291 118 h4 v1 h-4 z M311 118 h4 v1 h-4 z M319 118 h12 v1 h-12 z M335 118 h4 v1 h-4 z M347 118 h4 v1 h-4 z M367 118 h4 v1 h-4 z M375 118 h8 v1 h-8 z M391 118 h8 v1 h-8 z M403 118 h4 v1 h-4 z M411 118 h4 v1 h-4 z M35 119 h4 v1 h-4 z M43 119 h4 v1 h-4 z M59 119 h8 v1 h-8 z M71 119 h4 v1 h-4 z M79 119 h4 v1 h-4 z M91 119 h12 v1 h-12 z M107 119 h4 v1 h-4 z M115 119 h16 v1 h-16 z M135 119 h16 v1 h-16 z M155 119 h4 v1 h-4 z M171 119 h4 v1 h-4 z M183 119 h4 v1 h-4 z M191 119 h8 v1 h-8 z M207 119 h8 v1 h-8 z M219 119 h4 v1 h-4 z M227 119 h4 v1 h-4 z M235 119 h4 v1 h-4 z M255 119 h4 v1 h-4 z M263 119 h4 v1 h-4 z M283 119 h4 v1 h-4 z M291 119 h4 v1 h-4 z M311 119 h4 v1 h-4 z M319 119 h12 v1 h-12 z M335 119 h4 v1 h-4 z M347 119 h4 v1 h-4 z M367 119 h4 v1 h-4 z M375 119 h8 v1 h-8 z M391 119 h8 v1 h-8 z M403 119 h4 v1 h-4 z M411 119 h4 v1 h-4 z M35 120 h4 v1 h-4 z M43 120 h4 v1 h-4 z M59 120 h8 v1 h-8 z M71 120 h4 v1 h-4 z M79 120 h4 v1 h-4 z M91 120 h12 v1 h-12 z M107 120 h4 v1 h-4 z M115 120 h16 v1 h-16 z M135 120 h16 v1 h-16 z M155 120 h4 v1 h-4 z M171 120 h4 v1 h-4 z M183 120 h4 v1 h-4 z M191 120 h8 v1 h-8 z M207 120 h8 v1 h-8 z M219 120 h4 v1 h-4 z M227 120 h4 v1 h-4 z M235 120 h4 v1 h-4 z M255 120 h4 v1 h-4 z M263 120 h4 v1 h-4 z M283 120 h4 v1 h-4 z M291 120 h4 v1 h-4 z M311 120 h4 v1 h-4 z M319 120 h12 v1 h-12 z M335 120 h4 v1 h-4 z M347 120 h4 v1 h-4 z M367 120 h4 v1 h-4 z M375 120 h8 v1 h-8 z M391 120 h8 v1 h-8 z M403 120 h4 v1 h-4 z M411 120 h4 v1 h-4 z M35 121 h4 v1 h-4 z M43 121 h4 v1 h-4 z M59 121 h8 v1 h-8 z M71 121 h4 v1 h-4 z M79 121 h4 v1 h-4 z M91 121 h12 v1 h-12 z M107 121 h4 v1 h-4 z M115 121 h16 v1 h-16 z M135 121 h16 v1 h-16 z M155 121 h4 v1 h-4 z M171 121 h4 v1 h-4 z M183 121 h4 v1 h-4 z M191 121 h8 v1 h-8 z M207 121 h8 v1 h-8 z M219 121 h4 v1 h-4 z M227 121 h4 v1 h-4 z M235 121 h4 v1 h-4 z M255 121 h4 v1 h-4 z M263 121 h4 v1 h-4 z M283 121 h4 v1 h-4 z M291 121 h4 v1 h-4 z M311 121 h4 v1 h-4 z M319 121 h12 v1 h-12 z M335 121 h4 v1 h-4 z M347 121 h4 v1 h-4 z M367 121 h4 v1 h-4 z M375 121 h8 v1 h-8 z M391 121 h8 v1 h-8 z M403 121 h4 v1 h-4 z M411 121 h4 v1 h-4 z M35 122 h4 v1 h-4 z M43 122 h4 v1 h-4 z M59 122 h8 v1 h-8 z M71 122 h4 v1 h-4 z M79 122 h4 v1 h-4 z M91 122 h12 v1 h-12 z M107 122 h4 v1 h-4 z M115 122 h16 v1 h-16 z M135 122 h16 v1 h-16 z M155 122 h4 v1 h-4 z M171 122 h4 v1 h-4 z M183 122 h4 v1 h-4 z M191 122 h8 v1 h-8 z M207 122 h8 v1 h-8 z M219 122 h4 v1 h-4 z M227 122 h4 v1 h-4 z M235 122 h4 v1 h-4 z M255 122 h4 v1 h-4 z M263 122 h4 v1 h-4 z M283 122 h4 v1 h-4 z M291 122 h4 v1 h-4 z M311 122 h4 v1 h-4 z M319 122 h12 v1 h-12 z M335 122 h4 v1 h-4 z M347 122 h4 v1 h-4 z M367 122 h4 v1 h-4 z M375 122 h8 v1 h-8 z M391 122 h8 v1 h-8 z M403 122 h4 v1 h-4 z M411 122 h4 v1 h-4 z M35 123 h4 v1 h-4 z M43 123 h4 v1 h-4 z M59 123 h8 v1 h-8 z M71 123 h4 v1 h-4 z M79 123 h4 v1 h-4 z M91 123 h12 v1 h-12 z M107 123 h4 v1 h-4 z M115 123 h16 v1 h-16 z M135 123 h16 v1 h-16 z M155 123 h4 v1 h-4 z M171 123 h4 v1 h-4 z M183 123 h4 v1 h-4 z M191 123 h8 v1 h-8 z M207 123 h8 v1 h-8 z M219 123 h4 v1 h-4 z M227 123 h4 v1 h-4 z M235 123 h4 v1 h-4 z M255 123 h4 v1 h-4 z M263 123 h4 v1 h-4 z M283 123 h4 v1 h-4 z M291 123 h4 v1 h-4 z M311 123 h4 v1 h-4 z M319 123 h12 v1 h-12 z M335 123 h4 v1 h-4 z M347 123 h4 v1 h-4 z M367 123 h4 v1 h-4 z M375 123 h8 v1 h-8 z M391 123 h8 v1 h-8 z M403 123 h4 v1 h-4 z M411 123 h4 v1 h-4 z M35 124 h4 v1 h-4 z M43 124 h4 v1 h-4 z M59 124 h8 v1 h-8 z M71 124 h4 v1 h-4 z M79 124 h4 v1 h-4 z M91 124 h12 v1 h-12 z M107 124 h4 v1 h-4 z M115 124 h16 v1 h-16 z M135 124 h16 v1 h-16 z M155 124 h4 v1 h-4 z M171 124 h4 v1 h-4 z M183 124 h4 v1 h-4 z M191 124 h8 v1 h-8 z M207 124 h8 v1 h-8 z M219 124 h4 v1 h-4 z M227 124 h4 v1 h-4 z M235 124 h4 v1 h-4 z M255 124 h4 v1 h-4 z M263 124 h4 v1 h-4 z M283 124 h4 v1 h-4 z M291 124 h4 v1 h-4 z M311 124 h4 v1 h-4 z M319 124 h12 v1 h-12 z M335 124 h4 v1 h-4 z M347 124 h4 v1 h-4 z M367 124 h4 v1 h-4 z M375 124 h8 v1 h-8 z M391 124 h8 v1 h-8 z M403 124 h4 v1 h-4 z M411 124 h4 v1 h-4 z M35 125 h4 v1 h-4 z M43 125 h4 v1 h-4 z M59 125 h8 v1 h-8 z M71 125 h4 v1 h-4 z M79 125 h4 v1 h-4 z M91 125 h12 v1 h-12 z M107 125 h4 v1 h-4 z M115 125 h16 v1 h-16 z M135 125 h16 v1 h-16 z M155 125 h4 v1 h-4 z M171 125 h4 v1 h-4 z M183 125 h4 v1 h-4 z M191 125 h8 v1 h-8 z M207 125 h8 v1 h-8 z M219 125 h4 v1 h-4 z M227 125 h4 v1 h-4 z M235 125 h4 v1 h-4 z M255 125 h4 v1 h-4 z M263 125 h4 v1 h-4 z M283 125 h4 v1 h-4 z M291 125 h4 v1 h-4 z M311 125 h4 v1 h-4 z M319 125 h12 v1 h-12 z M335 125 h4 v1 h-4 z M347 125 h4 v1 h-4 z M367 125 h4 v1 h-4 z M375 125 h8 v1 h-8 z M391 125 h8 v1 h-8 z M403 125 h4 v1 h-4 z M411 125 h4 v1 h-4 z M35 126 h4 v1 h-4 z M43 126 h4 v1 h-4 z M59 126 h8 v1 h-8 z M71 126 h4 v1 h-4 z M79 126 h4 v1 h-4 z M91 126 h12 v1 h-12 z M107 126 h4 v1 h-4 z M115 126 h16 v1 h-16 z M135 126 h16 v1 h-16 z M155 126 h4 v1 h-4 z M171 126 h4 v1 h-4 z M183 126 h4 v1 h-4 z M191 126 h8 v1 h-8 z M207 126 h8 v1 h-8 z M219 126 h4 v1 h-4 z M227 126 h4 v1 h-4 z M235 126 h4 v1 h-4 z M255 126 h4 v1 h-4 z M263 126 h4 v1 h-4 z M283 126 h4 v1 h-4 z M291 126 h4 v1 h-4 z M311 126 h4 v1 h-4 z M319 126 h12 v1 h-12 z M335 126 h4 v1 h-4 z M347 126 h4 v1 h-4 z M367 126 h4 v1 h-4 z M375 126 h8 v1 h-8 z M391 126 h8 v1 h-8 z M403 126 h4 v1 h-4 z M411 126 h4 v1 h-4 z M35 127 h4 v1 h-4 z M43 127 h4 v1 h-4 z M59 127 h8 v1 h-8 z M71 127 h4 v1 h-4 z M79 127 h4 v1 h-4 z M91 127 h12 v1 h-12 z M107 127 h4 v1 h-4 z M115 127 h16 v1 h-16 z M135 127 h16 v1 h-16 z M155 127 h4 v1 h-4 z M171 127 h4 v1 h-4 z M183 127 h4 v1 h-4 z M191 127 h8 v1 h-8 z M207 127 h8 v1 h-8 z M219 127 h4 v1 h-4 z M227 127 h4 v1 h-4 z M235 127 h4 v1 h-4 z M255 127 h4 v1 h-4 z M263 127 h4 v1 h-4 z M283 127 h4 v1 h-4 z M291 127 h4 v1 h-4 z M311 127 h4 v1 h-4 z M319 127 h12 v1 h-12 z M335 127 h4 v1 h-4 z M347 127 h4 v1 h-4 z M367 127 h4 v1 h-4 z M375 127 h8 v1 h-8 z M391 127 h8 v1 h-8 z M403 127 h4 v1 h-4 z M411 127 h4 v1 h-4 z M35 128 h4 v1 h-4 z M43 128 h4 v1 h-4 z M59 128 h8 v1 h-8 z M71 128 h4 v1 h-4 z M79 128 h4 v1 h-4 z M91 128 h12 v1 h-12 z M107 128 h4 v1 h-4 z M115 128 h16 v1 h-16 z M135 128 h16 v1 h-16 z M155 128 h4 v1 h-4 z M171 128 h4 v1 h-4 z M183 128 h4 v1 h-4 z M191 128 h8 v1 h-8 z M207 128 h8 v1 h-8 z M219 128 h4 v1 h-4 z M227 128 h4 v1 h-4 z M235 128 h4 v1 h-4 z M255 128 h4 v1 h-4 z M263 128 h4 v1 h-4 z M283 128 h4 v1 h-4 z M291 128 h4 v1 h-4 z M311 128 h4 v1 h-4 z M319 128 h12 v1 h-12 z M335 128 h4 v1 h-4 z M347 128 h4 v1 h-4 z M367 128 h4 v1 h-4 z M375 128 h8 v1 h-8 z M391 128 h8 v1 h-8 z M403 128 h4 v1 h-4 z M411 128 h4 v1 h-4 z M35 129 h4 v1 h-4 z M43 129 h4 v1 h-4 z M59 129 h8 v1 h-8 z M71 129 h4 v1 h-4 z M79 129 h4 v1 h-4 z M91 129 h12 v1 h-12 z M107 129 h4 v1 h-4 z M115 129 h16 v1 h-16 z M135 129 h16 v1 h-16 z M155 129 h4 v1 h-4 z M171 129 h4 v1 h-4 z M183 129 h4 v1 h-4 z M191 129 h8 v1 h-8 z M207 129 h8 v1 h-8 z M219 129 h4 v1 h-4 z M227 129 h4 v1 h-4 z M235 129 h4 v1 h-4 z M255 129 h4 v1 h-4 z M263 129 h4 v1 h-4 z M283 129 h4 v1 h-4 z M291 129 h4 v1 h-4 z M311 129 h4 v1 h-4 z M319 129 h12 v1 h-12 z M335 129 h4 v1 h-4 z M347 129 h4 v1 h-4 z M367 129 h4 v1 h-4 z M375 129 h8 v1 h-8 z M391 129 h8 v1 h-8 z M403 129 h4 v1 h-4 z M411 129 h4 v1 h-4 z M35 130 h4 v1 h-4 z M43 130 h4 v1 h-4 z M59 130 h8 v1 h-8 z M71 130 h4 v1 h-4 z M79 130 h4 v1 h-4 z M91 130 h12 v1 h-12 z M107 130 h4 v1 h-4 z M115 130 h16 v1 h-16 z M135 130 h16 v1 h-16 z M155 130 h4 v1 h-4 z M171 130 h4 v1 h-4 z M183 130 h4 v1 h-4 z M191 130 h8 v1 h-8 z M207 130 h8 v1 h-8 z M219 130 h4 v1 h-4 z M227 130 h4 v1 h-4 z M235 130 h4 v1 h-4 z M255 130 h4 v1 h-4 z M263 130 h4 v1 h-4 z M283 130 h4 v1 h-4 z M291 130 h4 v1 h-4 z M311 130 h4 v1 h-4 z M319 130 h12 v1 h-12 z M335 130 h4 v1 h-4 z M347 130 h4 v1 h-4 z M367 130 h4 v1 h-4 z M375 130 h8 v1 h-8 z M391 130 h8 v1 h-8 z M403 130 h4 v1 h-4 z M411 130 h4 v1 h-4 z M35 131 h4 v1 h-4 z M43 131 h4 v1 h-4 z M59 131 h8 v1 h-8 z M71 131 h4 v1 h-4 z M79 131 h4 v1 h-4 z M91 131 h12 v1 h-12 z M107 131 h4 v1 h-4 z M115 131 h16 v1 h-16 z M135 131 h16 v1 h-16 z M155 131 h4 v1 h-4 z M171 131 h4 v1 h-4 z M183 131 h4 v1 h-4 z M191 131 h8 v1 h-8 z M207 131 h8 v1 h-8 z M219 131 h4 v1 h-4 z M227 131 h4 v1 h-4 z M235 131 h4 v1 h-4 z M255 131 h4 v1 h-4 z M263 131 h4 v1 h-4 z M283 131 h4 v1 h-4 z M291 131 h4 v1 h-4 z M311 131 h4 v1 h-4 z M319 131 h12 v1 h-12 z M335 131 h4 v1 h-4 z M347 131 h4 v1 h-4 z M367 131 h4 v1 h-4 z M375 131 h8 v1 h-8 z M391 131 h8 v1 h-8 z M403 131 h4 v1 h-4 z M411 131 h4 v1 h-4 z M35 132 h4 v1 h-4 z M43 132 h4 v1 h-4 z M59 132 h8 v1 h-8 z M71 132 h4 v1 h-4 z M79 132 h4 v1 h-4 z M91 132 h12 v1 h-12 z M107 132 h4 v1 h-4 z M115 132 h16 v1 h-16 z M135 132 h16 v1 h-16 z M155 132 h4 v1 h-4 z M171 132 h4 v1 h-4 z M183 132 h4 v1 h-4 z M191 132 h8 v1 h-8 z M207 132 h8 v1 h-8 z M219 132 h4 v1 h-4 z M227 132 h4 v1 h-4 z M235 132 h4 v1 h-4 z M255 132 h4 v1 h-4 z M263 132 h4 v1 h-4 z M283 132 h4 v1 h-4 z M291 132 h4 v1 h-4 z M311 132 h4 v1 h-4 z M319 132 h12 v1 h-12 z M335 132 h4 v1 h-4 z M347 132 h4 v1 h-4 z M367 132 h4 v1 h-4 z M375 132 h8 v1 h-8 z M391 132 h8 v1 h-8 z M403 132 h4 v1 h-4 z M411 132 h4 v1 h-4 z M35 133 h4 v1 h-4 z M43 133 h4 v1 h-4 z M59 133 h8 v1 h-8 z M71 133 h4 v1 h-4 z M79 133 h4 v1 h-4 z M91 133 h12 v1 h-12 z M107 133 h4 v1 h-4 z M115 133 h16 v1 h-16 z M135 133 h16 v1 h-16 z M155 133 h4 v1 h-4 z M171 133 h4 v1 h-4 z M183 133 h4 v1 h-4 z M191 133 h8 v1 h-8 z M207 133 h8 v1 h-8 z M219 133 h4 v1 h-4 z M227 133 h4 v1 h-4 z M235 133 h4 v1 h-4 z M255 133 h4 v1 h-4 z M263 133 h4 v1 h-4 z M283 133 h4 v1 h-4 z M291 133 h4 v1 h-4 z M311 133 h4 v1 h-4 z M319 133 h12 v1 h-12 z M335 133 h4 v1 h-4 z M347 133 h4 v1 h-4 z M367 133 h4 v1 h-4 z M375 133 h8 v1 h-8 z M391 133 h8 v1 h-8 z M403 133 h4 v1 h-4 z M411 133 h4 v1 h-4 z M35 134 h4 v1 h-4 z M43 134 h4 v1 h-4 z M59 134 h8 v1 h-8 z M71 134 h4 v1 h-4 z M79 134 h4 v1 h-4 z M91 134 h12 v1 h-12 z M107 134 h4 v1 h-4 z M115 134 h16 v1 h-16 z M135 134 h16 v1 h-16 z M155 134 h4 v1 h-4 z M171 134 h4 v1 h-4 z M183 134 h4 v1 h-4 z M191 134 h8 v1 h-8 z M207 134 h8 v1 h-8 z M219 134 h4 v1 h-4 z M227 134 h4 v1 h-4 z M235 134 h4 v1 h-4 z M255 134 h4 v1 h-4 z M263 134 h4 v1 h-4 z M283 134 h4 v1 h-4 z M291 134 h4 v1 h-4 z M311 134 h4 v1 h-4 z M319 134 h12 v1 h-12 z M335 134 h4 v1 h-4 z M347 134 h4 v1 h-4 z M367 134 h4 v1 h-4 z M375 134 h8 v1 h-8 z M391 134 h8 v1 h-8 z M403 134 h4 v1 h-4 z M411 134 h4 v1 h-4 z M35 135 h4 v1 h-4 z M43 135 h4 v1 h-4 z M59 135 h8 v1 h-8 z M71 135 h4 v1 h-4 z M79 135 h4 v1 h-4 z M91 135 h12 v1 h-12 z M107 135 h4 v1 h-4 z M115 135 h16 v1 h-16 z M135 135 h16 v1 h-16 z M155 135 h4 v1 h-4 z M171 135 h4 v1 h-4 z M183 135 h4 v1 h-4 z M191 135 h8 v1 h-8 z M207 135 h8 v1 h-8 z M219 135 h4 v1 h-4 z M227 135 h4 v1 h-4 z M235 135 h4 v1 h-4 z M255 135 h4 v1 h-4 z M263 135 h4 v1 h-4 z M283 135 h4 v1 h-4 z M291 135 h4 v1 h-4 z M311 135 h4 v1 h-4 z M319 135 h12 v1 h-12 z M335 135 h4 v1 h-4 z M347 135 h4 v1 h-4 z M367 135 h4 v1 h-4 z M375 135 h8 v1 h-8 z M391 135 h8 v1 h-8 z M403 135 h4 v1 h-4 z M411 135 h4 v1 h-4 z M35 136 h4 v1 h-4 z M43 136 h4 v1 h-4 z M59 136 h8 v1 h-8 z M71 136 h4 v1 h-4 z M79 136 h4 v1 h-4 z M91 136 h12 v1 h-12 z M107 136 h4 v1 h-4 z M115 136 h16 v1 h-16 z M135 136 h16 v1 h-16 z M155 136 h4 v1 h-4 z M171 136 h4 v1 h-4 z M183 136 h4 v1 h-4 z M191 136 h8 v1 h-8 z M207 136 h8 v1 h-8 z M219 136 h4 v1 h-4 z M227 136 h4 v1 h-4 z M235 136 h4 v1 h-4 z M255 136 h4 v1 h-4 z M263 136 h4 v1 h-4 z M283 136 h4 v1 h-4 z M291 136 h4 v1 h-4 z M311 136 h4 v1 h-4 z M319 136 h12 v1 h-12 z M335 136 h4 v1 h-4 z M347 136 h4 v1 h-4 z M367 136 h4 v1 h-4 z M375 136 h8 v1 h-8 z M391 136 h8 v1 h-8 z M403 136 h4 v1 h-4 z M411 136 h4 v1 h-4 z M35 137 h4 v1 h-4 z M43 137 h4 v1 h-4 z M59 137 h8 v1 h-8 z M71 137 h4 v1 h-4 z M79 137 h4 v1 h-4 z M91 137 h12 v1 h-12 z M107 137 h4 v1 h-4 z M115 137 h16 v1 h-16 z M135 137 h16 v1 h-16 z M155 137 h4 v1 h-4 z M171 137 h4 v1 h-4 z M183 137 h4 v1 h-4 z M191 137 h8 v1 h-8 z M207 137 h8 v1 h-8 z M219 137 h4 v1 h-4 z M227 137 h4 v1 h-4 z M235 137 h4 v1 h-4 z M255 137 h4 v1 h-4 z M263 137 h4 v1 h-4 z M283 137 h4 v1 h-4 z M291 137 h4 v1 h-4 z M311 137 h4 v1 h-4 z M319 137 h12 v1 h-12 z M335 137 h4 v1 h-4 z M347 137 h4 v1 h-4 z M367 137 h4 v1 h-4 z M375 137 h8 v1 h-8 z M391 137 h8 v1 h-8 z M403 137 h4 v1 h-4 z M411 137 h4 v1 h-4 z M35 138 h4 v1 h-4 z M43 138 h4 v1 h-4 z M59 138 h8 v1 h-8 z M71 138 h4 v1 h-4 z M79 138 h4 v1 h-4 z M91 138 h12 v1 h-12 z M107 138 h4 v1 h-4 z M115 138 h16 v1 h-16 z M135 138 h16 v1 h-16 z M155 138 h4 v1 h-4 z M171 138 h4 v1 h-4 z M183 138 h4 v1 h-4 z M191 138 h8 v1 h-8 z M207 138 h8 v1 h-8 z M219 138 h4 v1 h-4 z M227 138 h4 v1 h-4 z M235 138 h4 v1 h-4 z M255 138 h4 v1 h-4 z M263 138 h4 v1 h-4 z M283 138 h4 v1 h-4 z M291 138 h4 v1 h-4 z M311 138 h4 v1 h-4 z M319 138 h12 v1 h-12 z M335 138 h4 v1 h-4 z M347 138 h4 v1 h-4 z M367 138 h4 v1 h-4 z M375 138 h8 v1 h-8 z M391 138 h8 v1 h-8 z M403 138 h4 v1 h-4 z M411 138 h4 v1 h-4 z M35 139 h4 v1 h-4 z M43 139 h4 v1 h-4 z M59 139 h8 v1 h-8 z M71 139 h4 v1 h-4 z M79 139 h4 v1 h-4 z M91 139 h12 v1 h-12 z M107 139 h4 v1 h-4 z M115 139 h16 v1 h-16 z M135 139 h16 v1 h-16 z M155 139 h4 v1 h-4 z M171 139 h4 v1 h-4 z M183 139 h4 v1 h-4 z M191 139 h8 v1 h-8 z M207 139 h8 v1 h-8 z M219 139 h4 v1 h-4 z M227 139 h4 v1 h-4 z M235 139 h4 v1 h-4 z M255 139 h4 v1 h-4 z M263 139 h4 v1 h-4 z M283 139 h4 v1 h-4 z M291 139 h4 v1 h-4 z M311 139 h4 v1 h-4 z M319 139 h12 v1 h-12 z M335 139 h4 v1 h-4 z M347 139 h4 v1 h-4 z M367 139 h4 v1 h-4 z M375 139 h8 v1 h-8 z M391 139 h8 v1 h-8 z M403 139 h4 v1 h-4 z M411 139 h4 v1 h-4 z M35 140 h4 v1 h-4 z M43 140 h4 v1 h-4 z M59 140 h8 v1 h-8 z M71 140 h4 v1 h-4 z M79 140 h4 v1 h-4 z M91 140 h12 v1 h-12 z M107 140 h4 v1 h-4 z M115 140 h16 v1 h-16 z M135 140 h16 v1 h-16 z M155 140 h4 v1 h-4 z M171 140 h4 v1 h-4 z M183 140 h4 v1 h-4 z M191 140 h8 v1 h-8 z M207 140 h8 v1 h-8 z M219 140 h4 v1 h-4 z M227 140 h4 v1 h-4 z M235 140 h4 v1 h-4 z M255 140 h4 v1 h-4 z M263 140 h4 v1 h-4 z M283 140 h4 v1 h-4 z M291 140 h4 v1 h-4 z M311 140 h4 v1 h-4 z M319 140 h12 v1 h-12 z M335 140 h4 v1 h-4 z M347 140 h4 v1 h-4 z M367 140 h4 v1 h-4 z M375 140 h8 v1 h-8 z M391 140 h8 v1 h-8 z M403 140 h4 v1 h-4 z M411 140 h4 v1 h-4 z M35 141 h4 v1 h-4 z M43 141 h4 v1 h-4 z M59 141 h8 v1 h-8 z M71 141 h4 v1 h-4 z M79 141 h4 v1 h-4 z M91 141 h12 v1 h-12 z M107 141 h4 v1 h-4 z M115 141 h16 v1 h-16 z M135 141 h16 v1 h-16 z M155 141 h4 v1 h-4 z M171 141 h4 v1 h-4 z M183 141 h4 v1 h-4 z M191 141 h8 v1 h-8 z M207 141 h8 v1 h-8 z M219 141 h4 v1 h-4 z M227 141 h4 v1 h-4 z M235 141 h4 v1 h-4 z M255 141 h4 v1 h-4 z M263 141 h4 v1 h-4 z M283 141 h4 v1 h-4 z M291 141 h4 v1 h-4 z M311 141 h4 v1 h-4 z M319 141 h12 v1 h-12 z M335 141 h4 v1 h-4 z M347 141 h4 v1 h-4 z M367 141 h4 v1 h-4 z M375 141 h8 v1 h-8 z M391 141 h8 v1 h-8 z M403 141 h4 v1 h-4 z M411 141 h4 v1 h-4 z M35 142 h4 v1 h-4 z M43 142 h4 v1 h-4 z M59 142 h8 v1 h-8 z M71 142 h4 v1 h-4 z M79 142 h4 v1 h-4 z M91 142 h12 v1 h-12 z M107 142 h4 v1 h-4 z M115 142 h16 v1 h-16 z M135 142 h16 v1 h-16 z M155 142 h4 v1 h-4 z M171 142 h4 v1 h-4 z M183 142 h4 v1 h-4 z M191 142 h8 v1 h-8 z M207 142 h8 v1 h-8 z M219 142 h4 v1 h-4 z M227 142 h4 v1 h-4 z M235 142 h4 v1 h-4 z M255 142 h4 v1 h-4 z M263 142 h4 v1 h-4 z M283 142 h4 v1 h-4 z M291 142 h4 v1 h-4 z M311 142 h4 v1 h-4 z M319 142 h12 v1 h-12 z M335 142 h4 v1 h-4 z M347 142 h4 v1 h-4 z M367 142 h4 v1 h-4 z M375 142 h8 v1 h-8 z M391 142 h8 v1 h-8 z M403 142 h4 v1 h-4 z M411 142 h4 v1 h-4 z M35 143 h4 v1 h-4 z M43 143 h4 v1 h-4 z M59 143 h8 v1 h-8 z M71 143 h4 v1 h-4 z M79 143 h4 v1 h-4 z M91 143 h12 v1 h-12 z M107 143 h4 v1 h-4 z M115 143 h16 v1 h-16 z M135 143 h16 v1 h-16 z M155 143 h4 v1 h-4 z M171 143 h4 v1 h-4 z M183 143 h4 v1 h-4 z M191 143 h8 v1 h-8 z M207 143 h8 v1 h-8 z M219 143 h4 v1 h-4 z M227 143 h4 v1 h-4 z M235 143 h4 v1 h-4 z M255 143 h4 v1 h-4 z M263 143 h4 v1 h-4 z M283 143 h4 v1 h-4 z M291 143 h4 v1 h-4 z M311 143 h4 v1 h-4 z M319 143 h12 v1 h-12 z M335 143 h4 v1 h-4 z M347 143 h4 v1 h-4 z M367 143 h4 v1 h-4 z M375 143 h8 v1 h-8 z M391 143 h8 v1 h-8 z M403 143 h4 v1 h-4 z M411 143 h4 v1 h-4 z M35 144 h4 v1 h-4 z M43 144 h4 v1 h-4 z M59 144 h8 v1 h-8 z M71 144 h4 v1 h-4 z M79 144 h4 v1 h-4 z M91 144 h12 v1 h-12 z M107 144 h4 v1 h-4 z M115 144 h16 v1 h-16 z M135 144 h16 v1 h-16 z M155 144 h4 v1 h-4 z M171 144 h4 v1 h-4 z M183 144 h4 v1 h-4 z M191 144 h8 v1 h-8 z M207 144 h8 v1 h-8 z M219 144 h4 v1 h-4 z M227 144 h4 v1 h-4 z M235 144 h4 v1 h-4 z M255 144 h4 v1 h-4 z M263 144 h4 v1 h-4 z M283 144 h4 v1 h-4 z M291 144 h4 v1 h-4 z M311 144 h4 v1 h-4 z M319 144 h12 v1 h-12 z M335 144 h4 v1 h-4 z M347 144 h4 v1 h-4 z M367 144 h4 v1 h-4 z M375 144 h8 v1 h-8 z M391 144 h8 v1 h-8 z M403 144 h4 v1 h-4 z M411 144 h4 v1 h-4 z M35 145 h4 v1 h-4 z M43 145 h4 v1 h-4 z M59 145 h8 v1 h-8 z M71 145 h4 v1 h-4 z M79 145 h4 v1 h-4 z M91 145 h12 v1 h-12 z M107 145 h4 v1 h-4 z M115 145 h16 v1 h-16 z M135 145 h16 v1 h-16 z M155 145 h4 v1 h-4 z M171 145 h4 v1 h-4 z M183 145 h4 v1 h-4 z M191 145 h8 v1 h-8 z M207 145 h8 v1 h-8 z M219 145 h4 v1 h-4 z M227 145 h4 v1 h-4 z M235 145 h4 v1 h-4 z M255 145 h4 v1 h-4 z M263 145 h4 v1 h-4 z M283 145 h4 v1 h-4 z M291 145 h4 v1 h-4 z M311 145 h4 v1 h-4 z M319 145 h12 v1 h-12 z M335 145 h4 v1 h-4 z M347 145 h4 v1 h-4 z M367 145 h4 v1 h-4 z M375 145 h8 v1 h-8 z M391 145 h8 v1 h-8 z M403 145 h4 v1 h-4 z M411 145 h4 v1 h-4 z M35 146 h4 v1 h-4 z M43 146 h4 v1 h-4 z M59 146 h8 v1 h-8 z M71 146 h4 v1 h-4 z M79 146 h4 v1 h-4 z M91 146 h12 v1 h-12 z M107 146 h4 v1 h-4 z M115 146 h16 v1 h-16 z M135 146 h16 v1 h-16 z M155 146 h4 v1 h-4 z M171 146 h4 v1 h-4 z M183 146 h4 v1 h-4 z M191 146 h8 v1 h-8 z M207 146 h8 v1 h-8 z M219 146 h4 v1 h-4 z M227 146 h4 v1 h-4 z M235 146 h4 v1 h-4 z M255 146 h4 v1 h-4 z M263 146 h4 v1 h-4 z M283 146 h4 v1 h-4 z M291 146 h4 v1 h-4 z M311 146 h4 v1 h-4 z M319 146 h12 v1 h-12 z M335 146 h4 v1 h-4 z M347 146 h4 v1 h-4 z M367 146 h4 v1 h-4 z M375 146 h8 v1 h-8 z M391 146 h8 v1 h-8 z M403 146 h4 v1 h-4 z M411 146 h4 v1 h-4 z M35 147 h4 v1 h-4 z M43 147 h4 v1 h-4 z M59 147 h8 v1 h-8 z M71 147 h4 v1 h-4 z M79 147 h4 v1 h-4 z M91 147 h12 v1 h-12 z M107 147 h4 v1 h-4 z M115 147 h16 v1 h-16 z M135 147 h16 v1 h-16 z M155 147 h4 v1 h-4 z M171 147 h4 v1 h-4 z M183 147 h4 v1 h-4 z M191 147 h8 v1 h-8 z M207 147 h8 v1 h-8 z M219 147 h4 v1 h-4 z M227 147 h4 v1 h-4 z M235 147 h4 v1 h-4 z M255 147 h4 v1 h-4 z M263 147 h4 v1 h-4 z M283 147 h4 v1 h-4 z M291 147 h4 v1 h-4 z M311 147 h4 v1 h-4 z M319 147 h12 v1 h-12 z M335 147 h4 v1 h-4 z M347 147 h4 v1 h-4 z M367 147 h4 v1 h-4 z M375 147 h8 v1 h-8 z M391 147 h8 v1 h-8 z M403 147 h4 v1 h-4 z M411 147 h4 v1 h-4 z M35 148 h4 v1 h-4 z M43 148 h4 v1 h-4 z M59 148 h8 v1 h-8 z M71 148 h4 v1 h-4 z M79 148 h4 v1 h-4 z M91 148 h12 v1 h-12 z M107 148 h4 v1 h-4 z M115 148 h16 v1 h-16 z M135 148 h16 v1 h-16 z M155 148 h4 v1 h-4 z M171 148 h4 v1 h-4 z M183 148 h4 v1 h-4 z M191 148 h8 v1 h-8 z M207 148 h8 v1 h-8 z M219 148 h4 v1 h-4 z M227 148 h4 v1 h-4 z M235 148 h4 v1 h-4 z M255 148 h4 v1 h-4 z M263 148 h4 v1 h-4 z M283 148 h4 v1 h-4 z M291 148 h4 v1 h-4 z M311 148 h4 v1 h-4 z M319 148 h12 v1 h-12 z M335 148 h4 v1 h-4 z M347 148 h4 v1 h-4 z M367 148 h4 v1 h-4 z M375 148 h8 v1 h-8 z M391 148 h8 v1 h-8 z M403 148 h4 v1 h-4 z M411 148 h4 v1 h-4 z M35 149 h4 v1 h-4 z M43 149 h4 v1 h-4 z M59 149 h8 v1 h-8 z M71 149 h4 v1 h-4 z M79 149 h4 v1 h-4 z M91 149 h12 v1 h-12 z M107 149 h4 v1 h-4 z M115 149 h16 v1 h-16 z M135 149 h16 v1 h-16 z M155 149 h4 v1 h-4 z M171 149 h4 v1 h-4 z M183 149 h4 v1 h-4 z M191 149 h8 v1 h-8 z M207 149 h8 v1 h-8 z M219 149 h4 v1 h-4 z M227 149 h4 v1 h-4 z M235 149 h4 v1 h-4 z M255 149 h4 v1 h-4 z M263 149 h4 v1 h-4 z M283 149 h4 v1 h-4 z M291 149 h4 v1 h-4 z M311 149 h4 v1 h-4 z M319 149 h12 v1 h-12 z M335 149 h4 v1 h-4 z M347 149 h4 v1 h-4 z M367 149 h4 v1 h-4 z M375 149 h8 v1 h-8 z M391 149 h8 v1 h-8 z M403 149 h4 v1 h-4 z M411 149 h4 v1 h-4 z " fill="black"/>
  <text x="225" y="171" font-family="monospace" font-size="24" text-anchor="middle" fill="black">4006381333931</text>
</svg>