<svg viewBox="0 0 256 256" xmlns="http://www.w3.org/2000/svg" shape-rendering="crispEdges">
  <rect width="256" height="256" fill="white"/>
  <path d="M12 12 h56 v1 h-56 z M84 12 h8 v1 h-8 z M108 12 h24 v1 h-24 z M156 12 h8 v1 h-8 z M188 12 h56 v1 h-56 z M12 13 h56 v1 h-56 z M84 13 h8 v1 h-8 z M108 13 h24 v1 h-24 z M156 13 h8 v1 h-8 z M188 13 h56 v1 h-56 z M12 14 h56 v1 h-56 z M84 14 h8 v1 h-8 z M108 14 h24 v1 h-24 z M156 14 h8 v1 h-8 z M188 14 h56 v1 h-56 z M12 15 h56 v1 h-56 z M84 15 h8 v1 h-8 z M108 15 h24 v1 h-24 z M156 15 h8 v1 h-8 z M188 15 h56 v1 h-56 z M12 16 h56 v1 h-56 z M84 16 h8 v1 h-8 z M108 16 h24 v1 h-24 z M156 16 h8 v1 h-8 z M188 16 h56 v1 h-56 z M12 17 h56 v1 h-56 z M84 17 h8 v1 h-8 z M108 17 h24 v1 h-24 z M156 17 h8 v1 h-8 z M188 17 h56 v1 h-56 z M12 18 h56 v1 h-56 z M84 18 h8 v1 h-8 z M108 18 h24 v1 h-24 z M156 18 h8 v1 h-8 z M188 18 h56 v1 h-56 z M12 19 h56 v1 h-56 z M84 19 h8 v1 h-8 z M108 19 h24 v1 h-24 z M156 19 h8 v1 h-8 z M188 19 h56 v1 h-56 z M12 20 h8 v1 h-8 z M60 20 h8 v1 h-8 z M76 20 h8 v1 h-8 z M100 20 h8 v1 h-8 z M124 20 h8 v1 h-8 z M172 20 h8 v1 h-8 z M188 20 h8 v1 h-8 z M236 20 h8 v1 h-8 z M12 21 h8 v1 h-8 z M60 21 h8 v1 h-8 z M76 21 h8 v1 h-8 z M100 21 h8 v1 h-8 z M124 21 h8 v1 h-8 z M172 21 h8 v1 h-8 z M188 21 h8 v1 h-8 z M236 21 h8 v1 h-8 z M12 22 h8 v1 h-8 z M60 22 h8 v1 h-8 z M76 22 h8 v1 h-8 z M100 22 h8 v1 h-8 z M124 22 h8 v1 h-8 z M172 22 h8 v1 h-8 z M188 22 h8 v1 h-8 z M236 22 h8 v1 h-8 z M12 23 h8 v1 h-8 z M60 23 h8 v1 h-8 z M76 23 h8 v1 h-8 z M100 23 h8 v1 h-8 z M124 23 h8 v1 h-8 z M172 23 h8 v1 h-8 z M188 23 h8 v1 h-8 z M236 23 h8 v1 h-8 z M12 24 h8 v1 h-8 z M60 24 h8 v1 h-8 z M76 24 h8 v1 h-8 z M100 24 h8 v1 h-8 z M124 24 h8 v1 h-8 z M172 24 h8 v1 h-8 z M188 24 h8 v1 h-8 z M236 24 h8 v1 h-8 z M12 25 h8 v1 h-8 z M60 25 h8 v1 h-8 z M76 25 h8 v1 h-8 z M100 25 h8 v1 h-8 z M124 25 h8 v1 h-8 z M172 25 h8 v1 h-8 z M188 25 h8 v1 h-8 z M236 25 h8 v1 h-8 z M12 26 h8 v1 h-8 z M60 26 h8 v1 h-8 z M76 26 h8 v1 h-8 z M100 26 h8 v1 h-8 z M124 26 h8 v1 h-8 z M172 26 h8 v1 h-8 z M188 26 h8 v1 h-8 z M236 26 h8 v1 h-8 z M12 27 h8 v1 h-8 z M60 27 h8 v1 h-8 z M76 27 h8 v1 h-8 z M100 27 h8 v1 h-8 z M124 27 h8 v1 h-8 z M172 27 h8 v1 h-8 z M188 27 h8 v1 h-8 z M236 27 h8 v1 h-8 z M12 28 h8 v1 h-8 z M28 28 h24 v1 h-24 z M60 28 h8 v1 h-8 z M76 28 h32 v1 h-32 z M124 28 h24 v1 h-24 z M164 28 h8 v1 h-8 z M188 28 h8 v1 h-8 z M204 28 h24 v1 h-24 z M236 28 h8 v1 h-8 z M12 29 h8 v1 h-8 z M28 29 h24 v1 h-24 z M60 29 h8 v1 h-8 z M76 29 h32 v1 h-32 z M124 29 h24 v1 h-24 z M164 29 h8 v1 h-8 z M188 29 h8 v1 h-8 z M204 29 h24 v1 h-24 z M236 29 h8 v1 h-8 z M12 30 h8 v1 h-8 z M28 30 h24 v1 h-24 z M60 30 h8 v1 h-8 z M76 30 h32 v1 h-32 z M124 30 h24 v1 h-24 z M164 30 h8 v1 h-8 z M188 30 h8 v1 h-8 z M204 30 h24 v1 h-24 z M236 30 h8 v1 h-8 z M12 31 h8 v1 h-8 z M28 31 h24 v1 h-24 z M60 31 h8 v1 h-8 z M76 31 h32 v1 h-32 z M124 31 h24 v1 h-24 z M164 31 h8 v1 h-8 z M188 31 h8 v1 h-8 z M204 31 h24 v1 h-24 z M236 31 h8 v1 h-8 z M12 32 h8 v1 h-8 z M28 32 h24 v1 h-24 z M60 32 h8 v1 h-8 z M76 32 h32 v1 h-32 z M124 32 h24 v1 h-24 z M164 32 h8 v1 h-8 z M188 32 h8 v1 h-8 z M204 32 h24 v1 h-24 z M236 32 h8 v1 h-8 z M12 33 h8 v1 h-8 z M28 33 h24 v1 h-24 z M60 33 h8 v1 h-8 z M76 33 h32 v1 h-32 z M124 33 h24 v1 h-24 z M164 33 h8 v1 h-8 z M188 33 h8 v1 h-8 z M204 33 h24 v1 h-24 z M236 33 h8 v1 h-8 z M12 34 h8 v1 h-8 z M28 34 h24 v1 h-24 z M60 34 h8 v1 h-8 z M76 34 h32 v1 h-32 z M124 34 h24 v1 h-24 z M164 34 h8 v1 h-8 z M188 34 h8 v1 h-8 z M204 34 h24 v1 h-24 z M236 34 h8 v1 h-8 z M12 35 h8 v1 h-8 z M28 35 h24 v1 h-24 z M60 35 h8 v1 h-8 z M76 35 h32 v1 h-32 z M124 35 h24 v1 h-24 z M164 35 h8 v1 h-8 z M188 35 h8 v1 h-8 z M204 35 h24 v1 h-24 z M236 35 h8 v1 h-8 z M12 36 h8 v1 h-8 z M28 36 h24 v1 h-24 z M60 36 h8 v1 h-8 z M76 36 h16 v1 h-16 z M124 36 h8 v1 h-8 z M140 36 h16 v1 h-16 z M172 36 h8 v1 h-8 z M188 36 h8 v1 h-8 z M204 36 h24 v1 h-24 z M236 36 h8 v1 h-8 z M12 37 h8 v1 h-8 z M28 37 h24 v1 h-24 z M60 37 h8 v1 h-8 z M76 37 h16 v1 h-16 z M124 37 h8 v1 h-8 z M140 37 h16 v1 h-16 z M172 37 h8 v1 h-8 z M188 37 h8 v1 h-8 z M204 37 h24 v1 h-24 z M236 37 h8 v1 h-8 z M12 38 h8 v1 h-8 z M28 38 h24 v1 h-24 z M60 38 h8 v1 h-8 z M76 38 h16 v1 h-16 z M124 38 h8 v1 h-8 z M140 38 h16 v1 h-16 z M172 38 h8 v1 h-8 z M188 38 h8 v1 h-8 z M204 38 h24 v1 h-24 z M236 38 h8 v1 h-8 z M12 39 h8 v1 h-8 z M28 39 h24 v1 h-24 z M60 39 h8 v1 h-8 z M76 39 h16 v1 h-16 z M124 39 h8 v1 h-8 z M140 39 h16 v1 h-16 z M172 39 h8 v1 h-8 z M188 39 h8 v1 h-8 z M204 39 h24 v1 h-24 z M236 39 h8 v1 h-8 z M12 40 h8 v1 h-8 z M28 40 h24 v1 h-24 z M60 40 h8 v1 h-8 z M76 40 h16 v1 h-16 z M124 40 h8 v1 h-8 z M140 40 h16 v1 h-16 z M172 40 h8 v1 h-8 z M188 40 h8 v1 h-8 z M204 40 h24 v1 h-24 z M236 40 h8 v1 h-8 z M12 41 h8 v1 h-8 z M28 41 h24 v1 h-24 z M60 41 h8 v1 h-8 z M76 41 h16 v1 h-16 z M124 41 h8 v1 h-8 z M140 41 h16 v1 h-16 z M172 41 h8 v1 h-8 z M188 41 h8 v1 h-8 z M204 41 h24 v1 h-24 z M236 41 h8 v1 h-8 z M12 42 h8 v1 h-8 z M28 42 h24 v1 h-24 z M60 42 h8 v1 h-8 z M76 42 h16 v1 h-16 z M124 42 h8 v1 h-8 z M140 42 h16 v1 h-16 z M172 42 h8 v1 h-8 z M188 42 h8 v1 h-8 z M204 42 h24 v1 h-24 z M236 42 h8 v1 h-8 z M12 43 h8 v1 h-8 z M28 43 h24 v1 h-24 z M60 43 h8 v1 h-8 z M76 43 h16 v1 h-16 z M124 43 h8 v1 h-8 z M140 43 h16 v1 h-16 z M172 43 h8 v1 h-8 z M188 43 h8 v1 h-8 z M204 43 h24 v1 h-24 z M236 43 h8 v1 h-8 z M12 44 h8 v1 h-8 z M28 44 h24 v1 h-24 z M60 44 h8 v1 h-8 z M84 44 h8 v1 h-8 z M108 44 h16 v1 h-16 z M140 44 h8 v1 h-8 z M156 44 h24 v1 h-24 z M188 44 h8 v1 h-8 z M204 44 h24 v1 h-24 z M236 44 h8 v1 h-8 z M12 45 h8 v1 h-8 z M28 45 h24 v1 h-24 z M60 45 h8 v1 h-8 z M84 45 h8 v1 h-8 z M108 45 h16 v1 h-16 z M140 45 h8 v1 h-8 z M156 45 h24 v1 h-24 z M188 45 h8 v1 h-8 z M204 45 h24 v1 h-24 z M236 45 h8 v1 h-8 z M12 46 h8 v1 h-8 z M28 46 h24 v1 h-24 z M60 46 h8 v1 h-8 z M84 46 h8 v1 h-8 z M108 46 h16 v1 h-16 z M140 46 h8 v1 h-8 z M156 46 h24 v1 h-24 z M188 46 h8 v1 h-8 z M204 46 h24 v1 h-24 z M236 46 h8 v1 h-8 z M12 47 h8 v1 h-8 z M28 47 h24 v1 h-24 z M60 47 h8 v1 h-8 z M84 47 h8 v1 h-8 z M108 47 h16 v1 h-16 z M140 47 h8 v1 h-8 z M156 47 h24 v1 h-24 z M188 47 h8 v1 h-8 z M204 47 h24 v1 h-24 z M236 47 h8 v1 h-8 z M12 48 h8 v1 h-8 z M28 48 h24 v1 h-24 z M60 48 h8 v1 h-8 z M84 48 h8 v1 h-8 z M108 48 h16 v1 h-16 z M140 48 h8 v1 h-8 z M156 48 h24 v1 h-24 z M188 48 h8 v1 h-8 z M204 48 h24 v1 h-24 z M236 48 h8 v1 h-8 z M12 49 h8 v1 h-8 z M28 49 h24 v1 h-24 z M60 49 h8 v1 h-8 z M84 49 h8 v1 h-8 z M108 49 h16 v1 h-16 z M140 49 h8 v1 h-8 z M156 49 h24 v1 h-24 z M188 49 h8 v1 h-8 z M204 49 h24 v1 h-24 z M236 49 h8 v1 h-8 z M12 50 h8 v1 h-8 z M28 50 h24 v1 h-24 z M60 50 h8 v1 h-8 z M84 50 h8 v1 h-8 z M108 50 h16 v1 h-16 z M140 50 h8 v1 h-8 z M156 50 h24 v1 h-24 z M188 50 h8 v1 h-8 z M204 50 h24 v1 h-24 z M236 50 h8 v1 h-8 z M12 51 h8 v1 h-8 z M28 51 h24 v1 h-24 z M60 51 h8 v1 h-8 z M84 51 h8 v1 h-8 z M108 51 h16 v1 h-16 z M140 51 h8 v1 h-8 z M156 51 h24 v1 h-24 z M188 51 h8 v1 h-8 z M204 51 h24 v1 h-24 z M236 51 h8 v1 h-8 z M12 52 h8 v1 h-8 z M60 52 h8 v1 h-8 z M84 52 h16 v1 h-16 z M116 52 h16 v1 h-16 z M140 52 h24 v1 h-24 z M188 52 h8 v1 h-8 z M236 52 h8 v1 h-8 z M12 53 h8 v1 h-8 z M60 53 h8 v1 h-8 z M84 53 h16 v1 h-16 z M116 53 h16 v1 h-16 z M140 53 h24 v1 h-24 z M188 53 h8 v1 h-8 z M236 53 h8 v1 h-8 z M12 54 h8 v1 h-8 z M60 54 h8 v1 h-8 z M84 54 h16 v1 h-16 z M116 54 h16 v1 h-16 z M140 54 h24 v1 h-24 z M188 54 h8 v1 h-8 z M236 54 h8 v1 h-8 z M12 55 h8 v1 h-8 z M60 55 h8 v1 h-8 z M84 55 h16 v1 h-16 z M116 55 h16 v1 h-16 z M140 55 h24 v1 h-24 z M188 55 h8 v1 h-8 z M236 55 h8 v1 h-8 z M12 56 h8 v1 h-8 z M60 56 h8 v1 h-8 z M84 56 h16 v1 h-16 z M116 56 h16 v1 h-16 z M140 56 h24 v1 h-24 z M188 56 h8 v1 h-8 z M236 56 h8 v1 h-8 z M12 57 h8 v1 h-8 z M60 57 h8 v1 h-8 z M84 57 h16 v1 h-16 z M116 57 h16 v1 h-16 z M140 57 h24 v1 h-24 z M188 57 h8 v1 h-8 z M236 57 h8 v1 h-8 z M12 58 h8 v1 h-8 z M60 58 h8 v1 h-8 z M84 58 h16 v1 h-16 z M116 58 h16 v1 h-16 z M140 58 h24 v1 h-24 z M188 58 h8 v1 h-8 z M236 58 h8 v1 h-8 z M12 59 h8 v1 h-8 z M60 59 h8 v1 h-8 z M84 59 h16 v1 h-16 z M116 59 h16 v1 h-16 z M140 59 h24 v1 h-24 z M188 59 h8 v1 h-8 z M236 59 h8 v1 h-8 z M12 60 h56 v1 h-56 z M76 60 h8 v1 h-8 z M92 60 h8 v1 h-8 z M108 60 h8 v1 h-8 z M124 60 h8 v1 h-8 z M140 60 h8 v1 h-8 z M156 60 h8 v1 h-8 z M172 60 h8 v1 h-8 z M188 60 h56 v1 h-56 z M12 61 h56 v1 h-56 z M76 61 h8 v1 h-8 z M92 61 h8 v1 h-8 z M108 61 h8 v1 h-8 z M124 61 h8 v1 h-8 z M140 61 h8 v1 h-8 z M156 61 h8 v1 h-8 z M172 61 h8 v1 h-8 z M188 61 h56 v1 h-56 z M12 62 h56 v1 h-56 z M76 62 h8 v1 h-8 z M92 62 h8 v1 h-8 z M108 62 h8 v1 h-8 z M124 62 h8 v1 h-8 z M140 62 h8 v1 h-8 z M156 62 h8 v1 h-8 z M172 62 h8 v1 h-8 z M188 62 h56 v1 h-56 z M12 63 h56 v1 h-56 z M76 63 h8 v1 h-8 z M92 63 h8 v1 h-8 z M108 63 h8 v1 h-8 z M124 63 h8 v1 h-8 z M140 63 h8 v1 h-8 z M156 63 h8 v1 h-8 z M172 63 h8 v1 h-8 z M188 63 h56 v1 h-56 z M12 64 h56 v1 h-56 z M76 64 h8 v1 h-8 z M92 64 h8 v1 h-8 z M108 64 h8 v1 h-8 z M124 64 h8 v1 h-8 z M140 64 h8 v1 h-8 z M156 64 h8 v1 h-8 z M172 64 h8 v1 h-8 z M188 64 h56 v1 h-56 z M12 65 h56 v1 h-56 z M76 65 h8 v1 h-8 z M92 65 h8 v1 h-8 z M108 65 h8 v1 h-8 z M124 65 h8 v1 h-8 z M140 65 h8 v1 h-8 z M156 65 h8 v1 h-8 z M172 65 h8 v1 h-8 z M188 65 h56 v1 h-56 z M12 66 h56 v1 h-56 z M76 66 h8 v1 h-8 z M92 66 h8 v1 h-8 z M108 66 h8 v1 h-8 z M124 66 h8 v1 h-8 z M140 66 h8 v1 h-8 z M156 66 h8 v1 h-8 z M172 66 h8 v1 h-8 z M188 66 h56 v1 h-56 z M12 67 h56 v1 h-56 z M76 67 h8 v1 h-8 z M92 67 h8 v1 h-8 z M108 67 h8 v1 h-8 z M124 67 h8 v1 h-8 z M140 67 h8 v1 h-8 z M156 67 h8 v1 h-8 z M172 67 h8 v1 h-8 z M188 67 h56 v1 h-56 z M76 68 h8 v1 h-8 z M92 68 h16 v1 h-16 z M116 68 h8 v1 h-8 z M132 68 h16 v1 h-16 z M172 68 h8 v1 h-8 z M76 69 h8 v1 h-8 z M92 69 h16 v1 h-16 z M116 69 h8 v1 h-8 z M132 69 h16 v1 h-16 z M172 69 h8 v1 h-8 z M76 70 h8 v1 h-8 z M92 70 h16 v1 h-16 z M116 70 h8 v1 h-8 z M132 70 h16 v1 h-16 z M172 70 h8 v1 h-8 z M76 71 h8 v1 h-8 z M92 71 h16 v1 h-16 z M116 71 h8 v1 h-8 z M132 71 h16 v1 h-16 z M172 71 h8 v1 h-8 z M76 72 h8 v1 h-8 z M92 72 h16 v1 h-16 z M116 72 h8 v1 h-8 z M132 72 h16 v1 h-16 z M172 72 h8 v1 h-8 z M76 73 h8 v1 h-8 z M92 73 h16 v1 h-16 z M116 73 h8 v1 h-8 z M132 73 h16 v1 h-16 z M172 73 h8 v1 h-8 z M76 74 h8 v1 h-8 z M92 74 h16 v1 h-16 z M116 74 h8 v1 h-8 z M132 74 h16 v1 h-16 z M172 74 h8 v1 h-8 z M76 75 h8 v1 h-8 z M92 75 h16 v1 h-16 z M116 75 h8 v1 h-8 z M132 75 h16 v1 h-16 z M172 75 h8 v1 h-8 z M12 76 h8 v1 h-8 z M60 76 h8 v1 h-8 z M76 76 h16 v1 h-16 z M108 76 h8 v1 h-8 z M124 76 h8 v1 h-8 z M148 76 h8 v1 h-8 z M164 76 h8 v1 h-8 z M180 76 h16 v1 h-16 z M212 76 h24 v1 h-24 z M12 77 h8 v1 h-8 z M60 77 h8 v1 h-8 z M76 77 h16 v1 h-16 z M108 77 h8 v1 h-8 z M124 77 h8 v1 h-8 z M148 77 h8 v1 h-8 z M164 77 h8 v1 h-8 z M180 77 h16 v1 h-16 z M212 77 h24 v1 h-24 z M12 78 h8 v1 h-8 z M60 78 h8 v1 h-8 z M76 78 h16 v1 h-16 z M108 78 h8 v1 h-8 z M124 78 h8 v1 h-8 z M148 78 h8 v1 h-8 z M164 78 h8 v1 h-8 z M180 78 h16 v1 h-16 z M212 78 h24 v1 h-24 z M12 79 h8 v1 h-8 z M60 79 h8 v1 h-8 z M76 79 h16 v1 h-16 z M108 79 h8 v1 h-8 z M124 79 h8 v1 h-8 z M148 79 h8 v1 h-8 z M164 79 h8 v1 h-8 z M180 79 h16 v1 h-16 z M212 79 h24 v1 h-24 z M12 80 h8 v1 h-8 z M60 80 h8 v1 h-8 z M76 80 h16 v1 h-16 z M108 80 h8 v1 h-8 z M124 80 h8 v1 h-8 z M148 80 h8 v1 h-8 z M164 80 h8 v1 h-8 z M180 80 h16 v1 h-16 z M212 80 h24 v1 h-24 z M12 81 h8 v1 h-8 z M60 81 h8 v1 h-8 z M76 81 h16 v1 h-16 z M108 81 h8 v1 h-8 z M124 81 h8 v1 h-8 z M148 81 h8 v1 h-8 z M164 81 h8 v1 h-8 z M180 81 h16 v1 h-16 z M212 81 h24 v1 h-24 z M12 82 h8 v1 h-8 z M60 82 h8 v1 h-8 z M76 82 h16 v1 h-16 z M108 82 h8 v1 h-8 z M124 82 h8 v1 h-8 z M148 82 h8 v1 h-8 z M164 82 h8 v1 h-8 z M180 82 h16 v1 h-16 z M212 82 h24 v1 h-24 z M12 83 h8 v1 h-8 z M60 83 h8 v1 h-8 z M76 83 h16 v1 h-16 z M108 83 h8 v1 h-8 z M124 83 h8 v1 h-8 z M148 83 h8 v1 h-8 z M164 83 h8 v1 h-8 z M180 83 h16 v1 h-16 z M212 83 h24 v1 h-24 z M12 84 h16 v1 h-16 z M44 84 h8 v1 h-8 z M68 84 h16 v1 h-16 z M92 84 h16 v1 h-16 z M124 84 h16 v1 h-16 z M164 84 h8 v1 h-8 z M180 84 h8 v1 h-8 z M196 84 h16 v1 h-16 z M220 84 h16 v1 h-16 z M12 85 h16 v1 h-16 z M44 85 h8 v1 h-8 z M68 85 h16 v1 h-16 z M92 85 h16 v1 h-16 z M124 85 h16 v1 h-16 z M164 85 h8 v1 h-8 z M180 85 h8 v1 h-8 z M196 85 h16 v1 h-16 z M220 85 h16 v1 h-16 z M12 86 h16 v1 h-16 z M44 86 h8 v1 h-8 z M68 86 h16 v1 h-16 z M92 86 h16 v1 h-16 z M124 86 h16 v1 h-16 z M164 86 h8 v1 h-8 z M180 86 h8 v1 h-8 z M196 86 h16 v1 h-16 z M220 86 h16 v1 h-16 z M12 87 h16 v1 h-16 z M44 87 h8 v1 h-8 z M68 87 h16 v1 h-16 z M92 87 h16 v1 h-16 z M124 87 h16 v1 h-16 z M164 87 h8 v1 h-8 z M180 87 h8 v1 h-8 z M196 87 h16 v1 h-16 z M220 87 h16 v1 h-16 z M12 88 h16 v1 h-16 z M44 88 h8 v1 h-8 z M68 88 h16 v1 h-16 z M92 88 h16 v1 h-16 z M124 88 h16 v1 h-16 z M164 88 h8 v1 h-8 z M180 88 h8 v1 h-8 z M196 88 h16 v1 h-16 z M220 88 h16 v1 h-16 z M12 89 h16 v1 h-16 z M44 89 h8 v1 h-8 z M68 89 h16 v1 h-16 z M92 89 h16 v1 h-16 z M124 89 h16 v1 h-16 z M164 89 h8 v1 h-8 z M180 89 h8 v1 h-8 z M196 89 h16 v1 h-16 z M220 89 h16 v1 h-16 z M12 90 h16 v1 h-16 z M44 90 h8 v1 h-8 z M68 90 h16 v1 h-16 z M92 90 h16 v1 h-16 z M124 90 h16 v1 h-16 z M164 90 h8 v1 h-8 z M180 90 h8 v1 h-8 z M196 90 h16 v1 h-16 z M220 90 h16 v1 h-16 z M12 91 h16 v1 h-16 z M44 91 h8 v1 h-8 z M68 91 h16 v1 h-16 z M92 91 h16 v1 h-16 z M124 91 h16 v1 h-16 z M164 91 h8 v1 h-8 z M180 91 h8 v1 h-8 z M196 91 h16 v1 h-16 z M220 91 h16 v1 h-16 z M20 92 h56 v1 h-56 z M108 92 h8 v1 h-8 z M132 92 h16 v1 h-16 z M156 92 h8 v1 h-8 z M172 92 h8 v1 h-8 z M204 92 h8 v1 h-8 z M20 93 h56 v1 h-56 z M108 93 h8 v1 h-8 z M132 93 h16 v1 h-16 z M156 93 h8 v1 h-8 z M172 93 h8 v1 h-8 z M204 93 h8 v1 h-8 z M20 94 h56 v1 h-56 z M108 94 h8 v1 h-8 z M132 94 h16 v1 h-16 z M156 94 h8 v1 h-8 z M172 94 h8 v1 h-8 z M204 94 h8 v1 h-8 z M20 95 h56 v1 h-56 z M108 95 h8 v1 h-8 z M132 95 h16 v1 h-16 z M156 95 h8 v1 h-8 z M172 95 h8 v1 h-8 z M204 95 h8 v1 h-8 z M20 96 h56 v1 h-56 z M108 96 h8 v1 h-8 z M132 96 h16 v1 h-16 z M156 96 h8 v1 h-8 z M172 96 h8 v1 h-8 z M204 96 h8 v1 h-8 z M20 97 h56 v1 h-56 z M108 97 h8 v1 h-8 z M132 97 h16 v1 h-16 z M156 97 h8 v1 h-8 z M172 97 h8 v1 h-8 z M204 97 h8 v1 h-8 z M20 98 h56 v1 h-56 z M108 98 h8 v1 h-8 z M132 98 h16 v1 h-16 z M156 98 h8 v1 h-8 z M172 98 h8 v1 h-8 z M204 98 h8 v1 h-8 z M20 99 h56 v1 h-56 z M108 99 h8 v1 h-8 z M132 99 h16 v1 h-16 z M156 99 h8 v1 h-8 z M172 99 h8 v1 h-8 z M204 99 h8 v1 h-8 z M12 100 h8 v1 h-8 z M28 100 h8 v1 h-8 z M68 100 h40 v1 h-40 z M124 100 h16 v1 h-16 z M156 100 h8 v1 h-8 z M172 100 h16 v1 h-16 z M212 100 h8 v1 h-8 z M12 101 h8 v1 h-8 z M28 101 h8 v1 h-8 z M68 101 h40 v1 h-40 z M124 101 h16 v1 h-16 z M156 101 h8 v1 h-8 z M172 101 h16 v1 h-16 z M212 101 h8 v1 h-8 z M12 102 h8 v1 h-8 z M28 102 h8 v1 h-8 z M68 102 h40 v1 h-40 z M124 102 h16 v1 h-16 z M156 102 h8 v1 h-8 z M172 102 h16 v1 h-16 z M212 102 h8 v1 h-8 z M12 103 h8 v1 h-8 z M28 103 h8 v1 h-8 z M68 103 h40 v1 h-40 z M124 103 h16 v1 h-16 z M156 103 h8 v1 h-8 z M172 103 h16 v1 h-16 z M212 103 h8 v1 h-8 z M12 104 h8 v1 h-8 z M28 104 h8 v1 h-8 z M68 104 h40 v1 h-40 z M124 104 h16 v1 h-16 z M156 104 h8 v1 h-8 z M172 104 h16 v1 h-16 z M212 104 h8 v1 h-8 z M12 105 h8 v1 h-8 z M28 105 h8 v1 h-8 z M68 105 h40 v1 h-40 z M124 105 h16 v1 h-16 z M156 105 h8 v1 h-8 z M172 105 h16 v1 h-16 z M212 105 h8 v1 h-8 z M12 106 h8 v1 h-8 z M28 106 h8 v1 h-8 z M68 106 h40 v1 h-40 z M124 106 h16 v1 h-16 z M156 106 h8 v1 h-8 z M172 106 h16 v1 h-16 z M212 106 h8 v1 h-8 z M12 107 h8 v1 h-8 z M28 107 h8 v1 h-8 z M68 107 h40 v1 h-40 z M124 107 h16 v1 h-16 z M156 107 h8 v1 h-8 z M172 107 h16 v1 h-16 z M212 107 h8 v1 h-8 z M12 108 h8 v1 h-8 z M28 108 h40 v1 h-40 z M84 108 h8 v1 h-8 z M100 108 h48 v1 h-48 z M156 108 h8 v1 h-8 z M172 108 h8 v1 h-8 z M188 108 h16 v1 h-16 z M236 108 h8 v1 h-8 z M12 109 h8 v1 h-8 z M28 109 h40 v1 h-40 z M84 109 h8 v1 h-8 z M100 109 h48 v1 h-48 z M156 109 h8 v1 h-8 z M172 109 h8 v1 h-8 z M188 109 h16 v1 h-16 z M236 109 h8 v1 h-8 z M12 110 h8 v1 h-8 z M28 110 h40 v1 h-40 z M84 110 h8 v1 h-8 z M100 110 h48 v1 h-48 z M156 110 h8 v1 h-8 z M172 110 h8 v1 h-8 z M188 110 h16 v1 h-16 z M236 110 h8 v1 h-8 z M12 111 h8 v1 h-8 z M28 111 h40 v1 h-40 z M84 111 h8 v1 h-8 z M100 111 h48 v1 h-48 z M156 111 h8 v1 h-8 z M172 111 h8 v1 h-8 z M188 111 h16 v1 h-16 z M236 111 h8 v1 h-8 z M12 112 h8 v1 h-8 z M28 112 h40 v1 h-40 z M84 112 h8 v1 h-8 z M100 112 h48 v1 h-48 z M156 112 h8 v1 h-8 z M172 112 h8 v1 h-8 z M188 112 h16 v1 h-16 z M236 112 h8 v1 h-8 z M12 113 h8 v1 h-8 z M28 113 h40 v1 h-40 z M84 113 h8 v1 h-8 z M100 113 h48 v1 h-48 z M156 113 h8 v1 h-8 z M172 113 h8 v1 h-8 z M188 113 h16 v1 h-16 z M236 113 h8 v1 h-8 z M12 114 h8 v1 h-8 z M28 114 h40 v1 h-40 z M84 114 h8 v1 h-8 z M100 114 h48 v1 h-48 z M156 114 h8 v1 h-8 z M172 114 h8 v1 h-8 z M188 114 h16 v1 h-16 z M236 114 h8 v1 h-8 z M12 115 h8 v1 h-8 z M28 115 h40 v1 h-40 z M84 115 h8 v1 h-8 z M100 115 h48 v1 h-48 z M156 115 h8 v1 h-8 z M172 115 h8 v1 h-8 z M188 115 h16 v1 h-16 z M236 115 h8 v1 h-8 z M20 116 h24 v1 h-24 z M116 116 h64 v1 h-64 z M188 116 h24 v1 h-24 z M228 116 h16 v1 h-16 z M20 117 h24 v1 h-24 z M116 117 h64 v1 h-64 z M188 117 h24 v1 h-24 z M228 117 h16 v1 h-16 z M20 118 h24 v1 h-24 z M116 118 h64 v1 h-64 z M188 118 h24 v1 h-24 z M228 118 h16 v1 h-16 z M20 119 h24 v1 h-24 z M116 119 h64 v1 h-64 z M188 119 h24 v1 h-24 z M228 119 h16 v1 h-16 z M20 120 h24 v1 h-24 z M116 120 h64 v1 h-64 z M188 120 h24 v1 h-24 z M228 120 h16 v1 h-16 z M20 121 h24 v1 h-24 z M116 121 h64 v1 h-64 z M188 121 h24 v1 h-24 z M228 121 h16 v1 h-16 z M20 122 h24 v1 h-24 z M116 122 h64 v1 h-64 z M188 122 h24 v1 h-24 z M228 122 h16 v1 h-16 z M20 123 h24 v1 h-24 z M116 123 h64 v1 h-64 z M188 123 h24 v1 h-24 z M228 123 h16 v1 h-16 z M20 124 h8 v1 h-8 z M36 124 h8 v1 h-8 z M60 124 h8 v1 h-8 z M76 124 h24 v1 h-24 z M116 124 h24 v1 h-24 z M148 124 h8 v1 h-8 z M172 124 h16 v1 h-16 z M204 124 h24 v1 h-24 z M20 125 h8 v1 h-8 z M36 125 h8 v1 h-8 z M60 125 h8 v1 h-8 z M76 125 h24 v1 h-24 z M116 125 h24 v1 h-24 z M148 125 h8 v1 h-8 z M172 125 h16 v1 h-16 z M204 125 h24 v1 h-24 z M20 126 h8 v1 h-8 z M36 126 h8 v1 h-8 z M60 126 h8 v1 h-8 z M76 126 h24 v1 h-24 z M116 126 h24 v1 h-24 z M148 126 h8 v1 h-8 z M172 126 h16 v1 h-16 z M204 126 h24 v1 h-24 z M20 127 h8 v1 h-8 z M36 127 h8 v1 h-8 z M60 127 h8 v1 h-8 z M76 127 h24 v1 h-24 z M116 127 h24 v1 h-24 z M148 127 h8 v1 h-8 z M172 127 h16 v1 h-16 z M204 127 h24 v1 h-24 z M20 128 h8 v1 h-8 z M36 128 h8 v1 h-8 z M60 128 h8 v1 h-8 z M76 128 h24 v1 h-24 z M116 128 h24 v1 h-24 z M148 128 h8 v1 h-8 z M172 128 h16 v1 h-16 z M204 128 h24 v1 h-24 z M20 129 h8 v1 h-8 z M36 129 h8 v1 h-8 z M60 129 h8 v1 h-8 z M76 129 h24 v1 h-24 z M116 129 h24 v1 h-24 z M148 129 h8 v1 h-8 z M172 129 h16 v1 h-16 z M204 129 h24 v1 h-24 z M20 130 h8 v1 h-8 z M36 130 h8 v1 h-8 z M60 130 h8 v1 h-8 z M76 130 h24 v1 h-24 z M116 130 h24 v1 h-24 z M148 130 h8 v1 h-8 z M172 130 h16 v1 h-16 z M204 130 h24 v1 h-24 z M20 131 h8 v1 h-8 z M36 131 h8 v1 h-8 z M60 131 h8 v1 h-8 z M76 131 h24 v1 h-24 z M116 131 h24 v1 h-24 z M148 131 h8 v1 h-8 z M172 131 h16 v1 h-16 z M204 131 h24 v1 h-24 z M28 132 h32 v1 h-32 z M76 132 h16 v1 h-16 z M100 132 h48 v1 h-48 z M164 132 h8 v1 h-8 z M196 132 h16 v1 h-16 z M220 132 h8 v1 h-8 z M236 132 h8 v1 h-8 z M28 133 h32 v1 h-32 z M76 133 h16 v1 h-16 z M100 133 h48 v1 h-48 z M164 133 h8 v1 h-8 z M196 133 h16 v1 h-16 z M220 133 h8 v1 h-8 z M236 133 h8 v1 h-8 z M28 134 h32 v1 h-32 z M76 134 h16 v1 h-16 z M100 134 h48 v1 h-48 z M164 134 h8 v1 h-8 z M196 134 h16 v1 h-16 z M220 134 h8 v1 h-8 z M236 134 h8 v1 h-8 z M28 135 h32 v1 h-32 z M76 135 h16 v1 h-16 z M100 135 h48 v1 h-48 z M164 135 h8 v1 h-8 z M196 135 h16 v1 h-16 z M220 135 h8 v1 h-8 z M236 135 h8 v1 h-8 z M28 136 h32 v1 h-32 z M76 136 h16 v1 h-16 z M100 136 h48 v1 h-48 z M164 136 h8 v1 h-8 z M196 136 h16 v1 h-16 z M220 136 h8 v1 h-8 z M236 136 h8 v1 h-8 z M28 137 h32 v1 h-32 z M76 137 h16 v1 h-16 z M100 137 h48 v1 h-48 z M164 137 h8 v1 h-8 z M196 137 h16 v1 h-16 z M220 137 h8 v1 h-8 z M236 137 h8 v1 h-8 z M28 138 h32 v1 h-32 z M76 138 h16 v1 h-16 z M100 138 h48 v1 h-48 z M164 138 h8 v1 h-8 z M196 138 h16 v1 h-16 z M220 138 h8 v1 h-8 z M236 138 h8 v1 h-8 z M28 139 h32 v1 h-32 z M76 139 h16 v1 h-16 z M100 139 h48 v1 h-48 z M164 139 h8 v1 h-8 z M196 139 h16 v1 h-16 z M220 139 h8 v1 h-8 z M236 139 h8 v1 h-8 z M12 140 h24 v1 h-24 z M52 140 h16 v1 h-16 z M84 140 h16 v1 h-16 z M108 140 h8 v1 h-8 z M124 140 h32 v1 h-32 z M164 140 h8 v1 h-8 z M180 140 h8 v1 h-8 z M196 140 h8 v1 h-8 z M212 140 h16 v1 h-16 z M12 141 h24 v1 h-24 z M52 141 h16 v1 h-16 z M84 141 h16 v1 h-16 z M108 141 h8 v1 h-8 z M124 141 h32 v1 h-32 z M164 141 h8 v1 h-8 z M180 141 h8 v1 h-8 z M196 141 h8 v1 h-8 z M212 141 h16 v1 h-16 z M12 142 h24 v1 h-24 z M52 142 h16 v1 h-16 z M84 142 h16 v1 h-16 z M108 142 h8 v1 h-8 z M124 142 h32 v1 h-32 z M164 142 h8 v1 h-8 z M180 142 h8 v1 h-8 z M196 142 h8 v1 h-8 z M212 142 h16 v1 h-16 z M12 143 h24 v1 h-24 z M52 143 h16 v1 h-16 z M84 143 h16 v1 h-16 z M108 143 h8 v1 h-8 z M124 143 h32 v1 h-32 z M164 143 h8 v1 h-8 z M180 143 h8 v1 h-8 z M196 143 h8 v1 h-8 z M212 143 h16 v1 h-16 z M12 144 h24 v1 h-24 z M52 144 h16 v1 h-16 z M84 144 h16 v1 h-16 z M108 144 h8 v1 h-8 z M124 144 h32 v1 h-32 z M164 144 h8 v1 h-8 z M180 144 h8 v1 h-8 z M196 144 h8 v1 h-8 z M212 144 h16 v1 h-16 z M12 145 h24 v1 h-24 z M52 145 h16 v1 h-16 z M84 145 h16 v1 h-16 z M108 145 h8 v1 h-8 z M124 145 h32 v1 h-32 z M164 145 h8 v1 h-8 z M180 145 h8 v1 h-8 z M196 145 h8 v1 h-8 z M212 145 h16 v1 h-16 z M12 146 h24 v1 h-24 z M52 146 h16 v1 h-16 z M84 146 h16 v1 h-16 z M108 146 h8 v1 h-8 z M124 146 h32 v1 h-32 z M164 146 h8 v1 h-8 z M180 146 h8 v1 h-8 z M196 146 h8 v1 h-8 z M212 146 h16 v1 h-16 z M12 147 h24 v1 h-24 z M52 147 h16 v1 h-16 z M84 147 h16 v1 h-16 z M108 147 h8 v1 h-8 z M124 147 h32 v1 h-32 z M164 147 h8 v1 h-8 z M180 147 h8 v1 h-8 z M196 147 h8 v1 h-8 z M212 147 h16 v1 h-16 z M12 148 h8 v1 h-8 z M28 148 h8 v1 h-8 z M44 148 h8 v1 h-8 z M68 148 h8 v1 h-8 z M100 148 h16 v1 h-16 z M132 148 h40 v1 h-40 z M188 148 h24 v1 h-24 z M220 148 h24 v1 h-24 z M12 149 h8 v1 h-8 z M28 149 h8 v1 h-8 z M44 149 h8 v1 h-8 z M68 149 h8 v1 h-8 z M100 149 h16 v1 h-16 z M132 149 h40 v1 h-40 z M188 149 h24 v1 h-24 z M220 149 h24 v1 h-24 z M12 150 h8 v1 h-8 z M28 150 h8 v1 h-8 z M44 150 h8 v1 h-8 z M68 150 h8 v1 h-8 z M100 150 h16 v1 h-16 z M132 150 h40 v1 h-40 z M188 150 h24 v1 h-24 z M220 150 h24 v1 h-24 z M12 151 h8 v1 h-8 z M28 151 h8 v1 h-8 z M44 151 h8 v1 h-8 z M68 151 h8 v1 h-8 z M100 151 h16 v1 h-16 z M132 151 h40 v1 h-40 z M188 151 h24 v1 h-24 z M220 151 h24 v1 h-24 z M12 152 h8 v1 h-8 z M28 152 h8 v1 h-8 z M44 152 h8 v1 h-8 z M68 152 h8 v1 h-8 z M100 152 h16 v1 h-16 z M132 152 h40 v1 h-40 z M188 152 h24 v1 h-24 z M220 152 h24 v1 h-24 z M12 153 h8 v1 h-8 z M28 153 h8 v1 h-8 z M44 153 h8 v1 h-8 z M68 153 h8 v1 h-8 z M100 153 h16 v1 h-16 z M132 153 h40 v1 h-40 z M188 153 h24 v1 h-24 z M220 153 h24 v1 h-24 z M12 154 h8 v1 h-8 z M28 154 h8 v1 h-8 z M44 154 h8 v1 h-8 z M68 154 h8 v1 h-8 z M100 154 h16 v1 h-16 z M132 154 h40 v1 h-40 z M188 154 h24 v1 h-24 z M220 154 h24 v1 h-24 z M12 155 h8 v1 h-8 z M28 155 h8 v1 h-8 z M44 155 h8 v1 h-8 z M68 155 h8 v1 h-8 z M100 155 h16 v1 h-16 z M132 155 h40 v1 h-40 z M188 155 h24 v1 h-24 z M220 155 h24 v1 h-24 z M12 156 h24 v1 h-24 z M44 156 h8 v1 h-8 z M60 156 h8 v1 h-8 z M84 156 h8 v1 h-8 z M116 156 h24 v1 h-24 z M148 156 h8 v1 h-8 z M164 156 h8 v1 h-8 z M204 156 h16 v1 h-16 z M236 156 h8 v1 h-8 z M12 157 h24 v1 h-24 z M44 157 h8 v1 h-8 z M60 157 h8 v1 h-8 z M84 157 h8 v1 h-8 z M116 157 h24 v1 h-24 z M148 157 h8 v1 h-8 z M164 157 h8 v1 h-8 z M204 157 h16 v1 h-16 z M236 157 h8 v1 h-8 z M12 158 h24 v1 h-24 z M44 158 h8 v1 h-8 z M60 158 h8 v1 h-8 z M84 158 h8 v1 h-8 z M116 158 h24 v1 h-24 z M148 158 h8 v1 h-8 z M164 158 h8 v1 h-8 z M204 158 h16 v1 h-16 z M236 158 h8 v1 h-8 z M12 159 h24 v1 h-24 z M44 159 h8 v1 h-8 z M60 159 h8 v1 h-8 z M84 159 h8 v1 h-8 z M116 159 h24 v1 h-24 z M148 159 h8 v1 h-8 z M164 159 h8 v1 h-8 z M204 159 h16 v1 h-16 z M236 159 h8 v1 h-8 z M12 160 h24 v1 h-24 z M44 160 h8 v1 h-8 z M60 160 h8 v1 h-8 z M84 160 h8 v1 h-8 z M116 160 h24 v1 h-24 z M148 160 h8 v1 h-8 z M164 160 h8 v1 h-8 z M204 160 h16 v1 h-16 z M236 160 h8 v1 h-8 z M12 161 h24 v1 h-24 z M44 161 h8 v1 h-8 z M60 161 h8 v1 h-8 z M84 161 h8 v1 h-8 z M116 161 h24 v1 h-24 z M148 161 h8 v1 h-8 z M164 161 h8 v1 h-8 z M204 161 h16 v1 h-16 z M236 161 h8 v1 h-8 z M12 162 h24 v1 h-24 z M44 162 h8 v1 h-8 z M60 162 h8 v1 h-8 z M84 162 h8 v1 h-8 z M116 162 h24 v1 h-24 z M148 162 h8 v1 h-8 z M164 162 h8 v1 h-8 z M204 162 h16 v1 h-16 z M236 162 h8 v1 h-8 z M12 163 h24 v1 h-24 z M44 163 h8 v1 h-8 z M60 163 h8 v1 h-8 z M84 163 h8 v1 h-8 z M116 163 h24 v1 h-24 z M148 163 h8 v1 h-8 z M164 163 h8 v1 h-8 z M204 163 h16 v1 h-16 z M236 163 h8 v1 h-8 z M12 164 h8 v1 h-8 z M28 164 h16 v1 h-16 z M52 164 h8 v1 h-8 z M84 164 h8 v1 h-8 z M108 164 h8 v1 h-8 z M124 164 h8 v1 h-8 z M172 164 h8 v1 h-8 z M188 164 h8 v1 h-8 z M12 165 h8 v1 h-8 z M28 165 h16 v1 h-16 z M52 165 h8 v1 h-8 z M84 165 h8 v1 h-8 z M108 165 h8 v1 h-8 z M124 165 h8 v1 h-8 z M172 165 h8 v1 h-8 z M188 165 h8 v1 h-8 z M12 166 h8 v1 h-8 z M28 166 h16 v1 h-16 z M52 166 h8 v1 h-8 z M84 166 h8 v1 h-8 z M108 166 h8 v1 h-8 z M124 166 h8 v1 h-8 z M172 166 h8 v1 h-8 z M188 166 h8 v1 h-8 z M12 167 h8 v1 h-8 z M28 167 h16 v1 h-16 z M52 167 h8 v1 h-8 z M84 167 h8 v1 h-8 z M108 167 h8 v1 h-8 z M124 167 h8 v1 h-8 z M172 167 h8 v1 h-8 z M188 167 h8 v1 h-8 z M12 168 h8 v1 h-8 z M28 168 h16 v1 h-16 z M52 168 h8 v1 h-8 z M84 168 h8 v1 h-8 z M108 168 h8 v1 h-8 z M124 168 h8 v1 h-8 z M172 168 h8 v1 h-8 z M188 168 h8 v1 h-8 z M12 169 h8 v1 h-8 z M28 169 h16 v1 h-16 z M52 169 h8 v1 h-8 z M84 169 h8 v1 h-8 z M108 169 h8 v1 h-8 z M124 169 h8 v1 h-8 z M172 169 h8 v1 h-8 z M188 169 h8 v1 h-8 z M12 170 h8 v1 h-8 z M28 170 h16 v1 h-16 z M52 170 h8 v1 h-8 z M84 170 h8 v1 h-8 z M108 170 h8 v1 h-8 z M124 170 h8 v1 h-8 z M172 170 h8 v1 h-8 z M188 170 h8 v1 h-8 z M12 171 h8 v1 h-8 z M28 171 h16 v1 h-16 z M52 171 h8 v1 h-8 z M84 171 h8 v1 h-8 z M108 171 h8 v1 h-8 z M124 171 h8 v1 h-8 z M172 171 h8 v1 h-8 z M188 171 h8 v1 h-8 z M12 172 h8 v1 h-8 z M52 172 h16 v1 h-16 z M84 172 h8 v1 h-8 z M108 172 h8 v1 h-8 z M132 172 h8 v1 h-8 z M148 172 h8 v1 h-8 z M164 172 h48 v1 h-48 z M220 172 h24 v1 h-24 z M12 173 h8 v1 h-8 z M52 173 h16 v1 h-16 z M84 173 h8 v1 h-8 z M108 173 h8 v1 h-8 z M132 173 h8 v1 h-8 z M148 173 h8 v1 h-8 z M164 173 h48 v1 h-48 z M220 173 h24 v1 h-24 z M12 174 h8 v1 h-8 z M52 174 h16 v1 h-16 z M84 174 h8 v1 h-8 z M108 174 h8 v1 h-8 z M132 174 h8 v1 h-8 z M148 174 h8 v1 h-8 z M164 174 h48 v1 h-48 z M220 174 h24 v1 h-24 z M12 175 h8 v1 h-8 z M52 175 h16 v1 h-16 z M84 175 h8 v1 h-8 z M108 175 h8 v1 h-8 z M132 175 h8 v1 h-8 z M148 175 h8 v1 h-8 z M164 175 h48 v1 h-48 z M220 175 h24 v1 h-24 z M12 176 h8 v1 h-8 z M52 176 h16 v1 h-16 z M84 176 h8 v1 h-8 z M108 176 h8 v1 h-8 z M132 176 h8 v1 h-8 z M148 176 h8 v1 h-8 z M164 176 h48 v1 h-48 z M220 176 h24 v1 h-24 z M12 177 h8 v1 h-8 z M52 177 h16 v1 h-16 z M84 177 h8 v1 h-8 z M108 177 h8 v1 h-8 z M132 177 h8 v1 h-8 z M148 177 h8 v1 h-8 z M164 177 h48 v1 h-48 z M220 177 h24 v1 h-24 z M12 178 h8 v1 h-8 z M52 178 h16 v1 h-16 z M84 178 h8 v1 h-8 z M108 178 h8 v1 h-8 z M132 178 h8 v1 h-8 z M148 178 h8 v1 h-8 z M164 178 h48 v1 h-48 z M220 178 h24 v1 h-24 z M12 179 h8 v1 h-8 z M52 179 h16 v1 h-16 z M84 179 h8 v1 h-8 z M108 179 h8 v1 h-8 z M132 179 h8 v1 h-8 z M148 179 h8 v1 h-8 z M164 179 h48 v1 h-48 z M220 179 h24 v1 h-24 z M76 180 h8 v1 h-8 z M92 180 h16 v1 h-16 z M116 180 h8 v1 h-8 z M132 180 h8 v1 h-8 z M148 180 h16 v1 h-16 z M172 180 h8 v1 h-8 z M204 180 h16 v1 h-16 z M76 181 h8 v1 h-8 z M92 181 h16 v1 h-16 z M116 181 h8 v1 h-8 z M132 181 h8 v1 h-8 z M148 181 h16 v1 h-16 z M172 181 h8 v1 h-8 z M204 181 h16 v1 h-16 z M76 182 h8 v1 h-8 z M92 182 h16 v1 h-16 z M116 182 h8 v1 h-8 z M132 182 h8 v1 h-8 z M148 182 h16 v1 h-16 z M172 182 h8 v1 h-8 z M204 182 h16 v1 h-16 z M76 183 h8 v1 h-8 z M92 183 h16 v1 h-16 z M116 183 h8 v1 h-8 z M132 183 h8 v1 h-8 z M148 183 h16 v1 h-16 z M172 183 h8 v1 h-8 z M204 183 h16 v1 h-16 z M76 184 h8 v1 h-8 z M92 184 h16 v1 h-16 z M116 184 h8 v1 h-8 z M132 184 h8 v1 h-8 z M148 184 h16 v1 h-16 z M172 184 h8 v1 h-8 z M204 184 h16 v1 h-16 z M76 185 h8 v1 h-8 z M92 185 h16 v1 h-16 z M116 185 h8 v1 h-8 z M132 185 h8 v1 h-8 z M148 185 h16 v1 h-16 z M172 185 h8 v1 h-8 z M204 185 h16 v1 h-16 z M76 186 h8 v1 h-8 z M92 186 h16 v1 h-16 z M116 186 h8 v1 h-8 z M132 186 h8 v1 h-8 z M148 186 h16 v1 h-16 z M172 186 h8 v1 h-8 z M204 186 h16 v1 h-16 z M76 187 h8 v1 h-8 z M92 187 h16 v1 h-16 z M116 187 h8 v1 h-8 z M132 187 h8 v1 h-8 z M148 187 h16 v1 h-16 z M172 187 h8 v1 h-8 z M204 187 h16 v1 h-16 z M12 188 h56 v1 h-56 z M92 188 h48 v1 h-48 z M164 188 h16 v1 h-16 z M188 188 h8 v1 h-8 z M204 188 h24 v1 h-24 z M12 189 h56 v1 h-56 z M92 189 h48 v1 h-48 z M164 189 h16 v1 h-16 z M188 189 h8 v1 h-8 z M204 189 h24 v1 h-24 z M12 190 h56 v1 h-56 z M92 190 h48 v1 h-48 z M164 190 h16 v1 h-16 z M188 190 h8 v1 h-8 z M204 190 h24 v1 h-24 z M12 191 h56 v1 h-56 z M92 191 h48 v1 h-48 z M164 191 h16 v1 h-16 z M188 191 h8 v1 h-8 z M204 191 h24 v1 h-24 z M12 192 h56 v1 h-56 z M92 192 h48 v1 h-48 z M164 192 h16 v1 h-16 z M188 192 h8 v1 h-8 z M204 192 h24 v1 h-24 z M12 193 h56 v1 h-56 z M92 193 h48 v1 h-48 z M164 193 h16 v1 h-16 z M188 193 h8 v1 h-8 z M204 193 h24 v1 h-24 z M12 194 h56 v1 h-56 z M92 194 h48 v1 h-48 z M164 194 h16 v1 h-16 z M188 194 h8 v1 h-8 z M204 194 h24 v1 h-24 z M12 195 h56 v1 h-56 z M92 195 h48 v1 h-48 z M164 195 h16 v1 h-16 z M188 195 h8 v1 h-8 z M204 195 h24 v1 h-24 z M12 196 h8 v1 h-8 z M60 196 h8 v1 h-8 z M84 196 h40 v1 h-40 z M132 196 h8 v1 h-8 z M156 196 h24 v1 h-24 z M204 196 h8 v1 h-8 z M228 196 h8 v1 h-8 z M12 197 h8 v1 h-8 z M60 197 h8 v1 h-8 z M84 197 h40 v1 h-40 z M132 197 h8 v1 h-8 z M156 197 h24 v1 h-24 z M204 197 h8 v1 h-8 z M228 197 h8 v1 h-8 z M12 198 h8 v1 h-8 z M60 198 h8 v1 h-8 z M84 198 h40 v1 h-40 z M132 198 h8 v1 h-8 z M156 198 h24 v1 h-24 z M204 198 h8 v1 h-8 z M228 198 h8 v1 h-8 z M12 199 h8 v1 h-8 z M60 199 h8 v1 h-8 z M84 199 h40 v1 h-40 z M132 199 h8 v1 h-8 z M156 199 h24 v1 h-24 z M204 199 h8 v1 h-8 z M228 199 h8 v1 h-8 z M12 200 h8 v1 h-8 z M60 200 h8 v1 h-8 z M84 200 h40 v1 h-40 z M132 200 h8 v1 h-8 z M156 200 h24 v1 h-24 z M204 200 h8 v1 h-8 z M228 200 h8 v1 h-8 z M12 201 h8 v1 h-8 z M60 201 h8 v1 h-8 z M84 201 h40 v1 h-40 z M132 201 h8 v1 h-8 z M156 201 h24 v1 h-24 z M204 201 h8 v1 h-8 z M228 201 h8 v1 h-8 z M12 202 h8 v1 h-8 z M60 202 h8 v1 h-8 z M84 202 h40 v1 h-40 z M132 202 h8 v1 h-8 z M156 202 h24 v1 h-24 z M204 202 h8 v1 h-8 z M228 202 h8 v1 h-8 z M12 203 h8 v1 h-8 z M60 203 h8 v1 h-8 z M84 203 h40 v1 h-40 z M132 203 h8 v1 h-8 z M156 203 h24 v1 h-24 z M204 203 h8 v1 h-8 z M228 203 h8 v1 h-8 z M12 204 h8 v1 h-8 z M28 204 h24 v1 h-24 z M60 204 h8 v1 h-8 z M92 204 h32 v1 h-32 z M132 204 h16 v1 h-16 z M164 204 h56 v1 h-56 z M236 204 h8 v1 h-8 z M12 205 h8 v1 h-8 z M28 205 h24 v1 h-24 z M60 205 h8 v1 h-8 z M92 205 h32 v1 h-32 z M132 205 h16 v1 h-16 z M164 205 h56 v1 h-56 z M236 205 h8 v1 h-8 z M12 206 h8 v1 h-8 z M28 206 h24 v1 h-24 z M60 206 h8 v1 h-8 z M92 206 h32 v1 h-32 z M132 206 h16 v1 h-16 z M164 206 h56 v1 h-56 z M236 206 h8 v1 h-8 z M12 207 h8 v1 h-8 z M28 207 h24 v1 h-24 z M60 207 h8 v1 h-8 z M92 207 h32 v1 h-32 z M132 207 h16 v1 h-16 z M164 207 h56 v1 h-56 z M236 207 h8 v1 h-8 z M12 208 h8 v1 h-8 z M28 208 h24 v1 h-24 z M60 208 h8 v1 h-8 z M92 208 h32 v1 h-32 z M132 208 h16 v1 h-16 z M164 208 h56 v1 h-56 z M236 208 h8 v1 h-8 z M12 209 h8 v1 h-8 z M28 209 h24 v1 h-24 z M60 209 h8 v1 h-8 z M92 209 h32 v1 h-32 z M132 209 h16 v1 h-16 z M164 209 h56 v1 h-56 z M236 209 h8 v1 h-8 z M12 210 h8 v1 h-8 z M28 210 h24 v1 h-24 z M60 210 h8 v1 h-8 z M92 210 h32 v1 h-32 z M132 210 h16 v1 h-16 z M164 210 h56 v1 h-56 z M236 210 h8 v1 h-8 z M12 211 h8 v1 h-8 z M28 211 h24 v1 h-24 z M60 211 h8 v1 h-8 z M92 211 h32 v1 h-32 z M132 211 h16 v1 h-16 z M164 211 h56 v1 h-56 z M236 211 h8 v1 h-8 z M12 212 h8 v1 h-8 z M28 212 h24 v1 h-24 z M60 212 h8 v1 h-8 z M92 212 h8 v1 h-8 z M108 212 h8 v1 h-8 z M132 212 h16 v1 h-16 z M156 212 h32 v1 h-32 z M212 212 h16 v1 h-16 z M236 212 h8 v1 h-8 z M12 213 h8 v1 h-8 z M28 213 h24 v1 h-24 z M60 213 h8 v1 h-8 z M92 213 h8 v1 h-8 z M108 213 h8 v1 h-8 z M132 213 h16 v1 h-16 z M156 213 h32 v1 h-32 z M212 213 h16 v1 h-16 z M236 213 h8 v1 h-8 z M12 214 h8 v1 h-8 z M28 214 h24 v1 h-24 z M60 214 h8 v1 h-8 z M92 214 h8 v1 h-8 z M108 214 h8 v1 h-8 z M132 214 h16 v1 h-16 z M156 214 h32 v1 h-32 z M212 214 h16 v1 h-16 z M236 214 h8 v1 h-8 z M12 215 h8 v1 h-8 z M28 215 h24 v1 h-24 z M60 215 h8 v1 h-8 z M92 215 h8 v1 h-8 z M108 215 h8 v1 h-8 z M132 215 h16 v1 h-16 z M156 215 h32 v1 h-32 z M212 215 h16 v1 h-16 z M236 215 h8 v1 h-8 z M12 216 h8 v1 h-8 z M28 216 h24 v1 h-24 z M60 216 h8 v1 h-8 z M92 216 h8 v1 h-8 z M108 216 h8 v1 h-8 z M132 216 h16 v1 h-16 z M156 216 h32 v1 h-32 z M212 216 h16 v1 h-16 z M236 216 h8 v1 h-8 z M12 217 h8 v1 h-8 z M28 217 h24 v1 h-24 z M60 217 h8 v1 h-8 z M92 217 h8 v1 h-8 z M108 217 h8 v1 h-8 z M132 217 h16 v1 h-16 z M156 217 h32 v1 h-32 z M212 217 h16 v1 h-16 z M236 217 h8 v1 h-8 z M12 218 h8 v1 h-8 z M28 218 h24 v1 h-24 z M60 218 h8 v1 h-8 z M92 218 h8 v1 h-8 z M108 218 h8 v1 h-8 z M132 218 h16 v1 h-16 z M156 218 h32 v1 h-32 z M212 218 h16 v1 h-16 z M236 218 h8 v1 h-8 z M12 219 h8 v1 h-8 z M28 219 h24 v1 h-24 z M60 219 h8 v1 h-8 z M92 219 h8 v1 h-8 z M108 219 h8 v1 h-8 z M132 219 h16 v1 h-16 z M156 219 h32 v1 h-32 z M212 219 h16 v1 h-16 z M236 219 h8 v1 h-8 z M12 220 h8 v1 h-8 z M28 220 h24 v1 h-24 z M60 220 h8 v1 h-8 z M92 220 h8 v1 h-8 z M108 220 h8 v1 h-8 z M132 220 h104 v1 h-104 z M12 221 h8 v1 h-8 z M28 221 h24 v1 h-24 z M60 221 h8 v1 h-8 z M92 221 h8 v1 h-8 z M108 221 h8 v1 h-8 z M132 221 h104 v1 h-104 z M12 222 h8 v1 h-8 z M28 222 h24 v1 h-24 z M60 222 h8 v1 h-8 z M92 222 h8 v1 h-8 z M108 222 h8 v1 h-8 z M132 222 h104 v1 h-104 z M12 223 h8 v1 h-8 z M28 223 h24 v1 h-24 z M60 223 h8 v1 h-8 z M92 223 h8 v1 h-8 z M108 223 h8 v1 h-8 z M132 223 h104 v1 h-104 z M12 224 h8 v1 h-8 z M28 224 h24 v1 h-24 z M60 224 h8 v1 h-8 z M92 224 h8 v1 h-8 z M108 224 h8 v1 h-8 z M132 224 h104 v1 h-104 z M12 225 h8 v1 h-8 z M28 225 h24 v1 h-24 z M60 225 h8 v1 h-8 z M92 225 h8 v1 h-8 z M108 225 h8 v1 h-8 z M132 225 h104 v1 h-104 z M12 226 h8 v1 h-8 z M28 226 h24 v1 h-24 z M60 226 h8 v1 h-8 z M92 226 h8 v1 h-8 z M108 226 h8 v1 h-8 z M132 226 h104 v1 h-104 z M12 227 h8 v1 h-8 z M28 227 h24 v1 h-24 z M60 227 h8 v1 h-8 z M92 227 h8 v1 h-8 z M108 227 h8 v1 h-8 z M132 227 h104 v1 h-104 z M12 228 h8 v1 h-8 z M60 228 h8 v1 h-8 z M100 228 h8 v1 h-8 z M124 228 h16 v1 h-16 z M188 228 h16 v1 h-16 z M212 228 h16 v1 h-16 z M236 228 h8 v1 h-8 z M12 229 h8 v1 h-8 z M60 229 h8 v1 h-8 z M100 229 h8 v1 h-8 z M124 229 h16 v1 h-16 z M188 229 h16 v1 h-16 z M212 229 h16 v1 h-16 z M236 229 h8 v1 h-8 z M12 230 h8 v1 h-8 z M60 230 h8 v1 h-8 z M100 230 h8 v1 h-8 z M124 230 h16 v1 h-16 z M188 230 h16 v1 h-16 z M212 230 h16 v1 h-16 z M236 230 h8 v1 h-8 z M12 231 h8 v1 h-8 z M60 231 h8 v1 h-8 z M100 231 h8 v1 h-8 z M124 231 h16 v1 h-16 z M188 231 h16 v1 h-16 z M212 231 h16 v1 h-16 z M236 231 h8 v1 h-8 z M12 232 h8 v1 h-8 z M60 232 h8 v1 h-8 z M100 232 h8 v1 h-8 z M124 232 h16 v1 h-16 z M188 232 h16 v1 h-16 z M212 232 h16 v1 h-16 z M236 232 h8 v1 h-8 z M12 233 h8 v1 h-8 z M60 233 h8 v1 h-8 z M100 233 h8 v1 h-8 z M124 233 h16 v1 h-16 z M188 233 h16 v1 h-16 z M212 233 h16 v1 h-16 z M236 233 h8 v1 h-8 z M12 234 h8 v1 h-8 z M60 234 h8 v1 h-8 z M100 234 h8 v1 h-8 z M124 234 h16 v1 h-16 z M188 234 h16 v1 h-16 z M212 234 h16 v1 h-16 z M236 234 h8 v1 h-8 z M12 235 h8 v1 h-8 z M60 235 h8 v1 h-8 z M100 235 h8 v1 h-8 z M124 235 h16 v1 h-16 z M188 235 h16 v1 h-16 z M212 235 h16 v1 h-16 z M236 235 h8 v1 h-8 z M12 236 h56 v1 h-56 z M76 236 h40 v1 h-40 z M140 236 h8 v1 h-8 z M164 236 h8 v1 h-8 z M188 236 h24 v1 h-24 z M220 236 h8 v1 h-8 z M12 237 h56 v1 h-56 z M76 237 h40 v1 h-40 z M140 237 h8 v1 h-8 z M164 237 h8 v1 h-8 z M188 237 h24 v1 h-24 z M220 237 h8 v1 h-8 z M12 238 h56 v1 h-56 z M76 238 h40 v1 h-40 z M140 238 h8 v1 h-8 z M164 238 h8 v1 h-8 z M188 238 h24 v1 h-24 z M220 238 h8 v1 h-8 z M12 239 h56 v1 h-56 z M76 239 h40 v1 h-40 z M140 239 h8 v1 h-8 z M164 239 h8 v1 h-8 z M188 239 h24 v1 h-24 z M220 239 h8 v1 h-8 z M12 240 h56 v1 h-56 z M76 240 h40 v1 h-40 z M140 240 h8 v1 h-8 z M164 240 h8 v1 h-8 z M188 240 h24 v1 h-24 z M220 240 h8 v1 h-8 z M12 241 h56 v1 h-56 z M76 241 h40 v1 h-40 z M140 241 h8 v1 h-8 z M164 241 h8 v1 h-8 z M188 241 h24 v1 h-24 z M220 241 h8 v1 h-8 z M12 242 h56 v1 h-56 z M76 242 h40 v1 h-40 z M140 242 h8 v1 h-8 z M164 242 h8 v1 h-8 z M188 242 h24 v1 h-24 z M220 242 h8 v1 h-8 z M12 243 h56 v1 h-56 z M76 243 h40 v1 h-40 z M140 243 h8 v1 h-8 z M164 243 h8 v1 h-8 z M188 243 h24 v1 h-24 z M220 243 h8 v1 h-8 z " fill="black"/>
  
</svg>