<svg viewBox="0 0 256 256" xmlns="http://www.w3.org/2000/svg" shape-rendering="crispEdges">
  <rect width="256" height="256" fill="none"/>
  <path d="M2 2 h84 v1 h-84 z M98 2 h24 v1 h-24 z M134 2 h12 v1 h-12 z M170 2 h84 v1 h-84 z M2 3 h84 v1 h-84 z M98 3 h24 v1 h-24 z M134 3 h12 v1 h-12 z M170 3 h84 v1 h-84 z M2 4 h84 v1 h-84 z M98 4 h24 v1 h-24 z M134 4 h12 v1 h-12 z M170 4 h84 v1 h-84 z M2 5 h84 v1 h-84 z M98 5 h24 v1 h-24 z M134 5 h12 v1 h-12 z M170 5 h84 v1 h-84 z M2 6 h84 v1 h-84 z M98 6 h24 v1 h-24 z M134 6 h12 v1 h-12 z M170 6 h84 v1 h-84 z M2 7 h84 v1 h-84 z M98 7 h24 v1 h-24 z M134 7 h12 v1 h-12 z M170 7 h84 v1 h-84 z M2 8 h84 v1 h-84 z M98 8 h24 v1 h-24 z M134 8 h12 v1 h-12 z M170 8 h84 v1 h-84 z M2 9 h84 v1 h-84 z M98 9 h24 v1 h-24 z M134 9 h12 v1 h-12 z M170 9 h84 v1 h-84 z M2 10 h84 v1 h-84 z M98 10 h24 v1 h-24 z M134 10 h12 v1 h-12 z M170 10 h84 v1 h-84 z M2 11 h84 v1 h-84 z M98 11 h24 v1 h-24 z M134 11 h12 v1 h-12 z M170 11 h84 v1 h-84 z M2 12 h84 v1 h-84 z M98 12 h24 v1 h-24 z M134 12 h12 v1 h-12 z M170 12 h84 v1 h-84 z M2 13 h84 v1 h-84 z M98 13 h24 v1 h-24 z M134 13 h12 v1 h-12 z M170 13 h84 v1 h-84 z M2 14 h12 v1 h-12 z M74 14 h12 v1 h-12 z M134 14 h12 v1 h-12 z M170 14 h12 v1 h-12 z M242 14 h12 v1 h-12 z M2 15 h12 v1 h-12 z M74 15 h12 v1 h-12 z M134 15 h12 v1 h-12 z M170 15 h12 v1 h-12 z M242 15 h12 v1 h-12 z M2 16 h12 v1 h-12 z M74 16 h12 v1 h-12 z M134 16 h12 v1 h-12 z M170 16 h12 v1 h-12 z M242 16 h12 v1 h-12 z M2 17 h12 v1 h-12 z M74 17 h12 v1 h-12 z M134 17 h12 v1 h-12 z M170 17 h12 v1 h-12 z M242 17 h12 v1 h-12 z M2 18 h12 v1 h-12 z M74 18 h12 v1 h-12 z M134 18 h12 v1 h-12 z M170 18 h12 v1 h-12 z M242 18 h12 v1 h-12 z M2 19 h12 v1 h-12 z M74 19 h12 v1 h-12 z M134 19 h12 v1 h-12 z M170 19 h12 v1 h-12 z M242 19 h12 v1 h-12 z M2 20 h12 v1 h-12 z M74 20 h12 v1 h-12 z M134 20 h12 v1 h-12 z M170 20 h12 v1 h-12 z M242 20 h12 v1 h-12 z M2 21 h12 v1 h-12 z M74 21 h12 v1 h-12 z M134 21 h12 v1 h-12 z M170 21 h12 v1 h-12 z M242 21 h12 v1 h-12 z M2 22 h12 v1 h-12 z M74 22 h12 v1 h-12 z M134 22 h12 v1 h-12 z M170 22 h12 v1 h-12 z M242 22 h12 v1 h-12 z M2 23 h12 v1 h-12 z M74 23 h12 v1 h-12 z M134 23 h12 v1 h-12 z M170 23 h12 v1 h-12 z M242 23 h12 v1 h-12 z M2 24 h12 v1 h-12 z M74 24 h12 v1 h-12 z M134 24 h12 v1 h-12 z M170 24 h12 v1 h-12 z M242 24 h12 v1 h-12 z M2 25 h12 v1 h-12 z M74 25 h12 v1 h-12 z M134 25 h12 v1 h-12 z M170 25 h12 v1 h-12 z M242 25 h12 v1 h-12 z M2 26 h12 v1 h-12 z M26 26 h36 v1 h-36 z M74 26 h12 v1 h-12 z M122 26 h12 v1 h-12 z M146 26 h12 v1 h-12 z M170 26 h12 v1 h-12 z M194 26 h36 v1 h-36 z M242 26 h12 v1 h-12 z M2 27 h12 v1 h-12 z M26 27 h36 v1 h-36 z M74 27 h12 v1 h-12 z M122 27 h12 v1 h-12 z M146 27 h12 v1 h-12 z M170 27 h12 v1 h-12 z M194 27 h36 v1 h-36 z M242 27 h12 v1 h-12 z M2 28 h12 v1 h-12 z M26 28 h36 v1 h-36 z M74 28 h12 v1 h-12 z M122 28 h12 v1 h-12 z M146 28 h12 v1 h-12 z M170 28 h12 v1 h-12 z M194 28 h36 v1 h-36 z M242 28 h12 v1 h-12 z M2 29 h12 v1 h-12 z M26 29 h36 v1 h-36 z M74 29 h12 v1 h-12 z M122 29 h12 v1 h-12 z M146 29 h12 v1 h-12 z M170 29 h12 v1 h-12 z M194 29 h36 v1 h-36 z M242 29 h12 v1 h-12 z M2 30 h12 v1 h-12 z M26 30 h36 v1 h-36 z M74 30 h12 v1 h-12 z M122 30 h12 v1 h-12 z M146 30 h12 v1 h-12 z M170 30 h12 v1 h-12 z M194 30 h36 v1 h-36 z M242 30 h12 v1 h-12 z M2 31 h12 v1 h-12 z M26 31 h36 v1 h-36 z M74 31 h12 v1 h-12 z M122 31 h12 v1 h-12 z M146 31 h12 v1 h-12 z M170 31 h12 v1 h-12 z M194 31 h36 v1 h-36 z M242 31 h12 v1 h-12 z M2 32 h12 v1 h-12 z M26 32 h36 v1 h-36 z M74 32 h12 v1 h-12 z M122 32 h12 v1 h-12 z M146 32 h12 v1 h-12 z M170 32 h12 v1 h-12 z M194 32 h36 v1 h-36 z M242 32 h12 v1 h-12 z M2 33 h12 v1 h-12 z M26 33 h36 v1 h-36 z M74 33 h12 v1 h-12 z M122 33 h12 v1 h-12 z M146 33 h12 v1 h-12 z M170 33 h12 v1 h-12 z M194 33 h36 v1 h-36 z M242 33 h12 v1 h-12 z M2 34 h12 v1 h-12 z M26 34 h36 v1 h-36 z M74 34 h12 v1 h-12 z M122 34 h12 v1 h-12 z M146 34 h12 v1 h-12 z M170 34 h12 v1 h-12 z M194 34 h36 v1 h-36 z M242 34 h12 v1 h-12 z M2 35 h12 v1 h-12 z M26 35 h36 v1 h-36 z M74 35 h12 v1 h-12 z M122 35 h12 v1 h-12 z M146 35 h12 v1 h-12 z M170 35 h12 v1 h-12 z M194 35 h36 v1 h-36 z M242 35 h12 v1 h-12 z M2 36 h12 v1 h-12 z M26 36 h36 v1 h-36 z M74 36 h12 v1 h-12 z M122 36 h12 v1 h-12 z M146 36 h12 v1 h-12 z M170 36 h12 v1 h-12 z M194 36 h36 v1 h-36 z M242 36 h12 v1 h-12 z M2 37 h12 v1 h-12 z M26 37 h36 v1 h-36 z M74 37 h12 v1 h-12 z M122 37 h12 v1 h-12 z M146 37 h12 v1 h-12 z M170 37 h12 v1 h-12 z M194 37 h36 v1 h-36 z M242 37 h12 v1 h-12 z M2 38 h12 v1 h-12 z M26 38 h36 v1 h-36 z M74 38 h12 v1 h-12 z M98 38 h24 v1 h-24 z M134 38 h24 v1 h-24 z M170 38 h12 v1 h-12 z M194 38 h36 v1 h-36 z M242 38 h12 v1 h-12 z M2 39 h12 v1 h-12 z M26 39 h36 v1 h-36 z M74 39 h12 v1 h-12 z M98 39 h24 v1 h-24 z M134 39 h24 v1 h-24 z M170 39 h12 v1 h-12 z M194 39 h36 v1 h-36 z M242 39 h12 v1 h-12 z M2 40 h12 v1 h-12 z M26 40 h36 v1 h-36 z M74 40 h12 v1 h-12 z M98 40 h24 v1 h-24 z M134 40 h24 v1 h-24 z M170 40 h12 v1 h-12 z M194 40 h36 v1 h-36 z M242 40 h12 v1 h-12 z M2 41 h12 v1 h-12 z M26 41 h36 v1 h-36 z M74 41 h12 v1 h-12 z M98 41 h24 v1 h-24 z M134 41 h24 v1 h-24 z M170 41 h12 v1 h-12 z M194 41 h36 v1 h-36 z M242 41 h12 v1 h-12 z M2 42 h12 v1 h-12 z M26 42 h36 v1 h-36 z M74 42 h12 v1 h-12 z M98 42 h24 v1 h-24 z M134 42 h24 v1 h-24 z M170 42 h12 v1 h-12 z M194 42 h36 v1 h-36 z M242 42 h12 v1 h-12 z M2 43 h12 v1 h-12 z M26 43 h36 v1 h-36 z M74 43 h12 v1 h-12 z M98 43 h24 v1 h-24 z M134 43 h24 v1 h-24 z M170 43 h12 v1 h-12 z M194 43 h36 v1 h-36 z M242 43 h12 v1 h-12 z M2 44 h12 v1 h-12 z M26 44 h36 v1 h-36 z M74 44 h12 v1 h-12 z M98 44 h24 v1 h-24 z M134 44 h24 v1 h-24 z M170 44 h12 v1 h-12 z M194 44 h36 v1 h-36 z M242 44 h12 v1 h-12 z M2 45 h12 v1 h-12 z M26 45 h36 v1 h-36 z M74 45 h12 v1 h-12 z M98 45 h24 v1 h-24 z M134 45 h24 v1 h-24 z M170 45 h12 v1 h-12 z M194 45 h36 v1 h-36 z M242 45 h12 v1 h-12 z M2 46 h12 v1 h-12 z M26 46 h36 v1 h-36 z M74 46 h12 v1 h-12 z M98 46 h24 v1 h-24 z M134 46 h24 v1 h-24 z M170 46 h12 v1 h-12 z M194 46 h36 v1 h-36 z M242 46 h12 v1 h-12 z M2 47 h12 v1 h-12 z M26 47 h36 v1 h-36 z M74 47 h12 v1 h-12 z M98 47 h24 v1 h-24 z M134 47 h24 v1 h-24 z M170 47 h12 v1 h-12 z M194 47 h36 v1 h-36 z M242 47 h12 v1 h-12 z M2 48 h12 v1 h-12 z M26 48 h36 v1 h-36 z M74 48 h12 v1 h-12 z M98 48 h24 v1 h-24 z M134 48 h24 v1 h-24 z M170 48 h12 v1 h-12 z M194 48 h36 v1 h-36 z M242 48 h12 v1 h-12 z M2 49 h12 v1 h-12 z M26 49 h36 v1 h-36 z M74 49 h12 v1 h-12 z M98 49 h24 v1 h-24 z M134 49 h24 v1 h-24 z M170 49 h12 v1 h-12 z M194 49 h36 v1 h-36 z M242 49 h12 v1 h-12 z M2 50 h12 v1 h-12 z M26 50 h36 v1 h-36 z M74 50 h12 v1 h-12 z M98 50 h24 v1 h-24 z M146 50 h12 v1 h-12 z M170 50 h12 v1 h-12 z M194 50 h36 v1 h-36 z M242 50 h12 v1 h-12 z M2 51 h12 v1 h-12 z M26 51 h36 v1 h-36 z M74 51 h12 v1 h-12 z M98 51 h24 v1 h-24 z M146 51 h12 v1 h-12 z M170 51 h12 v1 h-12 z M194 51 h36 v1 h-36 z M242 51 h12 v1 h-12 z M2 52 h12 v1 h-12 z M26 52 h36 v1 h-36 z M74 52 h12 v1 h-12 z M98 52 h24 v1 h-24 z M146 52 h12 v1 h-12 z M170 52 h12 v1 h-12 z M194 52 h36 v1 h-36 z M242 52 h12 v1 h-12 z M2 53 h12 v1 h-12 z M26 53 h36 v1 h-36 z M74 53 h12 v1 h-12 z M98 53 h24 v1 h-24 z M146 53 h12 v1 h-12 z M170 53 h12 v1 h-12 z M194 53 h36 v1 h-36 z M242 53 h12 v1 h-12 z M2 54 h12 v1 h-12 z M26 54 h36 v1 h-36 z M74 54 h12 v1 h-12 z M98 54 h24 v1 h-24 z M146 54 h12 v1 h-12 z M170 54 h12 v1 h-12 z M194 54 h36 v1 h-36 z M242 54 h12 v1 h-12 z M2 55 h12 v1 h-12 z M26 55 h36 v1 h-36 z M74 55 h12 v1 h-12 z M98 55 h24 v1 h-24 z M146 55 h12 v1 h-12 z M170 55 h12 v1 h-12 z M194 55 h36 v1 h-36 z M242 55 h12 v1 h-12 z M2 56 h12 v1 h-12 z M26 56 h36 v1 h-36 z M74 56 h12 v1 h-12 z M98 56 h24 v1 h-24 z M146 56 h12 v1 h-12 z M170 56 h12 v1 h-12 z M194 56 h36 v1 h-36 z M242 56 h12 v1 h-12 z M2 57 h12 v1 h-12 z M26 57 h36 v1 h-36 z M74 57 h12 v1 h-12 z M98 57 h24 v1 h-24 z M146 57 h12 v1 h-12 z M170 57 h12 v1 h-12 z M194 57 h36 v1 h-36 z M242 57 h12 v1 h-12 z M2 58 h12 v1 h-12 z M26 58 h36 v1 h-36 z M74 58 h12 v1 h-12 z M98 58 h24 v1 h-24 z M146 58 h12 v1 h-12 z M170 58 h12 v1 h-12 z M194 58 h36 v1 h-36 z M242 58 h12 v1 h-12 z M2 59 h12 v1 h-12 z M26 59 h36 v1 h-36 z M74 59 h12 v1 h-12 z M98 59 h24 v1 h-24 z M146 59 h12 v1 h-12 z M170 59 h12 v1 h-12 z M194 59 h36 v1 h-36 z M242 59 h12 v1 h-12 z M2 60 h12 v1 h-12 z M26 60 h36 v1 h-36 z M74 60 h12 v1 h-12 z M98 60 h24 v1 h-24 z M146 60 h12 v1 h-12 z M170 60 h12 v1 h-12 z M194 60 h36 v1 h-36 z M242 60 h12 v1 h-12 z M2 61 h12 v1 h-12 z M26 61 h36 v1 h-36 z M74 61 h12 v1 h-12 z M98 61 h24 v1 h-24 z M146 61 h12 v1 h-12 z M170 61 h12 v1 h-12 z M194 61 h36 v1 h-36 z M242 61 h12 v1 h-12 z M2 62 h12 v1 h-12 z M74 62 h12 v1 h-12 z M98 62 h12 v1 h-12 z M122 62 h12 v1 h-12 z M146 62 h12 v1 h-12 z M170 62 h12 v1 h-12 z M242 62 h12 v1 h-12 z M2 63 h12 v1 h-12 z M74 63 h12 v1 h-12 z M98 63 h12 v1 h-12 z M122 63 h12 v1 h-12 z M146 63 h12 v1 h-12 z M170 63 h12 v1 h-12 z M242 63 h12 v1 h-12 z M2 64 h12 v1 h-12 z M74 64 h12 v1 h-12 z M98 64 h12 v1 h-12 z M122 64 h12 v1 h-12 z M146 64 h12 v1 h-12 z M170 64 h12 v1 h-12 z M242 64 h12 v1 h-12 z M2 65 h12 v1 h-12 z M74 65 h12 v1 h-12 z M98 65 h12 v1 h-12 z M122 65 h12 v1 h-12 z M146 65 h12 v1 h-12 z M170 65 h12 v1 h-12 z M242 65 h12 v1 h-12 z M2 66 h12 v1 h-12 z M74 66 h12 v1 h-12 z M98 66 h12 v1 h-12 z M122 66 h12 v1 h-12 z M146 66 h12 v1 h-12 z M170 66 h12 v1 h-12 z M242 66 h12 v1 h-12 z M2 67 h12 v1 h-12 z M74 67 h12 v1 h-12 z M98 67 h12 v1 h-12 z M122 67 h12 v1 h-12 z M146 67 h12 v1 h-12 z M170 67 h12 v1 h-12 z M242 67 h12 v1 h-12 z M2 68 h12 v1 h-12 z M74 68 h12 v1 h-12 z M98 68 h12 v1 h-12 z M122 68 h12 v1 h-12 z M146 68 h12 v1 h-12 z M170 68 h12 v1 h-12 z M242 68 h12 v1 h-12 z M2 69 h12 v1 h-12 z M74 69 h12 v1 h-12 z M98 69 h12 v1 h-12 z M122 69 h12 v1 h-12 z M146 69 h12 v1 h-12 z M170 69 h12 v1 h-12 z M242 69 h12 v1 h-12 z M2 70 h12 v1 h-12 z M74 70 h12 v1 h-12 z M98 70 h12 v1 h-12 z M122 70 h12 v1 h-12 z M146 70 h12 v1 h-12 z M170 70 h12 v1 h-12 z M242 70 h12 v1 h-12 z M2 71 h12 v1 h-12 z M74 71 h12 v1 h-12 z M98 71 h12 v1 h-12 z M122 71 h12 v1 h-12 z M146 71 h12 v1 h-12 z M170 71 h12 v1 h-12 z M242 71 h12 v1 h-12 z M2 72 h12 v1 h-12 z M74 72 h12 v1 h-12 z M98 72 h12 v1 h-12 z M122 72 h12 v1 h-12 z M146 72 h12 v1 h-12 z M170 72 h12 v1 h-12 z M242 72 h12 v1 h-12 z M2 73 h12 v1 h-12 z M74 73 h12 v1 h-12 z M98 73 h12 v1 h-12 z M122 73 h12 v1 h-12 z M146 73 h12 v1 h-12 z M170 73 h12 v1 h-12 z M242 73 h12 v1 h-12 z M2 74 h84 v1 h-84 z M98 74 h12 v1 h-12 z M122 74 h12 v1 h-12 z M146 74 h12 v1 h-12 z M170 74 h84 v1 h-84 z M2 75 h84 v1 h-84 z M98 75 h12 v1 h-12 z M122 75 h12 v1 h-12 z M146 75 h12 v1 h-12 z M170 75 h84 v1 h-84 z M2 76 h84 v1 h-84 z M98 76 h12 v1 h-12 z M122 76 h12 v1 h-12 z M146 76 h12 v1 h-12 z M170 76 h84 v1 h-84 z M2 77 h84 v1 h-84 z M98 77 h12 v1 h-12 z M122 77 h12 v1 h-12 z M146 77 h12 v1 h-12 z M170 77 h84 v1 h-84 z M2 78 h84 v1 h-84 z M98 78 h12 v1 h-12 z M122 78 h12 v1 h-12 z M146 78 h12 v1 h-12 z M170 78 h84 v1 h-84 z M2 79 h84 v1 h-84 z M98 79 h12 v1 h-12 z M122 79 h12 v1 h-12 z M146 79 h12 v1 h-12 z M170 79 h84 v1 h-84 z M2 80 h84 v1 h-84 z M98 80 h12 v1 h-12 z M122 80 h12 v1 h-12 z M146 80 h12 v1 h-12 z M170 80 h84 v1 h-84 z M2 81 h84 v1 h-84 z M98 81 h12 v1 h-12 z M122 81 h12 v1 h-12 z M146 81 h12 v1 h-12 z M170 81 h84 v1 h-84 z M2 82 h84 v1 h-84 z M98 82 h12 v1 h-12 z M122 82 h12 v1 h-12 z M146 82 h12 v1 h-12 z M170 82 h84 v1 h-84 z M2 83 h84 v1 h-84 z M98 83 h12 v1 h-12 z M122 83 h12 v1 h-12 z M146 83 h12 v1 h-12 z M170 83 h84 v1 h-84 z M2 84 h84 v1 h-84 z M98 84 h12 v1 h-12 z M122 84 h12 v1 h-12 z M146 84 h12 v1 h-12 z M170 84 h84 v1 h-84 z M2 85 h84 v1 h-84 z M98 85 h12 v1 h-12 z M122 85 h12 v1 h-12 z M146 85 h12 v1 h-12 z M170 85 h84 v1 h-84 z M98 86 h60 v1 h-60 z M98 87 h60 v1 h-60 z M98 88 h60 v1 h-60 z M98 89 h60 v1 h-60 z M98 90 h60 v1 h-60 z M98 91 h60 v1 h-60 z M98 92 h60 v1 h-60 z M98 93 h60 v1 h-60 z M98 94 h60 v1 h-60 z M98 95 h60 v1 h-60 z M98 96 h60 v1 h-60 z M98 97 h60 v1 h-60 z M2 98 h12 v1 h-12 z M50 98 h12 v1 h-12 z M74 98 h60 v1 h-60 z M146 98 h72 v1 h-72 z M242 98 h12 v1 h-12 z M2 99 h12 v1 h-12 z M50 99 h12 v1 h-12 z M74 99 h60 v1 h-60 z M146 99 h72 v1 h-72 z M242 99 h12 v1 h-12 z M2 100 h12 v1 h-12 z M50 100 h12 v1 h-12 z M74 100 h60 v1 h-60 z M146 100 h72 v1 h-72 z M242 100 h12 v1 h-12 z M2 101 h12 v1 h-12 z M50 101 h12 v1 h-12 z M74 101 h60 v1 h-60 z M146 101 h72 v1 h-72 z M242 101 h12 v1 h-12 z M2 102 h12 v1 h-12 z M50 102 h12 v1 h-12 z M74 102 h60 v1 h-60 z M146 102 h72 v1 h-72 z M242 102 h12 v1 h-12 z M2 103 h12 v1 h-12 z M50 103 h12 v1 h-12 z M74 103 h60 v1 h-60 z M146 103 h72 v1 h-72 z M242 103 h12 v1 h-12 z M2 104 h12 v1 h-12 z M50 104 h12 v1 h-12 z M74 104 h60 v1 h-60 z M146 104 h72 v1 h-72 z M242 104 h12 v1 h-12 z M2 105 h12 v1 h-12 z M50 105 h12 v1 h-12 z M74 105 h60 v1 h-60 z M146 105 h72 v1 h-72 z M242 105 h12 v1 h-12 z M2 106 h12 v1 h-12 z M50 106 h12 v1 h-12 z M74 106 h60 v1 h-60 z M146 106 h72 v1 h-72 z M242 106 h12 v1 h-12 z M2 107 h12 v1 h-12 z M50 107 h12 v1 h-12 z M74 107 h60 v1 h-60 z M146 107 h72 v1 h-72 z M242 107 h12 v1 h-12 z M2 108 h12 v1 h-12 z M50 108 h12 v1 h-12 z M74 108 h60 v1 h-60 z M146 108 h72 v1 h-72 z M242 108 h12 v1 h-12 z M2 109 h12 v1 h-12 z M50 109 h12 v1 h-12 z M74 109 h60 v1 h-60 z M146 109 h72 v1 h-72 z M242 109 h12 v1 h-12 z M2 110 h12 v1 h-12 z M50 110 h24 v1 h-24 z M86 110 h24 v1 h-24 z M122 110 h84 v1 h-84 z M218 110 h12 v1 h-12 z M2 111 h12 v1 h-12 z M50 111 h24 v1 h-24 z M86 111 h24 v1 h-24 z M122 111 h84 v1 h-84 z M218 111 h12 v1 h-12 z M2 112 h12 v1 h-12 z M50 112 h24 v1 h-24 z M86 112 h24 v1 h-24 z M122 112 h84 v1 h-84 z M218 112 h12 v1 h-12 z M2 113 h12 v1 h-12 z M50 113 h24 v1 h-24 z M86 113 h24 v1 h-24 z M122 113 h84 v1 h-84 z M218 113 h12 v1 h-12 z M2 114 h12 v1 h-12 z M50 114 h24 v1 h-24 z M86 114 h24 v1 h-24 z M122 114 h84 v1 h-84 z M218 114 h12 v1 h-12 z M2 115 h12 v1 h-12 z M50 115 h24 v1 h-24 z M86 115 h24 v1 h-24 z M122 115 h84 v1 h-84 z M218 115 h12 v1 h-12 z M2 116 h12 v1 h-12 z M50 116 h24 v1 h-24 z M86 116 h24 v1 h-24 z M122 116 h84 v1 h-84 z M218 116 h12 v1 h-12 z M2 117 h12 v1 h-12 z M50 117 h24 v1 h-24 z M86 117 h24 v1 h-24 z M122 117 h84 v1 h-84 z M218 117 h12 v1 h-12 z M2 118 h12 v1 h-12 z M50 118 h24 v1 h-24 z M86 118 h24 v1 h-24 z M122 118 h84 v1 h-84 z M218 118 h12 v1 h-12 z M2 119 h12 v1 h-12 z M50 119 h24 v1 h-24 z M86 119 h24 v1 h-24 z M122 119 h84 v1 h-84 z M218 119 h12 v1 h-12 z M2 120 h12 v1 h-12 z M50 120 h24 v1 h-24 z M86 120 h24 v1 h-24 z M122 120 h84 v1 h-84 z M218 120 h12 v1 h-12 z M2 121 h12 v1 h-12 z M50 121 h24 v1 h-24 z M86 121 h24 v1 h-24 z M122 121 h84 v1 h-84 z M218 121 h12 v1 h-12 z M14 122 h36 v1 h-36 z M74 122 h24 v1 h-24 z M110 122 h12 v1 h-12 z M170 122 h12 v1 h-12 z M194 122 h48 v1 h-48 z M14 123 h36 v1 h-36 z M74 123 h24 v1 h-24 z M110 123 h12 v1 h-12 z M170 123 h12 v1 h-12 z M194 123 h48 v1 h-48 z M14 124 h36 v1 h-36 z M74 124 h24 v1 h-24 z M110 124 h12 v1 h-12 z M170 124 h12 v1 h-12 z M194 124 h48 v1 h-48 z M14 125 h36 v1 h-36 z M74 125 h24 v1 h-24 z M110 125 h12 v1 h-12 z M170 125 h12 v1 h-12 z M194 125 h48 v1 h-48 z M14 126 h36 v1 h-36 z M74 126 h24 v1 h-24 z M110 126 h12 v1 h-12 z M170 126 h12 v1 h-12 z M194 126 h48 v1 h-48 z M14 127 h36 v1 h-36 z M74 127 h24 v1 h-24 z M110 127 h12 v1 h-12 z M170 127 h12 v1 h-12 z M194 127 h48 v1 h-48 z M14 128 h36 v1 h-36 z M74 128 h24 v1 h-24 z M110 128 h12 v1 h-12 z M170 128 h12 v1 h-12 z M194 128 h48 v1 h-48 z M14 129 h36 v1 h-36 z M74 129 h24 v1 h-24 z M110 129 h12 v1 h-12 z M170 129 h12 v1 h-12 z M194 129 h48 v1 h-48 z M14 130 h36 v1 h-36 z M74 130 h24 v1 h-24 z M110 130 h12 v1 h-12 z M170 130 h12 v1 h-12 z M194 130 h48 v1 h-48 z M14 131 h36 v1 h-36 z M74 131 h24 v1 h-24 z M110 131 h12 v1 h-12 z M170 131 h12 v1 h-12 z M194 131 h48 v1 h-48 z M14 132 h36 v1 h-36 z M74 132 h24 v1 h-24 z M110 132 h12 v1 h-12 z M170 132 h12 v1 h-12 z M194 132 h48 v1 h-48 z M14 133 h36 v1 h-36 z M74 133 h24 v1 h-24 z M110 133 h12 v1 h-12 z M170 133 h12 v1 h-12 z M194 133 h48 v1 h-48 z M38 134 h24 v1 h-24 z M86 134 h12 v1 h-12 z M122 134 h12 v1 h-12 z M158 134 h12 v1 h-12 z M194 134 h12 v1 h-12 z M38 135 h24 v1 h-24 z M86 135 h12 v1 h-12 z M122 135 h12 v1 h-12 z M158 135 h12 v1 h-12 z M194 135 h12 v1 h-12 z M38 136 h24 v1 h-24 z M86 136 h12 v1 h-12 z M122 136 h12 v1 h-12 z M158 136 h12 v1 h-12 z M194 136 h12 v1 h-12 z M38 137 h24 v1 h-24 z M86 137 h12 v1 h-12 z M122 137 h12 v1 h-12 z M158 137 h12 v1 h-12 z M194 137 h12 v1 h-12 z M38 138 h24 v1 h-24 z M86 138 h12 v1 h-12 z M122 138 h12 v1 h-12 z M158 138 h12 v1 h-12 z M194 138 h12 v1 h-12 z M38 139 h24 v1 h-24 z M86 139 h12 v1 h-12 z M122 139 h12 v1 h-12 z M158 139 h12 v1 h-12 z M194 139 h12 v1 h-12 z M38 140 h24 v1 h-24 z M86 140 h12 v1 h-12 z M122 140 h12 v1 h-12 z M158 140 h12 v1 h-12 z M194 140 h12 v1 h-12 z M38 141 h24 v1 h-24 z M86 141 h12 v1 h-12 z M122 141 h12 v1 h-12 z M158 141 h12 v1 h-12 z M194 141 h12 v1 h-12 z M38 142 h24 v1 h-24 z M86 142 h12 v1 h-12 z M122 142 h12 v1 h-12 z M158 142 h12 v1 h-12 z M194 142 h12 v1 h-12 z M38 143 h24 v1 h-24 z M86 143 h12 v1 h-12 z M122 143 h12 v1 h-12 z M158 143 h12 v1 h-12 z M194 143 h12 v1 h-12 z M38 144 h24 v1 h-24 z M86 144 h12 v1 h-12 z M122 144 h12 v1 h-12 z M158 144 h12 v1 h-12 z M194 144 h12 v1 h-12 z M38 145 h24 v1 h-24 z M86 145 h12 v1 h-12 z M122 145 h12 v1 h-12 z M158 145 h12 v1 h-12 z M194 145 h12 v1 h-12 z M2 146 h24 v1 h-24 z M38 146 h12 v1 h-12 z M74 146 h24 v1 h-24 z M110 146 h12 v1 h-12 z M146 146 h24 v1 h-24 z M242 146 h12 v1 h-12 z M2 147 h24 v1 h-24 z M38 147 h12 v1 h-12 z M74 147 h24 v1 h-24 z M110 147 h12 v1 h-12 z M146 147 h24 v1 h-24 z M242 147 h12 v1 h-12 z M2 148 h24 v1 h-24 z M38 148 h12 v1 h-12 z M74 148 h24 v1 h-24 z M110 148 h12 v1 h-12 z M146 148 h24 v1 h-24 z M242 148 h12 v1 h-12 z M2 149 h24 v1 h-24 z M38 149 h12 v1 h-12 z M74 149 h24 v1 h-24 z M110 149 h12 v1 h-12 z M146 149 h24 v1 h-24 z M242 149 h12 v1 h-12 z M2 150 h24 v1 h-24 z M38 150 h12 v1 h-12 z M74 150 h24 v1 h-24 z M110 150 h12 v1 h-12 z M146 150 h24 v1 h-24 z M242 150 h12 v1 h-12 z M2 151 h24 v1 h-24 z M38 151 h12 v1 h-12 z M74 151 h24 v1 h-24 z M110 151 h12 v1 h-12 z M146 151 h24 v1 h-24 z M242 151 h12 v1 h-12 z M2 152 h24 v1 h-24 z M38 152 h12 v1 h-12 z M74 152 h24 v1 h-24 z M110 152 h12 v1 h-12 z M146 152 h24 v1 h-24 z M242 152 h12 v1 h-12 z M2 153 h24 v1 h-24 z M38 153 h12 v1 h-12 z M74 153 h24 v1 h-24 z M110 153 h12 v1 h-12 z M146 153 h24 v1 h-24 z M242 153 h12 v1 h-12 z M2 154 h24 v1 h-24 z M38 154 h12 v1 h-12 z M74 154 h24 v1 h-24 z M110 154 h12 v1 h-12 z M146 154 h24 v1 h-24 z M242 154 h12 v1 h-12 z M2 155 h24 v1 h-24 z M38 155 h12 v1 h-12 z M74 155 h24 v1 h-24 z M110 155 h12 v1 h-12 z M146 155 h24 v1 h-24 z M242 155 h12 v1 h-12 z M2 156 h24 v1 h-24 z M38 156 h12 v1 h-12 z M74 156 h24 v1 h-24 z M110 156 h12 v1 h-12 z M146 156 h24 v1 h-24 z M242 156 h12 v1 h-12 z M2 157 h24 v1 h-24 z M38 157 h12 v1 h-12 z M74 157 h24 v1 h-24 z M110 157 h12 v1 h-12 z M146 157 h24 v1 h-24 z M242 157 h12 v1 h-12 z M98 158 h24 v1 h-24 z M134 158 h24 v1 h-24 z M170 158 h12 v1 h-12 z M194 158 h12 v1 h-12 z M218 158 h12 v1 h-12 z M242 158 h12 v1 h-12 z M98 159 h24 v1 h-24 z M134 159 h24 v1 h-24 z M170 159 h12 v1 h-12 z M194 159 h12 v1 h-12 z M218 159 h12 v1 h-12 z M242 159 h12 v1 h-12 z M98 160 h24 v1 h-24 z M134 160 h24 v1 h-24 z M170 160 h12 v1 h-12 z M194 160 h12 v1 h-12 z M218 160 h12 v1 h-12 z M242 160 h12 v1 h-12 z M98 161 h24 v1 h-24 z M134 161 h24 v1 h-24 z M170 161 h12 v1 h-12 z M194 161 h12 v1 h-12 z M218 161 h12 v1 h-12 z M242 161 h12 v1 h-12 z M98 162 h24 v1 h-24 z M134 162 h24 v1 h-24 z M170 162 h12 v1 h-12 z M194 162 h12 v1 h-12 z M218 162 h12 v1 h-12 z M242 162 h12 v1 h-12 z M98 163 h24 v1 h-24 z M134 163 h24 v1 h-24 z M170 163 h12 v1 h-12 z M194 163 h12 v1 h-12 z M218 163 h12 v1 h-12 z M242 163 h12 v1 h-12 z M98 164 h24 v1 h-24 z M134 164 h24 v1 h-24 z M170 164 h12 v1 h-12 z M194 164 h12 v1 h-12 z M218 164 h12 v1 h-12 z M242 164 h12 v1 h-12 z M98 165 h24 v1 h-24 z M134 165 h24 v1 h-24 z M170 165 h12 v1 h-12 z M194 165 h12 v1 h-12 z M218 165 h12 v1 h-12 z M242 165 h12 v1 h-12 z M98 166 h24 v1 h-24 z M134 166 h24 v1 h-24 z M170 166 h12 v1 h-12 z M194 166 h12 v1 h-12 z M218 166 h12 v1 h-12 z M242 166 h12 v1 h-12 z M98 167 h24 v1 h-24 z M134 167 h24 v1 h-24 z M170 167 h12 v1 h-12 z M194 167 h12 v1 h-12 z M218 167 h12 v1 h-12 z M242 167 h12 v1 h-12 z M98 168 h24 v1 h-24 z M134 168 h24 v1 h-24 z M170 168 h12 v1 h-12 z M194 168 h12 v1 h-12 z M218 168 h12 v1 h-12 z M242 168 h12 v1 h-12 z M98 169 h24 v1 h-24 z M134 169 h24 v1 h-24 z M170 169 h12 v1 h-12 z M194 169 h12 v1 h-12 z M218 169 h12 v1 h-12 z M242 169 h12 v1 h-12 z M2 170 h84 v1 h-84 z M98 170 h24 v1 h-24 z M158 170 h12 v1 h-12 z M194 170 h12 v1 h-12 z M230 170 h12 v1 h-12 z M2 171 h84 v1 h-84 z M98 171 h24 v1 h-24 z M158 171 h12 v1 h-12 z M194 171 h12 v1 h-12 z M230 171 h12 v1 h-12 z M2 172 h84 v1 h-84 z M98 172 h24 v1 h-24 z M158 172 h12 v1 h-12 z M194 172 h12 v1 h-12 z M230 172 h12 v1 h-12 z M2 173 h84 v1 h-84 z M98 173 h24 v1 h-24 z M158 173 h12 v1 h-12 z M194 173 h12 v1 h-12 z M230 173 h12 v1 h-12 z M2 174 h84 v1 h-84 z M98 174 h24 v1 h-24 z M158 174 h12 v1 h-12 z M194 174 h12 v1 h-12 z M230 174 h12 v1 h-12 z M2 175 h84 v1 h-84 z M98 175 h24 v1 h-24 z M158 175 h12 v1 h-12 z M194 175 h12 v1 h-12 z M230 175 h12 v1 h-12 z M2 176 h84 v1 h-84 z M98 176 h24 v1 h-24 z M158 176 h12 v1 h-12 z M194 176 h12 v1 h-12 z M230 176 h12 v1 h-12 z M2 177 h84 v1 h-84 z M98 177 h24 v1 h-24 z M158 177 h12 v1 h-12 z M194 177 h12 v1 h-12 z M230 177 h12 v1 h-12 z M2 178 h84 v1 h-84 z M98 178 h24 v1 h-24 z M158 178 h12 v1 h-12 z M194 178 h12 v1 h-12 z M230 178 h12 v1 h-12 z M2 179 h84 v1 h-84 z M98 179 h24 v1 h-24 z M158 179 h12 v1 h-12 z M194 179 h12 v1 h-12 z M230 179 h12 v1 h-12 z M2 180 h84 v1 h-84 z M98 180 h24 v1 h-24 z M158 180 h12 v1 h-12 z M194 180 h12 v1 h-12 z M230 180 h12 v1 h-12 z M2 181 h84 v1 h-84 z M98 181 h24 v1 h-24 z M158 181 h12 v1 h-12 z M194 181 h12 v1 h-12 z M230 181 h12 v1 h-12 z M2 182 h12 v1 h-12 z M74 182 h12 v1 h-12 z M134 182 h12 v1 h-12 z M158 182 h12 v1 h-12 z M182 182 h24 v1 h-24 z M242 182 h12 v1 h-12 z M2 183 h12 v1 h-12 z M74 183 h12 v1 h-12 z M134 183 h12 v1 h-12 z M158 183 h12 v1 h-12 z M182 183 h24 v1 h-24 z M242 183 h12 v1 h-12 z M2 184 h12 v1 h-12 z M74 184 h12 v1 h-12 z M134 184 h12 v1 h-12 z M158 184 h12 v1 h-12 z M182 184 h24 v1 h-24 z M242 184 h12 v1 h-12 z M2 185 h12 v1 h-12 z M74 185 h12 v1 h-12 z M134 185 h12 v1 h-12 z M158 185 h12 v1 h-12 z M182 185 h24 v1 h-24 z M242 185 h12 v1 h-12 z M2 186 h12 v1 h-12 z M74 186 h12 v1 h-12 z M134 186 h12 v1 h-12 z M158 186 h12 v1 h-12 z M182 186 h24 v1 h-24 z M242 186 h12 v1 h-12 z M2 187 h12 v1 h-12 z M74 187 h12 v1 h-12 z M134 187 h12 v1 h-12 z M158 187 h12 v1 h-12 z M182 187 h24 v1 h-24 z M242 187 h12 v1 h-12 z M2 188 h12 v1 h-12 z M74 188 h12 v1 h-12 z M134 188 h12 v1 h-12 z M158 188 h12 v1 h-12 z M182 188 h24 v1 h-24 z M242 188 h12 v1 h-12 z M2 189 h12 v1 h-12 z M74 189 h12 v1 h-12 z M134 189 h12 v1 h-12 z M158 189 h12 v1 h-12 z M182 189 h24 v1 h-24 z M242 189 h12 v1 h-12 z M2 190 h12 v1 h-12 z M74 190 h12 v1 h-12 z M134 190 h12 v1 h-12 z M158 190 h12 v1 h-12 z M182 190 h24 v1 h-24 z M242 190 h12 v1 h-12 z M2 191 h12 v1 h-12 z M74 191 h12 v1 h-12 z M134 191 h12 v1 h-12 z M158 191 h12 v1 h-12 z M182 191 h24 v1 h-24 z M242 191 h12 v1 h-12 z M2 192 h12 v1 h-12 z M74 192 h12 v1 h-12 z M134 192 h12 v1 h-12 z M158 192 h12 v1 h-12 z M182 192 h24 v1 h-24 z M242 192 h12 v1 h-12 z M2 193 h12 v1 h-12 z M74 193 h12 v1 h-12 z M134 193 h12 v1 h-12 z M158 193 h12 v1 h-12 z M182 193 h24 v1 h-24 z M242 193 h12 v1 h-12 z M2 194 h12 v1 h-12 z M26 194 h36 v1 h-36 z M74 194 h12 v1 h-12 z M98 194 h36 v1 h-36 z M146 194 h24 v1 h-24 z M2 195 h12 v1 h-12 z M26 195 h36 v1 h-36 z M74 195 h12 v1 h-12 z M98 195 h36 v1 h-36 z M146 195 h24 v1 h-24 z M2 196 h12 v1 h-12 z M26 196 h36 v1 h-36 z M74 196 h12 v1 h-12 z M98 196 h36 v1 h-36 z M146 196 h24 v1 h-24 z M2 197 h12 v1 h-12 z M26 197 h36 v1 h-36 z M74 197 h12 v1 h-12 z M98 197 h36 v1 h-36 z M146 197 h24 v1 h-24 z M2 198 h12 v1 h-12 z M26 198 h36 v1 h-36 z M74 198 h12 v1 h-12 z M98 198 h36 v1 h-36 z M146 198 h24 v1 h-24 z M2 199 h12 v1 h-12 z M26 199 h36 v1 h-36 z M74 199 h12 v1 h-12 z M98 199 h36 v1 h-36 z M146 199 h24 v1 h-24 z M2 200 h12 v1 h-12 z M26 200 h36 v1 h-36 z M74 200 h12 v1 h-12 z M98 200 h36 v1 h-36 z M146 200 h24 v1 h-24 z M2 201 h12 v1 h-12 z M26 201 h36 v1 h-36 z M74 201 h12 v1 h-12 z M98 201 h36 v1 h-36 z M146 201 h24 v1 h-24 z M2 202 h12 v1 h-12 z M26 202 h36 v1 h-36 z M74 202 h12 v1 h-12 z M98 202 h36 v1 h-36 z M146 202 h24 v1 h-24 z M2 203 h12 v1 h-12 z M26 203 h36 v1 h-36 z M74 203 h12 v1 h-12 z M98 203 h36 v1 h-36 z M146 203 h24 v1 h-24 z M2 204 h12 v1 h-12 z M26 204 h36 v1 h-36 z M74 204 h12 v1 h-12 z M98 204 h36 v1 h-36 z M146 204 h24 v1 h-24 z M2 205 h12 v1 h-12 z M26 205 h36 v1 h-36 z M74 205 h12 v1 h-12 z M98 205 h36 v1 h-36 z M146 205 h24 v1 h-24 z M2 206 h12 v1 h-12 z M26 206 h36 v1 h-36 z M74 206 h12 v1 h-12 z M122 206 h12 v1 h-12 z M182 206 h36 v1 h-36 z M230 206 h24 v1 h-24 z M2 207 h12 v1 h-12 z M26 207 h36 v1 h-36 z M74 207 h12 v1 h-12 z M122 207 h12 v1 h-12 z M182 207 h36 v1 h-36 z M230 207 h24 v1 h-24 z M2 208 h12 v1 h-12 z M26 208 h36 v1 h-36 z M74 208 h12 v1 h-12 z M122 208 h12 v1 h-12 z M182 208 h36 v1 h-36 z M230 208 h24 v1 h-24 z M2 209 h12 v1 h-12 z M26 209 h36 v1 h-36 z M74 209 h12 v1 h-12 z M122 209 h12 v1 h-12 z M182 209 h36 v1 h-36 z M230 209 h24 v1 h-24 z M2 210 h12 v1 h-12 z M26 210 h36 v1 h-36 z M74 210 h12 v1 h-12 z M122 210 h12 v1 h-12 z M182 210 h36 v1 h-36 z M230 210 h24 v1 h-24 z M2 211 h12 v1 h-12 z M26 211 h36 v1 h-36 z M74 211 h12 v1 h-12 z M122 211 h12 v1 h-12 z M182 211 h36 v1 h-36 z M230 211 h24 v1 h-24 z M2 212 h12 v1 h-12 z M26 212 h36 v1 h-36 z M74 212 h12 v1 h-12 z M122 212 h12 v1 h-12 z M182 212 h36 v1 h-36 z M230 212 h24 v1 h-24 z M2 213 h12 v1 h-12 z M26 213 h36 v1 h-36 z M74 213 h12 v1 h-12 z M122 213 h12 v1 h-12 z M182 213 h36 v1 h-36 z M230 213 h24 v1 h-24 z M2 214 h12 v1 h-12 z M26 214 h36 v1 h-36 z M74 214 h12 v1 h-12 z M122 214 h12 v1 h-12 z M182 214 h36 v1 h-36 z M230 214 h24 v1 h-24 z M2 215 h12 v1 h-12 z M26 215 h36 v1 h-36 z M74 215 h12 v1 h-12 z M122 215 h12 v1 h-12 z M182 215 h36 v1 h-36 z M230 215 h24 v1 h-24 z M2 216 h12 v1 h-12 z M26 216 h36 v1 h-36 z M74 216 h12 v1 h-12 z M122 216 h12 v1 h-12 z M182 216 h36 v1 h-36 z M230 216 h24 v1 h-24 z M2 217 h12 v1 h-12 z M26 217 h36 v1 h-36 z M74 217 h12 v1 h-12 z M122 217 h12 v1 h-12 z M182 217 h36 v1 h-36 z M230 217 h24 v1 h-24 z M2 218 h12 v1 h-12 z M26 218 h36 v1 h-36 z M74 218 h12 v1 h-12 z M110 218 h12 v1 h-12 z M134 218 h12 v1 h-12 z M170 218 h12 v1 h-12 z M194 218 h36 v1 h-36 z M2 219 h12 v1 h-12 z M26 219 h36 v1 h-36 z M74 219 h12 v1 h-12 z M110 219 h12 v1 h-12 z M134 219 h12 v1 h-12 z M170 219 h12 v1 h-12 z M194 219 h36 v1 h-36 z M2 220 h12 v1 h-12 z M26 220 h36 v1 h-36 z M74 220 h12 v1 h-12 z M110 220 h12 v1 h-12 z M134 220 h12 v1 h-12 z M170 220 h12 v1 h-12 z M194 220 h36 v1 h-36 z M2 221 h12 v1 h-12 z M26 221 h36 v1 h-36 z M74 221 h12 v1 h-12 z M110 221 h12 v1 h-12 z M134 221 h12 v1 h-12 z M170 221 h12 v1 h-12 z M194 221 h36 v1 h-36 z M2 222 h12 v1 h-12 z M26 222 h36 v1 h-36 z M74 222 h12 v1 h-12 z M110 222 h12 v1 h-12 z M134 222 h12 v1 h-12 z M170 222 h12 v1 h-12 z M194 222 h36 v1 h-36 z M2 223 h12 v1 h-12 z M26 223 h36 v1 h-36 z M74 223 h12 v1 h-12 z M110 223 h12 v1 h-12 z M134 223 h12 v1 h-12 z M170 223 h12 v1 h-12 z M194 223 h36 v1 h-36 z M2 224 h12 v1 h-12 z M26 224 h36 v1 h-36 z M74 224 h12 v1 h-12 z M110 224 h12 v1 h-12 z M134 224 h12 v1 h-12 z M170 224 h12 v1 h-12 z M194 224 h36 v1 h-36 z M2 225 h12 v1 h-12 z M26 225 h36 v1 h-36 z M74 225 h12 v1 h-12 z M110 225 h12 v1 h-12 z M134 225 h12 v1 h-12 z M170 225 h12 v1 h-12 z M194 225 h36 v1 h-36 z M2 226 h12 v1 h-12 z M26 226 h36 v1 h-36 z M74 226 h12 v1 h-12 z M110 226 h12 v1 h-12 z M134 226 h12 v1 h-12 z M170 226 h12 v1 h-12 z M194 226 h36 v1 h-36 z M2 227 h12 v1 h-12 z M26 227 h36 v1 h-36 z M74 227 h12 v1 h-12 z M110 227 h12 v1 h-12 z M134 227 h12 v1 h-12 z M170 227 h12 v1 h-12 z M194 227 h36 v1 h-36 z M2 228 h12 v1 h-12 z M26 228 h36 v1 h-36 z M74 228 h12 v1 h-12 z M110 228 h12 v1 h-12 z M134 228 h12 v1 h-12 z M170 228 h12 v1 h-12 z M194 228 h36 v1 h-36 z M2 229 h12 v1 h-12 z M26 229 h36 v1 h-36 z M74 229 h12 v1 h-12 z M110 229 h12 v1 h-12 z M134 229 h12 v1 h-12 z M170 229 h12 v1 h-12 z M194 229 h36 v1 h-36 z M2 230 h12 v1 h-12 z M74 230 h12 v1 h-12 z M134 230 h12 v1 h-12 z M158 230 h12 v1 h-12 z M2 231 h12 v1 h-12 z M74 231 h12 v1 h-12 z M134 231 h12 v1 h-12 z M158 231 h12 v1 h-12 z M2 232 h12 v1 h-12 z M74 232 h12 v1 h-12 z M134 232 h12 v1 h-12 z M158 232 h12 v1 h-12 z M2 233 h12 v1 h-12 z M74 233 h12 v1 h-12 z M134 233 h12 v1 h-12 z M158 233 h12 v1 h-12 z M2 234 h12 v1 h-12 z M74 234 h12 v1 h-12 z M134 234 h12 v1 h-12 z M158 234 h12 v1 h-12 z M2 235 h12 v1 h-12 z M74 235 h12 v1 h-12 z M134 235 h12 v1 h-12 z M158 235 h12 v1 h-12 z M2 236 h12 v1 h-12 z M74 236 h12 v1 h-12 z M134 236 h12 v1 h-12 z M158 236 h12 v1 h-12 z M2 237 h12 v1 h-12 z M74 237 h12 v1 h-12 z M134 237 h12 v1 h-12 z M158 237 h12 v1 h-12 z M2 238 h12 v1 h-12 z M74 238 h12 v1 h-12 z M134 238 h12 v1 h-12 z M158 238 h12 v1 h-12 z M2 239 h12 v1 h-12 z M74 239 h12 v1 h-12 z M134 239 h12 v1 h-12 z M158 239 h12 v1 h-12 z M2 240 h12 v1 h-12 z M74 240 h12 v1 h-12 z M134 240 h12 v1 h-12 z M158 240 h12 v1 h-12 z M2 241 h12 v1 h-12 z M74 241 h12 v1 h-12 z M134 241 h12 v1 h-12 z M158 241 h12 v1 h-12 z M2 242 h84 v1 h-84 z M98 242 h60 v1 h-60 z M206 242 h12 v1 h-12 z M242 242 h12 v1 h-12 z M2 243 h84 v1 h-84 z M98 243 h60 v1 h-60 z M206 243 h12 v1 h-12 z M242 243 h12 v1 h-12 z M2 244 h84 v1 h-84 z M98 244 h60 v1 h-60 z M206 244 h12 v1 h-12 z M242 244 h12 v1 h-12 z M2 245 h84 v1 h-84 z M98 245 h60 v1 h-60 z M206 245 h12 v1 h-12 z M242 245 h12 v1 h-12 z M2 246 h84 v1 h-84 z M98 246 h60 v1 h-60 z M206 246 h12 v1 h-12 z M242 246 h12 v1 h-12 z M2 247 h84 v1 h-84 z M98 247 h60 v1 h-60 z M206 247 h12 v1 h-12 z M242 247 h12 v1 h-12 z M2 248 h84 v1 h-84 z M98 248 h60 v1 h-60 z M206 248 h12 v1 h-12 z M242 248 h12 v1 h-12 z M2 249 h84 v1 h-84 z M98 249 h60 v1 h-60 z M206 249 h12 v1 h-12 z M242 249 h12 v1 h-12 z M2 250 h84 v1 h-84 z M98 250 h60 v1 h-60 z M206 250 h12 v1 h-12 z M242 250 h12 v1 h-12 z M2 251 h84 v1 h-84 z M98 251 h60 v1 h-60 z M206 251 h12 v1 h-12 z M242 251 h12 v1 h-12 z M2 252 h84 v1 h-84 z M98 252 h60 v1 h-60 z M206 252 h12 v1 h-12 z M242 252 h12 v1 h-12 z M2 253 h84 v1 h-84 z M98 253 h60 v1 h-60 z M206 253 h12 v1 h-12 z M242 253 h12 v1 h-12 z " fill="black"/>
  
</svg>